# Blender v3.1.2 OBJ File: ''
# www.blender.org
mtllib Болт крепления водяного насоса.mtl
o Болт_крепления_водяного_насоса
v 4.000000 0.000000 -31.000000
v 3.464102 -2.000000 -31.000000
v 3.464102 2.000000 -31.000000
v 2.000000 -3.464102 -31.000000
v 0.000000 -4.000000 -31.000000
v -2.000000 -3.464102 -31.000000
v -3.464102 -2.000000 -31.000000
v -3.863703 1.035276 -31.000000
v -3.464102 2.000000 -31.000000
v -4.000000 0.000000 -31.000000
v -3.863703 -1.035276 -31.000000
v -2.000000 3.464102 -31.000000
v -0.000000 4.000000 -31.000000
v 2.000000 3.464102 -31.000000
v -0.000000 4.000000 -28.000000
v -0.000000 4.000000 -31.000000
v 3.464102 2.000000 -28.000000
v -3.464102 2.000000 -28.000000
v -0.000000 4.000000 -31.000000
v 0.000000 4.000000 -28.000000
v -3.464102 -2.000000 -28.000000
v 0.000000 -4.000000 -28.000000
v 0.000000 -4.000000 -31.000000
v 3.464102 -2.000000 -28.000000
v 0.000000 -4.000000 -31.000000
v 0.000000 -4.000000 -28.000000
v -4.000000 0.000000 -31.500000
v -3.695518 1.530734 -31.500000
v -2.828427 2.828427 -31.500000
v -1.530734 3.695518 -31.500000
v 1.530734 3.695518 -31.500000
v 2.828427 2.828427 -31.500000
v 3.695518 1.530734 -31.500000
v 3.695518 -1.530734 -31.500000
v 2.828427 -2.828427 -31.500000
v 1.530734 -3.695518 -31.500000
v -1.530734 -3.695518 -31.500000
v -2.828427 -2.828427 -31.500000
v -3.695518 -1.530734 -31.500000
v 0.000000 -4.000000 -31.500000
v 4.000000 0.000000 -31.500000
v -0.000000 4.000000 -31.500000
v -3.926488 1.626405 -31.933012
v -3.005204 3.005204 -31.933012
v -3.757406 1.556369 -31.750000
v -2.875794 2.875794 -31.750000
v -1.626405 3.926488 -31.933012
v -1.556369 3.757406 -31.750000
v -0.000000 4.250000 -31.933012
v -0.000000 4.066988 -31.750000
v 1.626405 3.926488 -31.933012
v 1.556369 3.757406 -31.750000
v 3.005204 3.005204 -31.933012
v 2.875794 2.875794 -31.750000
v 3.926488 1.626405 -31.933012
v 3.757406 1.556369 -31.750000
v 4.250000 0.000000 -31.933012
v 4.066988 0.000000 -31.750000
v 3.926488 -1.626405 -31.933012
v 3.757406 -1.556369 -31.750000
v 3.005204 -3.005204 -31.933012
v 2.875794 -2.875794 -31.750000
v 1.626405 -3.926488 -31.933012
v 1.556369 -3.757406 -31.750000
v 0.000000 -4.250000 -31.933012
v 0.000000 -4.066988 -31.750000
v -1.626405 -3.926488 -31.933012
v -1.556369 -3.757406 -31.750000
v -3.005204 -3.005204 -31.933012
v -2.875794 -2.875794 -31.750000
v -3.926488 -1.626405 -31.933012
v -3.757406 -1.556369 -31.750000
v -4.250000 0.000000 -31.933012
v -4.500000 0.000000 -32.000000
v -4.157458 1.722075 -32.000000
v -3.181981 3.181981 -32.000000
v -1.722075 4.157458 -32.000000
v -0.000000 4.500000 -32.000000
v 1.722075 4.157458 -32.000000
v 3.181981 3.181981 -32.000000
v 4.157458 1.722075 -32.000000
v 4.500000 0.000000 -32.000000
v 4.157458 -1.722075 -32.000000
v 3.181981 -3.181981 -32.000000
v 1.722075 -4.157458 -32.000000
v 0.000000 -4.500000 -32.000000
v -1.722075 -4.157458 -32.000000
v -3.181981 -3.181981 -32.000000
v -4.157458 -1.722075 -32.000000
v -4.066988 0.000000 -31.750000
v -4.619398 -1.913417 -32.000000
v -5.000000 0.000000 -32.000000
v -3.535534 -3.535534 -32.000000
v -1.913417 -4.619398 -32.000000
v 0.000000 -5.000000 -32.000000
v 1.913417 -4.619398 -32.000000
v 3.535534 -3.535534 -32.000000
v 4.619398 -1.913417 -32.000000
v 5.000000 0.000000 -32.000000
v 4.619398 1.913417 -32.000000
v 3.535534 3.535534 -32.000000
v 1.913417 4.619398 -32.000000
v -0.000000 5.000000 -32.000000
v -1.913417 4.619398 -32.000000
v -3.535534 3.535534 -32.000000
v -4.619398 1.913417 -32.000000
v -5.000000 0.000000 -27.000000
v -4.619398 1.913417 -27.000000
v -3.535534 3.535534 -27.000000
v -1.913417 4.619398 -27.000000
v -0.000000 5.000000 -27.000000
v 1.913417 4.619398 -27.000000
v 3.535534 3.535534 -27.000000
v 4.619398 1.913417 -27.000000
v 5.000000 0.000000 -27.000000
v 4.619398 -1.913417 -27.000000
v 3.535534 -3.535534 -27.000000
v 1.913417 -4.619398 -27.000000
v 0.000000 -5.000000 -27.000000
v -1.913417 -4.619398 -27.000000
v -3.535534 -3.535534 -27.000000
v -4.619398 -1.913417 -27.000000
v -5.000000 -0.000000 -27.000000
v -5.000000 0.000000 -32.000000
v -3.099096 1.626531 -27.000000
v -1.988227 2.880444 -27.000000
v -0.421878 3.474481 -27.000000
v 1.241117 3.272557 -27.000000
v 2.619788 2.320929 -27.000000
v 3.398296 0.837605 -27.000000
v 3.398296 -0.837605 -27.000000
v 2.619788 -2.320929 -27.000000
v 1.241117 -3.272557 -27.000000
v -0.421878 -3.474481 -27.000000
v -1.988227 -2.880444 -27.000000
v -3.099096 -1.626531 -27.000000
v -3.500000 0.000000 -27.000000
v -3.500000 -0.000000 -1.000000
v -3.099096 1.626531 -1.000000
v -1.988227 2.880444 -1.000000
v -0.421878 3.474481 -1.000000
v 1.241117 3.272557 -1.000000
v 2.619788 2.320929 -1.000000
v 3.398296 0.837605 -1.000000
v 3.398296 -0.837605 -1.000000
v 2.619788 -2.320929 -1.000000
v 1.241117 -3.272557 -1.000000
v -0.421878 -3.474481 -1.000000
v -1.988227 -2.880444 -1.000000
v -3.099096 -1.626531 -1.000000
v -3.500000 -0.000000 -1.000000
v -3.500000 0.000000 -27.000000
v -2.213640 1.161808 0.000000
v -2.500000 -0.000000 0.000000
v -1.420162 2.057460 0.000000
v -0.301342 2.481772 0.000000
v 0.886512 2.337541 0.000000
v 1.871277 1.657807 0.000000
v 2.427355 0.598289 0.000000
v 2.427355 -0.598289 0.000000
v 1.871277 -1.657807 -0.000000
v 0.886512 -2.337541 -0.000000
v -0.301342 -2.481772 -0.000000
v -1.420162 -2.057460 -0.000000
v -2.213640 -1.161808 -0.000000
v -2.500000 -0.000000 0.000000
v -2.213640 1.161808 0.000000
v -2.500000 -0.000000 -0.000000
v -1.420162 2.057460 0.000000
v -2.213640 -1.161808 -0.000000
v -0.301342 2.481772 0.000000
v -1.420162 -2.057460 -0.000000
v 0.886512 2.337541 0.000000
v -0.301342 -2.481772 -0.000000
v 1.871277 1.657807 0.000000
v 0.886512 -2.337541 -0.000000
v 2.427355 0.598289 0.000000
v 1.871277 -1.657807 -0.000000
v 2.427355 -0.598289 -0.000000
vn 0.0000 0.0000 -1.0000
vn -0.5000 -0.8660 0.0000
vn 0.5000 -0.8660 0.0000
vn 1.0000 0.0000 0.0000
vn 0.5000 0.8660 0.0000
vn -0.5000 0.8660 0.0000
vn -1.0000 0.0000 0.0000
vn 0.9914 -0.1305 0.0000
vn 0.9217 -0.3818 -0.0683
vn 0.6822 -0.6822 -0.2630
vn 0.2536 -0.9464 -0.2000
vn -0.2536 -0.9464 -0.2000
vn -0.6822 -0.6822 -0.2630
vn -0.9464 -0.2536 -0.2000
vn -0.9464 0.2536 -0.2000
vn -0.6822 0.6822 -0.2630
vn -0.2536 0.9464 -0.2000
vn 0.2536 0.9464 -0.2000
vn 0.6822 0.6822 -0.2630
vn 0.9217 0.3818 -0.0683
vn 0.9914 0.1305 0.0000
vn 0.9718 0.1933 0.1353
vn 0.8238 0.5505 0.1353
vn 0.5505 0.8238 0.1353
vn 0.1951 0.9808 0.0000
vn -0.1951 0.9808 0.0000
vn -0.5505 0.8238 0.1353
vn -0.8238 0.5505 0.1353
vn -0.9808 0.1951 0.0000
vn -0.9808 -0.1951 0.0000
vn -0.8238 -0.5505 0.1353
vn -0.5505 -0.8238 0.1353
vn -0.1951 -0.9808 0.0000
vn 0.1951 -0.9808 0.0000
vn 0.5505 -0.8238 0.1353
vn 0.8238 -0.5505 0.1353
vn 0.9718 -0.1933 0.1353
vn 0.5936 -0.3966 -0.7002
vn 0.3966 -0.5936 -0.7002
vn 0.1393 -0.7002 -0.7002
vn -0.1393 -0.7002 -0.7002
vn -0.3966 -0.5936 -0.7002
vn -0.5936 -0.3966 -0.7002
vn -0.7002 -0.1393 -0.7002
vn -0.7002 0.1393 -0.7002
vn -0.5936 0.3966 -0.7002
vn -0.3966 0.5936 -0.7002
vn -0.1393 0.7002 -0.7002
vn 0.1393 0.7002 -0.7002
vn 0.3966 0.5936 -0.7002
vn 0.5936 0.3966 -0.7002
vn 0.2585 -0.0514 -0.9646
vn 0.2191 -0.1464 -0.9646
vn 0.1464 -0.2191 -0.9646
vn 0.0514 -0.2585 -0.9646
vn -0.0514 -0.2585 -0.9646
vn -0.1464 -0.2191 -0.9646
vn -0.2191 -0.1464 -0.9646
vn -0.2585 -0.0514 -0.9646
vn -0.2585 0.0514 -0.9646
vn -0.2191 0.1464 -0.9646
vn -0.1464 0.2191 -0.9646
vn -0.0514 0.2585 -0.9646
vn 0.0514 0.2585 -0.9646
vn 0.1464 0.2191 -0.9646
vn 0.2191 0.1464 -0.9646
vn 0.2585 0.0514 -0.9646
vn 0.7002 0.1393 -0.7002
vn 0.9486 0.1887 -0.2542
vn 0.8042 0.5373 -0.2542
vn 0.5373 0.8042 -0.2542
vn 0.1887 0.9486 -0.2542
vn -0.1887 0.9486 -0.2542
vn -0.5373 0.8042 -0.2542
vn -0.8042 0.5373 -0.2542
vn -0.9486 0.1887 -0.2542
vn -0.9486 -0.1887 -0.2542
vn -0.8042 -0.5373 -0.2542
vn -0.5373 -0.8042 -0.2542
vn -0.1887 -0.9486 -0.2542
vn 0.1887 -0.9486 -0.2542
vn 0.5373 -0.8042 -0.2542
vn 0.8042 -0.5373 -0.2542
vn 0.9486 -0.1887 -0.2542
vn 0.7002 -0.1393 -0.7002
vn -0.8315 0.5556 0.0000
vn -0.5556 0.8315 0.0000
vn 0.5556 0.8315 0.0000
vn 0.8315 0.5556 0.0000
vn 0.9808 0.1951 0.0000
vn 0.9808 -0.1951 0.0000
vn 0.8315 -0.5556 0.0000
vn 0.5556 -0.8315 0.0000
vn -0.5556 -0.8315 0.0000
vn -0.8315 -0.5556 0.0000
vn 0.0000 0.0000 1.0000
vn -0.9709 0.2393 0.0000
vn -0.7485 0.6631 0.0000
vn -0.3546 0.9350 0.0000
vn 0.1205 0.9927 0.0000
vn 0.5681 0.8230 0.0000
vn 0.8855 0.4647 0.0000
vn 0.8855 -0.4647 0.0000
vn 0.5681 -0.8230 0.0000
vn 0.1205 -0.9927 0.0000
vn -0.3546 -0.9350 0.0000
vn -0.7485 -0.6631 0.0000
vn -0.9709 -0.2393 0.0000
vn -0.6966 0.1717 0.6966
vn -0.5370 0.4758 0.6966
vn -0.2544 0.6708 0.6966
vn 0.0865 0.7122 0.6966
vn 0.4076 0.5905 0.6966
vn 0.6353 0.3334 0.6966
vn 0.7175 0.0000 0.6966
vn 0.6353 -0.3334 0.6966
vn 0.4076 -0.5905 0.6966
vn 0.0865 -0.7122 0.6966
vn -0.2544 -0.6708 0.6966
vn -0.5370 -0.4758 0.6966
vn -0.6966 -0.1717 0.6966
usemtl None
s off
f 1//1 2//1 3//1
f 4//1 5//1 2//1
f 6//1 7//1 5//1
f 8//1 9//1 10//1
f 9//1 7//1 10//1
f 10//1 7//1 11//1
f 12//1 13//1 9//1
f 14//1 3//1 13//1
f 15//2 16//2 3//2
f 17//2 15//2 3//2
f 18//3 9//3 19//3
f 20//3 18//3 19//3
f 21//4 7//4 9//4
f 18//4 21//4 9//4
f 22//5 23//5 7//5
f 21//5 22//5 7//5
f 24//6 2//6 25//6
f 26//6 24//6 25//6
f 17//7 3//7 2//7
f 24//7 17//7 2//7
f 8//8 10//8 27//8
f 28//9 9//9 8//9
f 29//10 12//10 9//10
f 30//11 13//11 12//11
f 31//12 14//12 13//12
f 32//13 3//13 14//13
f 33//14 1//14 3//14
f 34//15 2//15 1//15
f 35//16 4//16 2//16
f 36//17 5//17 4//17
f 37//18 6//18 5//18
f 38//19 7//19 6//19
f 39//20 11//20 7//20
f 27//21 10//21 11//21
f 11//22 39//22 27//22
f 7//23 38//23 39//23
f 6//24 37//24 38//24
f 5//25 40//25 37//25
f 5//26 36//26 40//26
f 4//27 35//27 36//27
f 2//28 34//28 35//28
f 1//29 41//29 34//29
f 1//30 33//30 41//30
f 3//31 32//31 33//31
f 14//32 31//32 32//32
f 13//33 42//33 31//33
f 13//34 30//34 42//34
f 12//35 29//35 30//35
f 9//36 28//36 29//36
f 8//37 27//37 28//37
f 15//1 17//1 18//1
f 17//1 24//1 18//1
f 18//1 24//1 21//1
f 24//1 22//1 21//1
f 43//38 44//38 45//38
f 45//38 44//38 46//38
f 44//39 47//39 48//39
f 44//39 48//39 46//39
f 47//40 49//40 50//40
f 47//40 50//40 48//40
f 49//41 51//41 52//41
f 49//41 52//41 50//41
f 51//42 53//42 52//42
f 52//42 53//42 54//42
f 53//43 55//43 56//43
f 53//43 56//43 54//43
f 55//44 57//44 58//44
f 55//44 58//44 56//44
f 57//45 59//45 60//45
f 57//45 60//45 58//45
f 59//46 61//46 60//46
f 60//46 61//46 62//46
f 61//47 63//47 64//47
f 61//47 64//47 62//47
f 63//48 65//48 66//48
f 63//48 66//48 64//48
f 65//49 67//49 68//49
f 65//49 68//49 66//49
f 67//50 69//50 68//50
f 68//50 69//50 70//50
f 69//51 71//51 72//51
f 69//51 72//51 70//51
f 73//52 74//52 75//52
f 75//53 76//53 43//53
f 76//54 77//54 44//54
f 77//55 78//55 47//55
f 78//56 79//56 49//56
f 79//57 80//57 51//57
f 80//58 81//58 53//58
f 81//59 82//59 55//59
f 82//60 83//60 57//60
f 83//61 84//61 59//61
f 84//62 85//62 61//62
f 85//63 86//63 63//63
f 86//64 87//64 65//64
f 87//65 88//65 67//65
f 88//66 89//66 69//66
f 89//67 74//67 73//67
f 73//68 90//68 71//68
f 90//69 27//69 39//69
f 39//70 38//70 70//70
f 38//71 37//71 68//71
f 37//72 40//72 66//72
f 40//73 36//73 64//73
f 36//74 35//74 62//74
f 35//75 34//75 60//75
f 34//76 41//76 58//76
f 41//77 33//77 56//77
f 33//78 32//78 54//78
f 32//79 31//79 52//79
f 31//80 42//80 50//80
f 42//81 30//81 48//81
f 30//82 29//82 46//82
f 29//83 28//83 45//83
f 28//84 27//84 90//84
f 90//85 73//85 43//85
f 44//53 43//53 76//53
f 47//54 44//54 77//54
f 49//55 47//55 78//55
f 51//56 49//56 79//56
f 53//57 51//57 80//57
f 55//58 53//58 81//58
f 57//59 55//59 82//59
f 43//85 45//85 90//85
f 45//83 46//83 29//83
f 46//82 48//82 30//82
f 48//81 50//81 42//81
f 50//80 52//80 31//80
f 52//79 54//79 32//79
f 54//78 56//78 33//78
f 56//77 58//77 41//77
f 59//60 57//60 83//60
f 61//61 59//61 84//61
f 63//62 61//62 85//62
f 65//63 63//63 86//63
f 67//64 65//64 87//64
f 69//65 67//65 88//65
f 71//66 69//66 89//66
f 72//68 71//68 90//68
f 58//76 60//76 34//76
f 60//75 62//75 35//75
f 62//74 64//74 36//74
f 64//73 66//73 40//73
f 66//72 68//72 37//72
f 68//71 70//71 38//71
f 70//70 72//70 39//70
f 73//52 75//52 43//52
f 89//67 73//67 71//67
f 90//69 39//69 72//69
f 45//84 28//84 90//84
f 91//1 92//1 93//1
f 92//1 89//1 93//1
f 93//1 88//1 94//1
f 88//1 87//1 94//1
f 94//1 87//1 95//1
f 87//1 86//1 95//1
f 95//1 86//1 96//1
f 86//1 85//1 96//1
f 96//1 85//1 97//1
f 85//1 84//1 97//1
f 97//1 84//1 98//1
f 84//1 83//1 98//1
f 98//1 83//1 99//1
f 83//1 82//1 99//1
f 99//1 82//1 100//1
f 82//1 81//1 100//1
f 100//1 81//1 101//1
f 81//1 80//1 101//1
f 101//1 80//1 102//1
f 80//1 79//1 102//1
f 102//1 79//1 103//1
f 79//1 78//1 103//1
f 103//1 78//1 104//1
f 78//1 77//1 104//1
f 104//1 77//1 105//1
f 77//1 76//1 105//1
f 105//1 76//1 106//1
f 76//1 75//1 106//1
f 106//1 75//1 92//1
f 75//1 74//1 92//1
f 92//1 74//1 89//1
f 88//1 93//1 89//1
f 107//29 108//29 106//29
f 107//29 106//29 92//29
f 108//86 109//86 105//86
f 108//86 105//86 106//86
f 109//87 110//87 104//87
f 109//87 104//87 105//87
f 110//26 111//26 103//26
f 110//26 103//26 104//26
f 111//25 112//25 102//25
f 111//25 102//25 103//25
f 112//88 113//88 101//88
f 112//88 101//88 102//88
f 113//89 114//89 100//89
f 113//89 100//89 101//89
f 114//90 115//90 99//90
f 114//90 99//90 100//90
f 115//91 116//91 98//91
f 115//91 98//91 99//91
f 116//92 117//92 97//92
f 116//92 97//92 98//92
f 117//93 118//93 96//93
f 117//93 96//93 97//93
f 118//34 119//34 95//34
f 118//34 95//34 96//34
f 119//33 120//33 94//33
f 119//33 94//33 95//33
f 120//94 121//94 93//94
f 120//94 93//94 94//94
f 121//95 122//95 91//95
f 121//95 91//95 93//95
f 122//30 123//30 124//30
f 122//30 124//30 91//30
f 108//96 107//96 109//96
f 107//96 122//96 109//96
f 109//96 122//96 110//96
f 122//96 125//96 110//96
f 110//96 126//96 111//96
f 126//96 127//96 111//96
f 111//96 127//96 112//96
f 127//96 128//96 112//96
f 112//96 128//96 113//96
f 128//96 129//96 113//96
f 113//96 129//96 114//96
f 129//96 130//96 114//96
f 114//96 130//96 115//96
f 130//96 131//96 115//96
f 115//96 131//96 116//96
f 131//96 132//96 116//96
f 116//96 132//96 117//96
f 132//96 133//96 117//96
f 117//96 133//96 118//96
f 133//96 134//96 118//96
f 118//96 134//96 119//96
f 134//96 135//96 119//96
f 119//96 135//96 120//96
f 135//96 136//96 120//96
f 120//96 136//96 121//96
f 136//96 137//96 121//96
f 121//96 137//96 122//96
f 126//96 110//96 125//96
f 125//96 122//96 137//96
f 138//97 139//97 125//97
f 138//97 125//97 137//97
f 139//98 140//98 126//98
f 139//98 126//98 125//98
f 140//99 141//99 127//99
f 140//99 127//99 126//99
f 141//100 142//100 128//100
f 141//100 128//100 127//100
f 142//101 143//101 129//101
f 142//101 129//101 128//101
f 143//102 144//102 130//102
f 143//102 130//102 129//102
f 144//4 145//4 131//4
f 144//4 131//4 130//4
f 145//103 146//103 132//103
f 145//103 132//103 131//103
f 146//104 147//104 133//104
f 146//104 133//104 132//104
f 147//105 148//105 134//105
f 147//105 134//105 133//105
f 148//106 149//106 135//106
f 148//106 135//106 134//106
f 149//107 150//107 136//107
f 149//107 136//107 135//107
f 150//108 151//108 152//108
f 150//108 152//108 136//108
f 153//109 139//109 138//109
f 154//109 153//109 138//109
f 155//110 140//110 139//110
f 153//110 155//110 139//110
f 156//111 141//111 140//111
f 155//111 156//111 140//111
f 157//112 142//112 141//112
f 156//112 157//112 141//112
f 158//113 143//113 142//113
f 157//113 158//113 142//113
f 159//114 144//114 143//114
f 158//114 159//114 143//114
f 160//115 145//115 144//115
f 159//115 160//115 144//115
f 161//116 146//116 145//116
f 160//116 161//116 145//116
f 162//117 147//117 146//117
f 161//117 162//117 146//117
f 163//118 148//118 147//118
f 162//118 163//118 147//118
f 164//119 149//119 148//119
f 163//119 164//119 148//119
f 165//120 150//120 149//120
f 164//120 165//120 149//120
f 166//121 151//121 150//121
f 165//121 166//121 150//121
f 167//96 168//96 169//96
f 168//96 170//96 169//96
f 169//96 170//96 171//96
f 170//96 172//96 171//96
f 171//96 172//96 173//96
f 172//96 174//96 173//96
f 173//96 174//96 175//96
f 174//96 176//96 175//96
f 175//96 176//96 177//96
f 176//96 178//96 177//96
f 177//96 178//96 179//96
