# Blender v3.1.2 OBJ File: ''
# www.blender.org
mtllib Болт крепления головки цилиндров.mtl
o Болт_крепления_головки_цилиндров
v 1.530734 3.695518 0.000000
v 0.000000 4.000000 0.000000
v 2.828427 2.828427 0.000000
v -1.530734 3.695518 0.000000
v 3.695518 1.530734 0.000000
v -2.828427 2.828427 0.000000
v 4.000000 -0.000000 -0.000000
v -3.695518 1.530734 0.000000
v 3.695518 -1.530734 -0.000000
v -4.000000 0.000000 0.000000
v 2.828427 -2.828427 -0.000000
v -3.695518 -1.530734 -0.000000
v 1.530734 -3.695518 -0.000000
v -2.828427 -2.828427 -0.000000
v -0.000000 -4.000000 -0.000000
v -1.530734 -3.695518 -0.000000
v -2.104759 5.081337 -89.866714
v 0.000000 5.500000 -89.866714
v -0.000000 5.500000 -105.000000
v 2.104759 5.081337 -89.866714
v 2.104759 5.081337 -105.000000
v 3.889087 3.889087 -89.866714
v 3.889087 3.889087 -105.000000
v 5.081337 2.104759 -89.866714
v 5.081337 2.104759 -105.000000
v 5.500000 0.000000 -89.866714
v 5.500000 0.000000 -105.000000
v 5.081337 -2.104759 -89.866714
v 5.081337 -2.104759 -105.000000
v 3.889087 -3.889087 -89.866714
v 3.889087 -3.889087 -105.000000
v 2.104759 -5.081337 -89.866714
v 2.104759 -5.081337 -105.000000
v 0.000000 -5.500000 -89.866714
v 0.000000 -5.500000 -105.000000
v -2.104759 -5.081337 -89.866714
v -2.104759 -5.081337 -105.000000
v -3.889087 -3.889087 -89.866714
v -5.081337 -2.104759 -89.866714
v -3.889087 -3.889087 -105.000000
v -5.500000 0.000000 -89.866714
v -5.081337 -2.104759 -105.000000
v -5.500000 0.000000 -105.000000
v -2.104759 5.081337 -105.000000
v -3.889087 3.889087 -105.000000
v -5.081337 2.104759 -105.000000
v -5.081337 2.104759 -89.866714
v -3.889087 3.889087 -89.866714
v -4.619398 1.913417 -79.975845
v -3.535534 3.535534 -79.975845
v -1.913417 4.619398 -79.975845
v 0.000000 5.000000 -79.975845
v -5.000000 0.000000 -79.975845
v -4.619398 -1.913417 -79.975845
v -3.535534 -3.535534 -79.975845
v -1.913417 -4.619398 -79.975845
v -0.000000 -5.000000 -79.975845
v 1.913417 -4.619398 -79.975845
v 3.535534 -3.535534 -79.975845
v 4.619398 -1.913417 -79.975845
v 5.000000 0.000000 -79.975845
v 4.619398 1.913417 -79.975845
v 3.535534 3.535534 -79.975845
v 1.913417 4.619398 -79.975845
v 1.913417 4.619398 -1.000000
v 0.000000 5.000000 -1.000000
v 3.535534 3.535534 -1.000000
v 4.619398 1.913417 -1.000000
v 5.000000 -0.000000 -1.000000
v 4.619398 -1.913417 -1.000000
v 3.535534 -3.535534 -1.000000
v 1.913417 -4.619398 -1.000000
v -0.000000 -5.000000 -1.000000
v -1.913417 -4.619398 -1.000000
v -3.535534 -3.535534 -1.000000
v -4.619398 -1.913417 -1.000000
v -5.000000 0.000000 -1.000000
v -4.619398 1.913417 -1.000000
v -3.535534 3.535534 -1.000000
v -1.913417 4.619398 -1.000000
v -0.000000 5.000000 -1.000000
v -0.000000 5.000000 -79.975845
v -7.608452 2.472136 -105.000000
v -8.000000 0.000000 -105.000000
v -6.472136 4.702282 -105.000000
v -7.608452 -2.472136 -105.000000
v -4.702282 6.472136 -105.000000
v -6.472136 -4.702282 -105.000000
v -2.472136 7.608452 -105.000000
v -0.000000 8.000000 -105.000000
v 2.472136 7.608452 -105.000000
v 4.702282 6.472136 -105.000000
v 6.472136 4.702282 -105.000000
v 7.608452 2.472136 -105.000000
v 8.000000 0.000000 -105.000000
v 7.608452 -2.472136 -105.000000
v 6.472136 -4.702282 -105.000000
v 4.702282 -6.472136 -105.000000
v 2.472136 -7.608452 -105.000000
v 0.000000 -8.000000 -105.000000
v -2.472136 -7.608452 -105.000000
v -4.702282 -6.472136 -105.000000
v -7.608452 2.472136 -119.000000
v -8.000000 0.000000 -119.000000
v -6.472136 4.702282 -119.000000
v -4.702282 6.472136 -119.000000
v -2.472136 7.608452 -119.000000
v -0.000000 8.000000 -119.000000
v 2.472136 7.608452 -119.000000
v 4.702282 6.472136 -119.000000
v 6.472136 4.702282 -119.000000
v 7.608452 2.472136 -119.000000
v 8.000000 0.000000 -119.000000
v 7.608452 -2.472136 -119.000000
v 6.472136 -4.702282 -119.000000
v 4.702282 -6.472136 -119.000000
v 2.472136 -7.608452 -119.000000
v 0.000000 -8.000000 -119.000000
v -2.472136 -7.608452 -119.000000
v -4.702282 -6.472136 -119.000000
v -6.472136 -4.702282 -119.000000
v -7.608452 -2.472136 -119.000000
v -8.000000 0.000000 -105.000000
v -8.000000 0.000000 -119.000000
v -6.795190 -3.923205 -119.000000
v 0.000000 -7.846410 -119.000000
v -6.795190 3.923205 -119.000000
v -0.000000 7.846410 -119.000000
v 6.795190 3.923205 -119.000000
v 6.795190 -3.923205 -119.000000
v 6.495191 3.750000 -118.699997
v 6.495191 -3.750000 -118.699997
v -0.000000 7.500000 -118.699997
v -0.000000 7.846410 -119.000000
v -6.495191 3.750000 -118.699997
v -0.000000 7.500000 -118.699997
v -6.495191 -3.750000 -118.699997
v 0.000000 -7.500000 -118.699997
v 0.000000 -7.846410 -119.000000
v 0.000000 -7.846410 -119.000000
v 0.000000 -7.500000 -118.699997
v 6.495191 3.750000 -109.000000
v 6.495191 -3.750000 -109.000000
v -0.000000 7.500000 -109.000000
v -0.000000 7.500000 -118.699997
v -6.495191 3.750000 -109.000000
v -0.000000 7.500000 -118.699997
v -0.000000 7.500000 -109.000000
v -6.495191 -3.750000 -109.000000
v 0.000000 -7.500000 -109.000000
v 0.000000 -7.500000 -118.699997
v 0.000000 -7.500000 -118.699997
v 0.000000 -7.500000 -109.000000
v 0.000000 4.000000 0.000000
v 0.000000 5.000000 -1.000000
v 4.000000 -0.000000 -0.000000
v 5.000000 -0.000000 -1.000000
v -0.000000 -4.000000 -0.000000
v -0.000000 -5.000000 -1.000000
v -4.000000 0.000000 0.000000
v -5.000000 0.000000 -1.000000
v -0.000000 4.000000 0.000000
v -0.000000 5.000000 -1.000000
vn 0.0000 -0.0000 1.0000
vn -0.1951 0.9808 0.0000
vn 0.1951 0.9808 0.0000
vn 0.5556 0.8315 0.0000
vn 0.8315 0.5556 0.0000
vn 0.9808 0.1951 0.0000
vn 0.9808 -0.1951 0.0000
vn 0.8315 -0.5556 0.0000
vn 0.5556 -0.8315 0.0000
vn 0.1951 -0.9808 0.0000
vn -0.1951 -0.9808 0.0000
vn -0.5556 -0.8315 0.0000
vn -0.8315 -0.5556 0.0000
vn -0.9808 -0.1951 0.0000
vn -0.5556 0.8315 0.0000
vn -0.8315 0.5556 0.0000
vn -0.9808 0.1951 0.0000
vn -0.9796 0.1949 0.0495
vn -0.8304 0.5549 0.0495
vn -0.5549 0.8304 0.0495
vn -0.1949 0.9796 0.0495
vn -0.9796 -0.1949 0.0495
vn -0.8304 -0.5549 0.0495
vn -0.5549 -0.8304 0.0495
vn -0.1949 -0.9796 0.0495
vn 0.1949 -0.9796 0.0495
vn 0.5549 -0.8304 0.0495
vn 0.8304 -0.5549 0.0495
vn 0.9796 -0.1949 0.0495
vn 0.9796 0.1949 0.0495
vn 0.8304 0.5549 0.0495
vn 0.5549 0.8304 0.0495
vn 0.1949 0.9796 0.0495
vn 0.0001 0.0000 1.0000
vn -0.9877 0.1564 0.0000
vn -0.8910 0.4540 0.0000
vn -0.7071 0.7071 0.0000
vn -0.4540 0.8910 0.0000
vn -0.1564 0.9877 0.0000
vn 0.1564 0.9877 0.0000
vn 0.4540 0.8910 0.0000
vn 0.7071 0.7071 0.0000
vn 0.8910 0.4540 0.0000
vn 0.9877 0.1564 0.0000
vn 0.9877 -0.1564 0.0000
vn 0.8910 -0.4540 0.0000
vn 0.7071 -0.7071 0.0000
vn 0.4540 -0.8910 0.0000
vn 0.1564 -0.9877 0.0000
vn -0.1564 -0.9877 0.0000
vn -0.4540 -0.8910 0.0000
vn -0.7071 -0.7071 0.0000
vn -0.8910 -0.4540 0.0000
vn -0.9877 -0.1564 0.0000
vn -0.0002 0.0000 -1.0000
vn 0.0000 0.0000 -1.0000
vn 0.0002 0.0000 -1.0000
vn -0.7071 0.0000 -0.7071
vn -0.3536 -0.6124 -0.7071
vn -0.3535 -0.6124 -0.7071
vn 0.3535 -0.6124 -0.7071
vn 0.3536 -0.6124 -0.7071
vn 0.7071 0.0000 -0.7071
vn 0.3536 0.6124 -0.7071
vn 0.3535 0.6124 -0.7071
vn -0.3535 0.6124 -0.7071
vn -0.3536 0.6124 -0.7071
vn -1.0000 0.0000 0.0000
vn -0.5000 -0.8660 0.0000
vn 0.5000 -0.8660 0.0000
vn 1.0000 0.0000 0.0000
vn 0.5000 0.8660 0.0000
vn -0.5000 0.8660 0.0000
vn 0.1393 0.7002 0.7002
vn 0.3966 0.5936 0.7002
vn 0.5936 0.3966 0.7002
vn 0.7002 0.1393 0.7002
vn 0.7002 -0.1393 0.7002
vn 0.5936 -0.3966 0.7002
vn 0.3966 -0.5936 0.7002
vn 0.1393 -0.7002 0.7002
vn -0.1393 -0.7002 0.7002
vn -0.3966 -0.5936 0.7002
vn -0.5936 -0.3966 0.7002
vn -0.7002 -0.1393 0.7002
vn -0.7002 0.1393 0.7002
vn -0.5936 0.3966 0.7002
vn -0.3966 0.5936 0.7002
vn -0.1393 0.7002 0.7002
usemtl None
s off
f 1//1 2//1 3//1
f 2//1 4//1 3//1
f 3//1 4//1 5//1
f 4//1 6//1 5//1
f 5//1 6//1 7//1
f 6//1 8//1 7//1
f 7//1 8//1 9//1
f 8//1 10//1 9//1
f 9//1 10//1 11//1
f 10//1 12//1 11//1
f 11//1 12//1 13//1
f 12//1 14//1 13//1
f 13//1 14//1 15//1
f 14//1 16//1 15//1
f 17//2 18//2 19//2
f 18//3 20//3 21//3
f 20//4 22//4 23//4
f 22//5 24//5 25//5
f 24//6 26//6 27//6
f 26//7 28//7 29//7
f 28//8 30//8 31//8
f 30//9 32//9 33//9
f 32//10 34//10 35//10
f 34//11 36//11 37//11
f 36//12 38//12 37//12
f 38//13 39//13 40//13
f 39//14 41//14 42//14
f 41//14 43//14 42//14
f 42//13 40//13 39//13
f 40//12 37//12 38//12
f 37//11 35//11 34//11
f 35//10 33//10 32//10
f 33//9 31//9 30//9
f 31//8 29//8 28//8
f 29//7 27//7 26//7
f 27//6 25//6 24//6
f 25//5 23//5 22//5
f 23//4 21//4 20//4
f 21//3 19//3 18//3
f 19//2 44//2 17//2
f 44//15 45//15 17//15
f 45//16 46//16 47//16
f 46//17 43//17 41//17
f 41//17 47//17 46//17
f 47//16 48//16 45//16
f 48//15 17//15 45//15
f 49//18 47//18 41//18
f 50//19 48//19 47//19
f 51//20 17//20 48//20
f 52//21 18//21 17//21
f 17//21 51//21 52//21
f 48//20 50//20 51//20
f 47//19 49//19 50//19
f 41//18 53//18 49//18
f 41//22 54//22 53//22
f 38//23 55//23 54//23
f 36//24 56//24 55//24
f 34//25 57//25 56//25
f 32//26 58//26 57//26
f 30//27 59//27 58//27
f 28//28 60//28 59//28
f 26//29 61//29 60//29
f 24//30 62//30 61//30
f 22//31 63//31 62//31
f 20//32 64//32 63//32
f 18//33 52//33 64//33
f 64//33 20//33 18//33
f 63//32 22//32 20//32
f 62//31 24//31 22//31
f 61//30 26//30 24//30
f 60//29 28//29 26//29
f 59//28 30//28 28//28
f 58//27 32//27 30//27
f 57//26 34//26 32//26
f 56//25 36//25 34//25
f 55//24 38//24 36//24
f 54//23 39//23 38//23
f 54//22 41//22 39//22
f 65//3 64//3 52//3
f 66//3 65//3 52//3
f 67//4 63//4 64//4
f 65//4 67//4 64//4
f 68//5 62//5 63//5
f 67//5 68//5 63//5
f 69//6 61//6 62//6
f 68//6 69//6 62//6
f 70//7 60//7 61//7
f 69//7 70//7 61//7
f 71//8 59//8 60//8
f 70//8 71//8 60//8
f 72//9 58//9 59//9
f 71//9 72//9 59//9
f 73//10 57//10 58//10
f 72//10 73//10 58//10
f 74//11 56//11 57//11
f 73//11 74//11 57//11
f 75//12 55//12 56//12
f 74//12 75//12 56//12
f 76//13 54//13 55//13
f 75//13 76//13 55//13
f 77//14 53//14 54//14
f 76//14 77//14 54//14
f 78//17 49//17 53//17
f 77//17 78//17 53//17
f 79//16 50//16 49//16
f 78//16 79//16 49//16
f 80//15 51//15 50//15
f 79//15 80//15 50//15
f 81//2 82//2 51//2
f 80//2 81//2 51//2
f 83//1 84//1 85//1
f 84//1 86//1 85//1
f 85//1 86//1 87//1
f 86//1 88//1 87//1
f 87//1 46//1 89//1
f 46//1 45//1 89//1
f 89//1 45//1 90//1
f 45//1 44//1 90//1
f 90//1 44//1 91//1
f 44//1 19//1 91//1
f 91//1 19//1 92//1
f 19//1 21//1 92//1
f 92//1 21//1 93//1
f 21//1 23//1 93//1
f 93//1 23//1 94//1
f 23//1 25//1 94//1
f 94//1 25//1 95//1
f 25//1 27//1 95//1
f 95//1 27//1 96//1
f 27//1 29//1 96//1
f 96//1 29//1 97//1
f 29//1 31//1 97//1
f 97//1 31//1 98//1
f 31//1 33//1 98//1
f 98//1 33//1 99//1
f 33//1 35//1 99//1
f 99//1 35//1 100//1
f 35//1 37//1 100//1
f 100//1 37//1 101//1
f 37//1 40//1 101//1
f 101//1 40//1 102//1
f 40//1 42//1 102//1
f 102//1 42//1 88//1
f 42//1 43//1 88//1
f 88//1 43//1 87//1
f 43//34 46//34 87//34
f 84//35 83//35 103//35
f 84//35 103//35 104//35
f 83//36 85//36 105//36
f 83//36 105//36 103//36
f 85//37 87//37 106//37
f 85//37 106//37 105//37
f 87//38 89//38 107//38
f 87//38 107//38 106//38
f 89//39 90//39 108//39
f 89//39 108//39 107//39
f 90//40 91//40 109//40
f 90//40 109//40 108//40
f 91//41 92//41 110//41
f 91//41 110//41 109//41
f 92//42 93//42 111//42
f 92//42 111//42 110//42
f 93//43 94//43 112//43
f 93//43 112//43 111//43
f 94//44 95//44 113//44
f 94//44 113//44 112//44
f 95//45 96//45 114//45
f 95//45 114//45 113//45
f 96//46 97//46 115//46
f 96//46 115//46 114//46
f 97//47 98//47 116//47
f 97//47 116//47 115//47
f 98//48 99//48 117//48
f 98//48 117//48 116//48
f 99//49 100//49 118//49
f 99//49 118//49 117//49
f 100//50 101//50 119//50
f 100//50 119//50 118//50
f 101//51 102//51 120//51
f 101//51 120//51 119//51
f 102//52 88//52 121//52
f 102//52 121//52 120//52
f 88//53 86//53 122//53
f 88//53 122//53 121//53
f 86//54 123//54 124//54
f 86//54 124//54 122//54
f 122//55 125//55 121//55
f 125//56 126//56 121//56
f 121//56 126//56 120//56
f 125//56 122//56 127//56
f 122//56 104//56 127//56
f 104//56 103//56 127//56
f 103//55 105//55 127//55
f 105//56 106//56 127//56
f 127//56 106//56 128//56
f 106//56 107//56 128//56
f 107//56 108//56 128//56
f 108//56 109//56 128//56
f 128//56 109//56 129//56
f 109//56 110//56 129//56
f 110//56 111//56 129//56
f 111//57 112//57 129//57
f 129//56 112//56 130//56
f 112//56 113//56 130//56
f 113//56 114//56 130//56
f 114//57 115//57 130//57
f 130//56 115//56 126//56
f 115//56 116//56 126//56
f 116//56 117//56 126//56
f 117//56 118//56 126//56
f 126//56 118//56 120//56
f 118//56 119//56 120//56
f 131//58 129//58 130//58
f 131//58 130//58 132//58
f 133//59 134//59 129//59
f 133//60 129//60 131//60
f 135//61 127//61 134//61
f 135//62 134//62 136//62
f 137//63 125//63 127//63
f 137//63 127//63 135//63
f 138//64 139//64 125//64
f 138//65 125//65 137//65
f 132//66 130//66 140//66
f 132//67 140//67 141//67
f 142//68 131//68 132//68
f 143//68 142//68 132//68
f 144//69 145//69 131//69
f 142//69 144//69 131//69
f 146//70 135//70 147//70
f 148//70 146//70 147//70
f 149//71 137//71 135//71
f 146//71 149//71 135//71
f 150//72 151//72 137//72
f 149//72 150//72 137//72
f 143//73 132//73 152//73
f 153//73 143//73 152//73
f 144//56 142//56 146//56
f 142//56 143//56 146//56
f 146//56 143//56 149//56
f 143//56 150//56 149//56
f 154//74 1//74 65//74
f 154//74 65//74 155//74
f 1//75 3//75 67//75
f 1//75 67//75 65//75
f 3//76 5//76 68//76
f 3//76 68//76 67//76
f 5//77 156//77 157//77
f 5//77 157//77 68//77
f 156//78 9//78 70//78
f 156//78 70//78 157//78
f 9//79 11//79 71//79
f 9//79 71//79 70//79
f 11//80 13//80 72//80
f 11//80 72//80 71//80
f 13//81 158//81 159//81
f 13//81 159//81 72//81
f 158//82 16//82 74//82
f 158//82 74//82 159//82
f 16//83 14//83 75//83
f 16//83 75//83 74//83
f 14//84 12//84 76//84
f 14//84 76//84 75//84
f 12//85 160//85 161//85
f 12//85 161//85 76//85
f 160//86 8//86 78//86
f 160//86 78//86 161//86
f 8//87 6//87 79//87
f 8//87 79//87 78//87
f 6//88 4//88 80//88
f 6//88 80//88 79//88
f 4//89 162//89 163//89
f 4//89 163//89 80//89
