# Blender v3.1.2 OBJ File: ''
# www.blender.org
mtllib Болт крепления крышки коренного подшипника.mtl
o Болт_крепления_крышки_коренного_п
v -5.500000 -0.000000 -1.000000
v -5.081337 2.104759 -1.000000
v -5.081337 2.104759 -75.000000
v -5.500000 0.000000 -75.000000
v -3.889087 3.889087 -1.000000
v -3.889087 3.889087 -75.000000
v -2.104759 5.081337 -1.000000
v -2.104759 5.081337 -75.000000
v -0.000000 5.500000 -1.000000
v -0.000000 5.500000 -75.000000
v 2.104759 5.081337 -1.000000
v 2.104759 5.081337 -75.000000
v 3.889087 3.889087 -1.000000
v 3.889087 3.889087 -75.000000
v 5.081337 2.104759 -1.000000
v 5.081337 2.104759 -75.000000
v 5.500000 0.000000 -1.000000
v 5.500000 0.000000 -75.000000
v 5.081337 -2.104759 -1.000000
v 5.081337 -2.104759 -75.000000
v 3.889087 -3.889087 -1.000000
v 3.889087 -3.889087 -75.000000
v 2.104759 -5.081337 -1.000000
v 2.104759 -5.081337 -75.000000
v 0.000000 -5.500000 -1.000000
v 0.000000 -5.500000 -75.000000
v -2.104759 -5.081337 -1.000000
v -2.104759 -5.081337 -75.000000
v -3.889087 -3.889087 -1.000000
v -3.889087 -3.889087 -75.000000
v -5.081337 -2.104759 -1.000000
v -5.081337 -2.104759 -75.000000
v -5.500000 -0.000000 -1.000000
v -5.500000 0.000000 -75.000000
v 6.928203 -4.000000 -75.000000
v 0.000000 -8.000000 -75.000000
v -6.928203 -4.000000 -75.000000
v -6.928203 4.000000 -75.000000
v -0.000000 8.000000 -75.000000
v 6.928203 4.000000 -75.000000
v -4.157458 1.722075 0.000000
v -4.500000 -0.000000 -0.000000
v -3.181981 3.181981 0.000000
v -4.157458 -1.722075 -0.000000
v -1.722075 4.157458 0.000000
v -3.181981 -3.181981 -0.000000
v -0.000000 4.500000 0.000000
v -1.722075 -4.157458 -0.000000
v 1.722075 4.157458 0.000000
v 0.000000 -4.500000 -0.000000
v 3.181981 3.181981 0.000000
v 1.722075 -4.157458 -0.000000
v 4.157458 1.722075 0.000000
v 3.181981 -3.181981 -0.000000
v 4.500000 0.000000 0.000000
v 4.157458 -1.722075 -0.000000
v -0.000000 8.000000 -79.000000
v 6.928203 4.000000 -79.000000
v -6.928203 4.000000 -79.000000
v -0.000000 8.000000 -75.000000
v -0.000000 8.000000 -79.000000
v -6.928203 -4.000000 -79.000000
v 0.000000 -8.000000 -79.000000
v 6.928203 -4.000000 -79.000000
v 0.000000 -8.000000 -75.000000
v 0.000000 -8.000000 -79.000000
v -4.157458 1.722075 0.000000
v -4.500000 -0.000000 0.000000
v -3.181981 3.181981 0.000000
v -1.722075 4.157458 0.000000
v -0.000000 4.500000 0.000000
v 1.722075 4.157458 0.000000
v 3.181981 3.181981 0.000000
v 4.157458 1.722075 0.000000
v 4.500000 0.000000 0.000000
v 4.157458 -1.722075 -0.000000
v 3.181981 -3.181981 -0.000000
v 1.722075 -4.157458 -0.000000
v 0.000000 -4.500000 -0.000000
v -1.722075 -4.157458 -0.000000
v -3.181981 -3.181981 -0.000000
v -4.157458 -1.722075 -0.000000
v -4.500000 -0.000000 0.000000
vn -0.9808 0.1951 0.0000
vn -0.8315 0.5556 0.0000
vn -0.5556 0.8315 0.0000
vn -0.1951 0.9808 0.0000
vn 0.1951 0.9808 0.0000
vn 0.5556 0.8315 0.0000
vn 0.8315 0.5556 0.0000
vn 0.9808 0.1951 0.0000
vn 0.9808 -0.1951 0.0000
vn 0.8315 -0.5556 0.0000
vn 0.5556 -0.8315 0.0000
vn 0.1951 -0.9808 0.0000
vn -0.1951 -0.9808 0.0000
vn -0.5556 -0.8315 0.0000
vn -0.8315 -0.5556 0.0000
vn -0.9808 -0.1951 0.0000
vn 0.0000 0.0000 1.0000
vn 0.5000 0.8660 0.0000
vn -0.5000 0.8660 0.0000
vn -1.0000 0.0000 0.0000
vn -0.5000 -0.8660 0.0000
vn 0.5000 -0.8660 0.0000
vn 1.0000 0.0000 0.0000
vn 0.0000 0.0000 -1.0000
vn -0.7002 0.1393 0.7002
vn -0.5936 0.3966 0.7002
vn -0.3966 0.5936 0.7002
vn -0.1393 0.7002 0.7002
vn 0.1393 0.7002 0.7002
vn 0.3966 0.5936 0.7002
vn 0.5936 0.3966 0.7002
vn 0.7002 0.1393 0.7002
vn 0.7002 -0.1393 0.7002
vn 0.5936 -0.3966 0.7002
vn 0.3966 -0.5936 0.7002
vn 0.1393 -0.7002 0.7002
vn -0.1393 -0.7002 0.7002
vn -0.3966 -0.5936 0.7002
vn -0.5936 -0.3966 0.7002
vn -0.7002 -0.1393 0.7002
usemtl None
s off
f 1//1 2//1 3//1
f 1//1 3//1 4//1
f 2//2 5//2 6//2
f 2//2 6//2 3//2
f 5//3 7//3 8//3
f 5//3 8//3 6//3
f 7//4 9//4 10//4
f 7//4 10//4 8//4
f 9//5 11//5 12//5
f 9//5 12//5 10//5
f 11//6 13//6 14//6
f 11//6 14//6 12//6
f 13//7 15//7 16//7
f 13//7 16//7 14//7
f 15//8 17//8 18//8
f 15//8 18//8 16//8
f 17//9 19//9 20//9
f 17//9 20//9 18//9
f 19//10 21//10 22//10
f 19//10 22//10 20//10
f 21//11 23//11 24//11
f 21//11 24//11 22//11
f 23//12 25//12 26//12
f 23//12 26//12 24//12
f 25//13 27//13 28//13
f 25//13 28//13 26//13
f 27//14 29//14 30//14
f 27//14 30//14 28//14
f 29//15 31//15 32//15
f 29//15 32//15 30//15
f 31//16 33//16 34//16
f 31//16 34//16 32//16
f 35//17 22//17 36//17
f 22//17 24//17 36//17
f 36//17 28//17 37//17
f 28//17 30//17 37//17
f 37//17 32//17 38//17
f 32//17 4//17 38//17
f 38//17 6//17 39//17
f 6//17 8//17 39//17
f 39//17 12//17 40//17
f 12//17 14//17 40//17
f 40//17 16//17 35//17
f 16//17 18//17 35//17
f 35//17 18//17 20//17
f 16//17 40//17 14//17
f 12//17 39//17 10//17
f 10//17 39//17 8//17
f 6//17 38//17 3//17
f 38//17 4//17 3//17
f 32//17 37//17 30//17
f 28//17 36//17 26//17
f 26//17 36//17 24//17
f 22//17 35//17 20//17
f 41//17 42//17 43//17
f 42//17 44//17 43//17
f 43//17 44//17 45//17
f 44//17 46//17 45//17
f 45//17 46//17 47//17
f 46//17 48//17 47//17
f 47//17 48//17 49//17
f 48//17 50//17 49//17
f 49//17 50//17 51//17
f 50//17 52//17 51//17
f 51//17 52//17 53//17
f 52//17 54//17 53//17
f 53//17 54//17 55//17
f 54//17 56//17 55//17
f 57//18 39//18 40//18
f 57//18 40//18 58//18
f 59//19 38//19 60//19
f 59//19 60//19 61//19
f 62//20 37//20 38//20
f 62//20 38//20 59//20
f 63//21 36//21 37//21
f 63//21 37//21 62//21
f 64//22 35//22 65//22
f 64//22 65//22 66//22
f 58//23 40//23 35//23
f 58//23 35//23 64//23
f 57//24 58//24 59//24
f 58//24 64//24 59//24
f 59//24 64//24 62//24
f 64//24 63//24 62//24
f 67//25 2//25 1//25
f 68//25 67//25 1//25
f 69//26 5//26 2//26
f 67//26 69//26 2//26
f 70//27 7//27 5//27
f 69//27 70//27 5//27
f 71//28 9//28 7//28
f 70//28 71//28 7//28
f 72//29 11//29 9//29
f 71//29 72//29 9//29
f 73//30 13//30 11//30
f 72//30 73//30 11//30
f 74//31 15//31 13//31
f 73//31 74//31 13//31
f 75//32 17//32 15//32
f 74//32 75//32 15//32
f 76//33 19//33 17//33
f 75//33 76//33 17//33
f 77//34 21//34 19//34
f 76//34 77//34 19//34
f 78//35 23//35 21//35
f 77//35 78//35 21//35
f 79//36 25//36 23//36
f 78//36 79//36 23//36
f 80//37 27//37 25//37
f 79//37 80//37 25//37
f 81//38 29//38 27//38
f 80//38 81//38 27//38
f 82//39 31//39 29//39
f 81//39 82//39 29//39
f 83//40 33//40 31//40
f 82//40 83//40 31//40
