# Blender v3.1.2 OBJ File: ''
# www.blender.org
mtllib Болт держателя сальника.mtl
o Болт_держателя_сальника
v 3.000000 2.173724 1.255000
v 3.000000 2.510000 -0.000000
v 4.449149 0.000000 0.000000
v 3.000000 1.255000 2.173724
v 3.000000 0.000000 2.510000
v 3.000000 -1.255000 2.173724
v 3.000000 -2.173724 1.255000
v 3.000000 -2.510000 0.000000
v 3.000000 -2.173724 -1.255000
v 3.000000 -1.255000 -2.173724
v 3.000000 -0.000000 -2.510000
v 3.000000 1.255000 -2.173724
v 3.000000 2.173724 -1.255000
v 0.300000 4.545132 -1.882655
v 0.300000 3.478693 -3.478693
v 0.080385 3.323402 -3.323402
v 0.080385 4.342234 -1.798612
v 0.300000 1.882655 -4.545132
v 0.080385 1.798612 -4.342234
v 0.300000 0.000000 -4.919615
v 0.080385 0.000000 -4.700000
v 0.300000 -1.882655 -4.545132
v 0.080385 -1.798612 -4.342234
v 0.300000 -3.478693 -3.478693
v 0.080385 -3.323402 -3.323402
v 0.300000 -4.545132 -1.882655
v 0.080385 -4.342234 -1.798612
v 0.300000 -4.919615 -0.000000
v 0.080385 -4.700000 -0.000000
v 0.300000 -4.545132 1.882655
v 0.080385 -4.342234 1.798612
v 0.300000 -3.478693 3.478693
v 0.080385 -3.323402 3.323402
v 0.300000 -1.882655 4.545132
v 0.080385 -1.798612 4.342234
v 0.300000 -0.000000 4.919615
v 0.080385 -0.000000 4.700000
v 0.300000 1.882655 4.545132
v 0.080385 1.798612 4.342234
v 0.300000 3.478693 3.478693
v 0.080385 3.323402 3.323402
v 0.300000 4.545132 1.882655
v 0.080385 4.342234 1.798612
v 0.600000 4.619398 1.913417
v 0.600000 5.000000 0.000000
v 0.300000 4.919615 0.000000
v 0.080385 4.700000 0.000000
v 0.000000 4.400000 0.000000
v 0.000000 4.065070 1.683807
v 0.000000 3.111270 3.111270
v 0.000000 1.683807 4.065070
v 0.000000 -0.000000 4.400000
v 0.000000 -1.683807 4.065070
v 0.000000 -3.111270 3.111270
v 0.000000 -4.065070 1.683807
v 0.000000 -4.400000 -0.000000
v 0.000000 -4.065070 -1.683807
v 0.000000 -3.111270 -3.111270
v 0.000000 -1.683807 -4.065070
v 0.000000 0.000000 -4.400000
v 0.000000 1.683807 -4.065070
v 0.000000 3.111270 -3.111270
v 0.000000 4.065070 -1.683807
v 0.600000 4.619398 -1.913417
v 0.600000 3.535534 -3.535534
v 0.600000 1.913417 -4.619398
v 0.600000 0.000000 -5.000000
v 0.600000 -1.913417 -4.619398
v 0.600000 -3.535534 -3.535534
v 0.600000 -4.619398 -1.913417
v 0.600000 -5.000000 -0.000000
v 0.600000 -4.619398 1.913417
v 0.600000 -3.535534 3.535534
v 0.600000 -1.913417 4.619398
v 0.600000 -0.000000 5.000000
v 0.600000 1.913417 4.619398
v 0.600000 3.535534 3.535534
v 6.033494 -2.767050 -1.452260
v 6.125000 -1.723221 -2.496516
v 6.125000 -2.686025 -1.409735
v 6.033494 -1.775202 -2.571825
v 6.125000 -0.365647 -3.011376
v 6.033494 -0.376677 -3.102215
v 6.033494 1.108140 -2.921926
v 6.125000 1.075692 -2.836366
v 6.033494 2.339096 -2.072258
v 6.125000 2.270603 -2.011578
v 6.033494 3.034193 -0.747861
v 6.125000 2.945346 -0.725963
v 6.033494 3.034193 0.747861
v 6.125000 2.945346 0.725963
v 6.125000 2.270603 2.011578
v 6.033494 2.339096 2.072258
v 6.125000 1.075692 2.836366
v 6.033494 1.108140 2.921926
v 6.125000 -0.365647 3.011376
v 6.033494 -0.376677 3.102215
v 6.033494 -1.775202 2.571825
v 6.125000 -1.723221 2.496516
v 6.033494 -2.767050 1.452260
v 6.125000 -2.686025 1.409735
v 6.250000 2.702907 1.301651
v 6.250000 3.000000 -0.000000
v 6.250000 1.870469 2.345495
v 6.250000 0.667563 2.924784
v 6.250000 -0.667563 2.924784
v 6.250000 -1.870469 2.345495
v 6.250000 -2.702907 1.301651
v 6.125000 -3.033494 0.000000
v 6.250000 -3.000000 0.000000
v 6.033494 -3.125000 0.000000
v 6.000000 -2.877732 1.510350
v 6.000000 -3.250000 0.000000
v 6.000000 -1.846210 2.674698
v 6.000000 -0.391744 3.226304
v 6.000000 1.152466 3.038803
v 6.000000 2.432660 2.155149
v 6.000000 3.155561 0.777776
v 6.000000 3.155561 -0.777776
v 6.000000 2.432660 -2.155149
v 6.000000 1.152466 -3.038803
v 6.000000 -0.391744 -3.226304
v 6.000000 -1.846210 -2.674698
v 6.000000 -2.877732 -1.510350
v 6.250000 -2.702907 -1.301651
v 6.250000 -1.870469 -2.345495
v 6.250000 -0.667563 -2.924784
v 6.250000 0.667563 -2.924784
v 6.250000 1.870469 -2.345495
v 6.250000 2.702907 -1.301651
v 36.000000 2.445500 0.000000
v 36.000000 2.117865 -1.222750
v 35.445499 2.598076 -1.500000
v 35.445499 3.000000 0.000000
v 36.000000 1.222750 -2.117865
v 35.445499 1.500000 -2.598076
v 36.000000 0.000000 -2.445500
v 35.445499 0.000000 -3.000000
v 36.000000 -1.222750 -2.117865
v 35.445499 -1.500000 -2.598076
v 36.000000 -2.117865 -1.222750
v 35.445499 -2.598076 -1.500000
v 36.000000 -2.445500 -0.000000
v 35.445499 -3.000000 -0.000000
v 36.000000 -2.117865 1.222750
v 35.445499 -2.598076 1.500000
v 36.000000 -1.222750 2.117865
v 35.445499 -1.500000 2.598076
v 36.000000 -0.000000 2.445500
v 35.445499 -0.000000 3.000000
v 36.000000 1.222750 2.117865
v 35.445499 1.500000 2.598076
v 36.000000 2.117865 1.222750
v 35.445499 2.598076 1.500000
v 36.000000 2.445500 0.000000
v 35.445499 3.000000 0.000000
v 35.445499 3.000000 0.000000
v 6.000000 5.000000 0.000000
v 6.000000 4.619398 -1.913417
v 0.600000 5.000000 0.000000
v 6.000000 3.535534 -3.535534
v 6.000000 1.913417 -4.619398
v 6.000000 0.000000 -5.000000
v 6.000000 -1.913417 -4.619398
v 6.000000 -3.535534 -3.535534
v 6.000000 -4.619398 -1.913417
v 6.000000 -5.000000 -0.000000
v 6.000000 -4.619398 1.913417
v 6.000000 -3.535534 3.535534
v 6.000000 -1.913417 4.619398
v 6.000000 -0.000000 5.000000
v 6.000000 1.913417 4.619398
v 6.000000 3.535534 3.535534
v 6.000000 4.619398 1.913417
v 6.000000 5.000000 0.000000
v 0.600000 5.000000 0.000000
v 0.000000 2.510000 1.449149
v 0.000000 0.000000 2.898298
v 0.000000 -2.510000 1.449149
v 0.000000 -2.510000 -1.449149
v 0.000000 2.510000 -1.449149
v 0.000000 -0.000000 -2.898298
v 6.000000 5.000000 0.000000
v 6.000000 -5.000000 -0.000000
v 36.000000 2.445500 0.000000
v 36.000000 -2.445500 -0.000000
v 3.000000 2.510000 -1.449149
v 3.000000 -0.000000 -2.898298
v 3.000000 2.510000 1.449149
v 3.000000 0.000000 2.898298
v 3.000000 -2.510000 1.449149
v 3.000000 -2.510000 -1.449149
vn -0.8584 -0.4956 -0.1328
vn -0.8584 -0.3628 -0.3628
vn -0.8584 -0.1328 -0.4956
vn -0.8584 0.1328 -0.4956
vn -0.8584 0.3628 -0.3628
vn -0.8584 0.4956 -0.1328
vn -0.8584 0.4956 0.1328
vn -0.8584 0.3628 0.3628
vn -0.8584 0.1328 0.4956
vn -0.8584 -0.1328 0.4956
vn -0.8584 -0.3628 0.3628
vn -0.8584 -0.4956 0.1328
vn -0.7002 0.5936 -0.3966
vn -0.7002 0.3966 -0.5936
vn -0.7002 0.1393 -0.7002
vn -0.7002 -0.1393 -0.7002
vn -0.7002 -0.3966 -0.5936
vn -0.7002 -0.5936 -0.3966
vn -0.7002 -0.7002 -0.1393
vn -0.7002 -0.7002 0.1393
vn -0.7002 -0.5936 0.3966
vn -0.7002 -0.3966 0.5936
vn -0.7002 -0.1393 0.7002
vn -0.7002 0.1393 0.7002
vn -0.7002 0.3966 0.5936
vn -0.7002 0.5936 0.3966
vn -0.2542 0.9486 0.1887
vn -0.7002 0.7002 0.1393
vn -0.9646 0.2585 0.0514
vn -0.9646 0.2191 0.1464
vn -0.9646 0.1464 0.2191
vn -0.9646 0.0514 0.2585
vn -0.9646 -0.0514 0.2585
vn -0.9646 -0.1464 0.2191
vn -0.9646 -0.2191 0.1464
vn -0.9646 -0.2585 0.0514
vn -0.9646 -0.2585 -0.0514
vn -0.9646 -0.2191 -0.1464
vn -0.9646 -0.1464 -0.2191
vn -0.9646 -0.0514 -0.2585
vn -0.9646 0.0514 -0.2585
vn -0.9646 0.1464 -0.2191
vn -0.9646 0.2191 -0.1464
vn -0.9646 0.2585 -0.0514
vn -0.7002 0.7002 -0.1393
vn -0.2542 0.9486 -0.1887
vn -0.2542 0.8042 -0.5373
vn -0.2542 0.5373 -0.8042
vn -0.2542 0.1887 -0.9486
vn -0.2542 -0.1887 -0.9486
vn -0.2542 -0.5373 -0.8042
vn -0.2542 -0.8042 -0.5373
vn -0.2542 -0.9486 -0.1887
vn -0.2542 -0.9486 0.1887
vn -0.2542 -0.8042 0.5373
vn -0.2542 -0.5373 0.8042
vn -0.2542 -0.1887 0.9486
vn -0.2542 0.1887 0.9486
vn -0.2542 0.5373 0.8042
vn -0.2542 0.8042 0.5373
vn 0.6966 -0.5370 -0.4758
vn 0.6966 -0.2544 -0.6708
vn 0.6966 0.0865 -0.7122
vn 0.6966 0.4076 -0.5905
vn 0.6966 0.6353 -0.3334
vn 0.6966 0.7175 0.0000
vn 0.6966 0.6353 0.3334
vn 0.6966 0.4076 0.5905
vn 0.6966 0.0865 0.7122
vn 0.6966 -0.2544 0.6708
vn 0.6966 -0.5370 0.4758
vn 0.6547 0.7370 0.1682
vn 0.6419 0.5995 0.4781
vn 0.6147 0.3422 0.7106
vn 0.5695 0.0000 0.8220
vn 0.5000 -0.3757 0.7802
vn 0.3978 -0.7173 0.5720
vn 0.2528 -0.9433 0.2153
vn 0.6966 -0.6966 0.1717
vn 0.9640 -0.2583 0.0637
vn 0.9640 -0.1991 0.1764
vn 0.9640 -0.0943 0.2487
vn 0.9640 0.0321 0.2641
vn 0.9640 0.1511 0.2189
vn 0.9640 0.2355 0.1236
vn 0.9640 0.2660 0.0000
vn 0.9640 0.2356 -0.1236
vn 0.9640 0.1511 -0.2189
vn 0.9640 0.0321 -0.2641
vn 0.9640 -0.0943 -0.2487
vn 0.9640 -0.1991 -0.1764
vn 0.9640 -0.2583 -0.0637
vn 0.6966 -0.6966 -0.1717
vn 0.2528 -0.9433 -0.2153
vn 0.3978 -0.7173 -0.5720
vn 0.5000 -0.3757 -0.7802
vn 0.5695 0.0000 -0.8220
vn 0.6147 0.3422 -0.7106
vn 0.6419 0.5995 -0.4781
vn 0.6547 0.7370 -0.1682
vn -0.0803 -0.7461 -0.6610
vn -0.2044 -0.3471 -0.9153
vn -0.2949 0.1152 -0.9486
vn -0.3553 0.5310 -0.7693
vn -0.3895 0.8155 -0.4280
vn -0.4006 0.9162 0.0000
vn -0.3895 0.8155 0.4280
vn 0.9640 0.2356 0.1236
vn -0.3553 0.5310 0.7693
vn -0.2949 0.1152 0.9486
vn -0.2044 -0.3471 0.9153
vn -0.0803 -0.7461 0.6610
vn 0.0756 -0.9682 0.2386
vn 0.0756 -0.9682 -0.2386
vn 0.6947 0.6947 -0.1862
vn 0.6948 0.6947 -0.1862
vn 0.6947 0.5086 -0.5086
vn 0.6947 0.1862 -0.6947
vn 0.6947 -0.1862 -0.6947
vn 0.6947 -0.5086 -0.5086
vn 0.6947 -0.6947 -0.1862
vn 0.6947 -0.6947 0.1862
vn 0.6948 -0.6947 0.1862
vn 0.6947 -0.5086 0.5086
vn 0.6947 -0.1862 0.6947
vn 0.6947 0.1862 0.6947
vn 0.6947 0.5086 0.5086
vn 0.6947 0.6947 0.1862
vn 0.0017 0.9659 0.2588
vn 0.0000 0.9749 0.2225
vn -0.0014 0.7818 0.6235
vn -0.0023 0.4339 0.9010
vn -0.0026 0.0000 1.0000
vn -0.0023 -0.4339 0.9010
vn -0.0014 -0.7818 0.6235
vn 0.0000 -0.9749 0.2225
vn 0.0000 -0.9749 -0.2225
vn -0.0014 -0.7818 -0.6235
vn -0.0023 -0.4339 -0.9010
vn -0.0026 0.0000 -1.0000
vn -0.0023 0.4339 -0.9010
vn -0.0014 0.7818 -0.6235
vn 0.0000 0.9749 -0.2225
vn 0.0017 0.9659 -0.2588
vn 0.0029 0.7071 -0.7071
vn 0.0034 0.2588 -0.9659
vn 0.0034 -0.2588 -0.9659
vn 0.0029 -0.7071 -0.7071
vn 0.0017 -0.9659 -0.2588
vn 0.0017 -0.9659 0.2588
vn 0.0029 -0.7071 0.7071
vn 0.0034 -0.2588 0.9659
vn 0.0034 0.2588 0.9659
vn 0.0029 0.7071 0.7071
vn 0.0000 0.9808 -0.1951
vn 0.0000 0.8315 -0.5556
vn 0.0000 0.5556 -0.8315
vn 0.0000 0.1951 -0.9808
vn 0.0000 -0.1951 -0.9808
vn 0.0000 -0.5556 -0.8315
vn 0.0000 -0.8315 -0.5556
vn 0.0000 -0.9808 -0.1951
vn 0.0000 -0.9808 0.1951
vn 0.0000 -0.8315 0.5556
vn 0.0000 -0.5556 0.8315
vn 0.0000 -0.1951 0.9808
vn 0.0000 0.1951 0.9808
vn 0.0000 0.5556 0.8315
vn 0.0000 0.8315 0.5556
vn 0.0000 0.9808 0.1951
vn -1.0000 -0.0000 -0.0000
vn 1.0000 0.0000 0.0000
vn 0.0000 -0.5000 0.8660
vn 0.0000 -1.0000 0.0000
vn 0.0000 -0.5000 -0.8660
vn 0.0000 0.5000 -0.8660
vn 0.0000 1.0000 0.0000
vn 0.0000 0.5000 0.8660
usemtl None
s off
f 1//1 2//1 3//1
f 3//2 4//2 1//2
f 3//3 5//3 4//3
f 3//4 6//4 5//4
f 3//5 7//5 6//5
f 3//6 8//6 7//6
f 3//7 9//7 8//7
f 3//8 10//8 9//8
f 3//9 11//9 10//9
f 3//10 12//10 11//10
f 3//11 13//11 12//11
f 3//12 2//12 13//12
f 14//13 15//13 16//13
f 14//13 16//13 17//13
f 15//14 18//14 16//14
f 16//14 18//14 19//14
f 18//15 20//15 21//15
f 18//15 21//15 19//15
f 20//16 22//16 21//16
f 21//16 22//16 23//16
f 22//17 24//17 25//17
f 22//17 25//17 23//17
f 24//18 26//18 25//18
f 25//18 26//18 27//18
f 26//19 28//19 29//19
f 26//19 29//19 27//19
f 28//20 30//20 29//20
f 29//20 30//20 31//20
f 30//21 32//21 33//21
f 30//21 33//21 31//21
f 32//22 34//22 33//22
f 33//22 34//22 35//22
f 34//23 36//23 37//23
f 34//23 37//23 35//23
f 36//24 38//24 37//24
f 37//24 38//24 39//24
f 38//25 40//25 41//25
f 38//25 41//25 39//25
f 40//26 42//26 41//26
f 41//26 42//26 43//26
f 44//27 45//27 46//27
f 46//28 47//28 42//28
f 47//29 48//29 49//29
f 49//30 50//30 41//30
f 50//31 51//31 39//31
f 51//32 52//32 37//32
f 52//33 53//33 35//33
f 53//34 54//34 33//34
f 54//35 55//35 31//35
f 55//36 56//36 29//36
f 56//37 57//37 27//37
f 57//38 58//38 25//38
f 58//39 59//39 23//39
f 59//40 60//40 21//40
f 60//41 61//41 19//41
f 61//42 62//42 16//42
f 62//43 63//43 17//43
f 63//44 48//44 47//44
f 47//45 46//45 14//45
f 46//46 45//46 64//46
f 64//47 65//47 14//47
f 65//48 66//48 15//48
f 66//49 67//49 18//49
f 67//50 68//50 20//50
f 68//51 69//51 22//51
f 69//52 70//52 24//52
f 70//53 71//53 26//53
f 71//54 72//54 28//54
f 72//55 73//55 30//55
f 73//56 74//56 32//56
f 74//57 75//57 34//57
f 75//58 76//58 36//58
f 76//59 77//59 38//59
f 77//60 44//60 40//60
f 15//47 14//47 65//47
f 18//48 15//48 66//48
f 20//49 18//49 67//49
f 22//50 20//50 68//50
f 24//51 22//51 69//51
f 26//52 24//52 70//52
f 28//53 26//53 71//53
f 14//45 17//45 47//45
f 17//43 16//43 62//43
f 16//42 19//42 61//42
f 19//41 21//41 60//41
f 21//40 23//40 59//40
f 23//39 25//39 58//39
f 25//38 27//38 57//38
f 27//37 29//37 56//37
f 30//54 28//54 72//54
f 32//55 30//55 73//55
f 34//56 32//56 74//56
f 36//57 34//57 75//57
f 38//58 36//58 76//58
f 40//59 38//59 77//59
f 42//60 40//60 44//60
f 43//28 42//28 47//28
f 29//36 31//36 55//36
f 31//35 33//35 54//35
f 33//34 35//34 53//34
f 35//33 37//33 52//33
f 37//32 39//32 51//32
f 39//31 41//31 50//31
f 41//30 43//30 49//30
f 44//27 46//27 42//27
f 47//29 49//29 43//29
f 17//44 63//44 47//44
f 14//46 46//46 64//46
f 78//61 79//61 80//61
f 81//61 79//61 78//61
f 81//62 82//62 79//62
f 83//62 82//62 81//62
f 84//63 85//63 82//63
f 83//63 84//63 82//63
f 86//64 87//64 85//64
f 84//64 86//64 85//64
f 88//65 89//65 87//65
f 86//65 88//65 87//65
f 90//66 91//66 89//66
f 88//66 90//66 89//66
f 90//67 92//67 91//67
f 93//67 92//67 90//67
f 93//68 94//68 92//68
f 95//68 94//68 93//68
f 95//69 96//69 94//69
f 97//69 96//69 95//69
f 98//70 99//70 96//70
f 97//70 98//70 96//70
f 100//71 101//71 99//71
f 98//71 100//71 99//71
f 91//72 102//72 103//72
f 92//73 104//73 102//73
f 94//74 105//74 104//74
f 96//75 106//75 105//75
f 99//76 107//76 106//76
f 101//77 108//77 107//77
f 109//78 110//78 108//78
f 101//79 111//79 109//79
f 112//80 113//80 111//80
f 100//81 114//81 112//81
f 98//82 115//82 114//82
f 97//83 116//83 115//83
f 93//84 117//84 116//84
f 90//85 118//85 117//85
f 88//86 119//86 118//86
f 86//87 120//87 119//87
f 84//88 121//88 120//88
f 83//89 122//89 121//89
f 81//90 123//90 122//90
f 78//91 124//91 123//91
f 111//92 113//92 124//92
f 80//93 109//93 111//93
f 125//94 110//94 109//94
f 80//95 126//95 125//95
f 79//96 127//96 126//96
f 82//97 128//97 127//97
f 85//98 129//98 128//98
f 87//99 130//99 129//99
f 89//100 103//100 130//100
f 126//101 80//101 79//101
f 127//102 79//102 82//102
f 128//103 82//103 85//103
f 129//104 85//104 87//104
f 130//105 87//105 89//105
f 103//106 89//106 91//106
f 102//107 91//107 92//107
f 111//93 78//93 80//93
f 123//91 81//91 78//91
f 122//90 83//90 81//90
f 121//89 84//89 83//89
f 120//88 86//88 84//88
f 119//87 88//87 86//87
f 118//86 90//86 88//86
f 117//108 93//108 90//108
f 104//109 92//109 94//109
f 105//110 94//110 96//110
f 106//111 96//111 99//111
f 107//112 99//112 101//112
f 111//79 101//79 100//79
f 116//84 95//84 93//84
f 116//83 97//83 95//83
f 115//82 98//82 97//82
f 114//81 100//81 98//81
f 109//113 108//113 101//113
f 100//80 112//80 111//80
f 111//92 124//92 78//92
f 125//114 109//114 80//114
f 131//115 132//115 133//115
f 131//116 133//116 134//116
f 132//117 135//117 136//117
f 132//117 136//117 133//117
f 135//118 137//118 138//118
f 135//118 138//118 136//118
f 137//119 139//119 140//119
f 137//119 140//119 138//119
f 139//120 141//120 142//120
f 139//120 142//120 140//120
f 141//121 143//121 144//121
f 141//121 144//121 142//121
f 143//122 145//122 146//122
f 143//123 146//123 144//123
f 145//124 147//124 148//124
f 145//124 148//124 146//124
f 147//125 149//125 150//125
f 147//125 150//125 148//125
f 149//126 151//126 152//126
f 149//126 152//126 150//126
f 151//127 153//127 154//127
f 151//127 154//127 152//127
f 153//128 155//128 156//128
f 153//128 156//128 154//128
f 154//129 157//129 102//129
f 157//130 103//130 102//130
f 102//131 104//131 154//131
f 104//132 105//132 152//132
f 105//133 106//133 150//133
f 106//134 107//134 148//134
f 107//135 108//135 146//135
f 108//136 110//136 144//136
f 110//137 125//137 144//137
f 125//138 126//138 142//138
f 126//139 127//139 140//139
f 127//140 128//140 138//140
f 128//141 129//141 136//141
f 129//142 130//142 133//142
f 130//143 103//143 157//143
f 157//144 133//144 130//144
f 133//145 136//145 129//145
f 136//146 138//146 128//146
f 138//147 140//147 127//147
f 140//148 142//148 126//148
f 142//149 144//149 125//149
f 144//150 146//150 108//150
f 146//151 148//151 107//151
f 148//152 150//152 106//152
f 150//153 152//153 105//153
f 152//154 154//154 104//154
f 158//155 159//155 64//155
f 158//155 64//155 160//155
f 159//156 161//156 65//156
f 159//156 65//156 64//156
f 161//157 162//157 66//157
f 161//157 66//157 65//157
f 162//158 163//158 67//158
f 162//158 67//158 66//158
f 163//159 164//159 68//159
f 163//159 68//159 67//159
f 164//160 165//160 69//160
f 164//160 69//160 68//160
f 165//161 166//161 70//161
f 165//161 70//161 69//161
f 166//162 167//162 71//162
f 166//162 71//162 70//162
f 167//163 168//163 72//163
f 167//163 72//163 71//163
f 168//164 169//164 73//164
f 168//164 73//164 72//164
f 169//165 170//165 74//165
f 169//165 74//165 73//165
f 170//166 171//166 75//166
f 170//166 75//166 74//166
f 171//167 172//167 76//167
f 171//167 76//167 75//167
f 172//168 173//168 77//168
f 172//168 77//168 76//168
f 173//169 174//169 44//169
f 173//169 44//169 77//169
f 174//170 175//170 176//170
f 174//170 176//170 44//170
f 49//171 48//171 50//171
f 48//171 63//171 50//171
f 50//171 63//171 51//171
f 63//171 177//171 51//171
f 51//171 177//171 52//171
f 177//171 178//171 52//171
f 52//171 178//171 53//171
f 178//171 179//171 53//171
f 53//171 179//171 54//171
f 179//171 180//171 54//171
f 54//171 180//171 55//171
f 177//171 63//171 181//171
f 181//171 63//171 182//171
f 63//171 62//171 182//171
f 62//171 61//171 182//171
f 61//171 60//171 182//171
f 182//171 60//171 180//171
f 60//171 59//171 180//171
f 180//171 59//171 55//171
f 59//171 58//171 55//171
f 55//171 58//171 56//171
f 58//171 57//171 56//171
f 159//172 183//172 161//172
f 183//172 174//172 161//172
f 161//172 174//172 162//172
f 174//172 119//172 162//172
f 162//172 120//172 163//172
f 120//172 121//172 163//172
f 163//172 121//172 164//172
f 121//172 122//172 164//172
f 164//172 122//172 165//172
f 122//172 123//172 165//172
f 165//172 123//172 166//172
f 123//172 124//172 166//172
f 166//172 124//172 184//172
f 124//172 113//172 184//172
f 184//172 113//172 168//172
f 113//172 112//172 168//172
f 168//172 112//172 169//172
f 112//172 114//172 169//172
f 169//172 114//172 170//172
f 114//172 115//172 170//172
f 170//172 115//172 171//172
f 115//172 116//172 171//172
f 171//172 116//172 172//172
f 116//172 117//172 172//172
f 172//172 117//172 173//172
f 117//172 118//172 173//172
f 173//172 118//172 174//172
f 118//172 119//172 174//172
f 120//172 162//172 119//172
f 132//172 185//172 135//172
f 185//172 153//172 135//172
f 135//172 153//172 137//172
f 153//172 151//172 137//172
f 137//172 151//172 139//172
f 151//172 149//172 139//172
f 139//172 149//172 141//172
f 149//172 147//172 141//172
f 141//172 147//172 186//172
f 147//172 145//172 186//172
f 187//173 181//173 12//173
f 181//173 182//173 12//173
f 12//173 182//173 188//173
f 189//174 177//174 2//174
f 177//174 181//174 2//174
f 2//174 181//174 187//174
f 190//175 178//175 4//175
f 178//175 177//175 4//175
f 4//175 177//175 189//175
f 191//176 179//176 6//176
f 179//176 178//176 6//176
f 6//176 178//176 190//176
f 192//177 180//177 8//177
f 180//177 179//177 8//177
f 8//177 179//177 191//177
f 188//178 182//178 10//178
f 182//178 180//178 10//178
f 10//178 180//178 192//178
f 189//171 1//171 4//171
f 1//171 189//171 2//171
f 190//171 5//171 6//171
f 5//171 190//171 4//171
f 191//171 7//171 8//171
f 7//171 191//171 6//171
f 192//171 9//171 10//171
f 9//171 192//171 8//171
f 188//171 11//171 12//171
f 11//171 188//171 10//171
f 187//171 13//171 2//171
f 13//171 187//171 12//171
