# Blender v3.1.2 OBJ File: ''
# www.blender.org
mtllib Болт крепления выпускного тракта.mtl
o Болт_крепления_выпускного_тракта
v -5.081337 -2.104759 -27.000000
v -5.500000 0.000000 -27.000000
v -3.889087 -3.889087 -27.000000
v -5.081337 2.104759 -27.000000
v -4.618802 -0.000000 -27.000000
v -2.104759 -5.081337 -27.000000
v -2.309401 -4.000000 -27.000000
v 0.000000 -5.500000 -27.000000
v 2.309401 -4.000000 -27.000000
v 2.104759 -5.081337 -27.000000
v 4.618802 0.000000 -27.000000
v 3.889087 -3.889087 -27.000000
v -2.309401 4.000000 -27.000000
v -3.889087 3.889087 -27.000000
v -2.104759 5.081337 -27.000000
v -0.000000 5.500000 -27.000000
v 2.309401 4.000000 -27.000000
v 2.104759 5.081337 -27.000000
v 3.889087 3.889087 -27.000000
v 5.081337 2.104759 -27.000000
v 5.500000 0.000000 -27.000000
v 5.081337 -2.104759 -27.000000
v 2.309401 4.000000 -31.000000
v 4.618802 0.000000 -27.000000
v 4.618802 0.000000 -31.000000
v -2.309401 4.000000 -31.000000
v -4.618802 -0.000000 -31.000000
v -2.309401 -4.000000 -31.000000
v -4.618802 -0.000000 -27.000000
v -4.618802 -0.000000 -31.000000
v 2.309401 -4.000000 -31.000000
v 4.618802 0.000000 -31.000000
v 4.618802 0.000000 -27.000000
v -5.500000 0.000000 -26.000000
v -5.081337 2.104759 -26.000000
v -3.889087 3.889087 -26.000000
v -2.104759 5.081337 -26.000000
v -0.000000 5.500000 -26.000000
v 2.104759 5.081337 -26.000000
v 3.889087 3.889087 -26.000000
v 5.081337 2.104759 -26.000000
v 5.500000 0.000000 -26.000000
v 5.081337 -2.104759 -26.000000
v 3.889087 -3.889087 -26.000000
v 2.104759 -5.081337 -26.000000
v 0.000000 -5.500000 -26.000000
v -2.104759 -5.081337 -26.000000
v -3.889087 -3.889087 -26.000000
v -5.081337 -2.104759 -26.000000
v -5.500000 -0.000000 -26.000000
v -5.500000 -0.000000 -27.000000
v -3.603875 1.735535 -26.000000
v -2.493959 3.127326 -26.000000
v -0.890084 3.899712 -26.000000
v 0.890084 3.899712 -26.000000
v 2.493959 3.127326 -26.000000
v 3.603875 1.735535 -26.000000
v 4.000000 0.000000 -26.000000
v 3.603875 -1.735535 -26.000000
v 2.493959 -3.127326 -26.000000
v 0.890084 -3.899712 -26.000000
v -0.890084 -3.899712 -26.000000
v -2.493959 -3.127326 -26.000000
v -3.603875 -1.735535 -26.000000
v -4.000000 0.000000 -26.000000
v -4.000000 -0.000000 -1.000000
v -3.603875 1.735535 -1.000000
v -2.493959 3.127326 -1.000000
v -0.890084 3.899712 -1.000000
v 0.890084 3.899712 -1.000000
v 2.493959 3.127326 -1.000000
v 3.603875 1.735535 -1.000000
v 4.000000 0.000000 -1.000000
v 4.000000 0.000000 -26.000000
v 3.603875 -1.735535 -1.000000
v 2.493959 -3.127326 -1.000000
v 0.890084 -3.899712 -1.000000
v -0.890084 -3.899712 -1.000000
v -2.493959 -3.127326 -1.000000
v -3.603875 -1.735535 -1.000000
v -4.000000 -0.000000 -1.000000
v -4.000000 0.000000 -26.000000
v -2.702907 1.301651 0.000000
v -3.000000 -0.000000 -0.000000
v -1.870469 2.345495 0.000000
v -2.702907 -1.301651 -0.000000
v -0.667563 2.924784 0.000000
v -1.870469 -2.345495 -0.000000
v 0.667563 2.924784 0.000000
v -0.667563 -2.924784 -0.000000
v 1.870469 2.345495 0.000000
v 0.667563 -2.924784 -0.000000
v 2.702907 1.301651 0.000000
v 1.870469 -2.345495 -0.000000
v 3.000000 0.000000 0.000000
v 2.702907 -1.301651 -0.000000
v -2.702907 1.301651 0.000000
v -3.000000 -0.000000 0.000000
v -1.870469 2.345495 0.000000
v -0.667563 2.924784 0.000000
v 0.667563 2.924784 0.000000
v 1.870469 2.345495 0.000000
v 2.702907 1.301651 0.000000
v 3.000000 0.000000 0.000000
v 2.702907 -1.301651 -0.000000
v 1.870469 -2.345495 -0.000000
v 0.667563 -2.924784 -0.000000
v -0.667563 -2.924784 -0.000000
v -1.870469 -2.345495 -0.000000
v -2.702907 -1.301651 -0.000000
v -3.000000 -0.000000 0.000000
vn 0.0000 0.0000 -1.0000
vn 0.8660 0.5000 0.0000
vn 0.0000 1.0000 0.0000
vn -0.8660 0.5000 0.0000
vn -0.8660 -0.5000 0.0000
vn 0.0000 -1.0000 0.0000
vn 0.8660 -0.5000 0.0000
vn -0.9808 0.1951 0.0000
vn -0.8315 0.5556 0.0000
vn -0.5556 0.8315 0.0000
vn -0.1951 0.9808 0.0000
vn 0.1951 0.9808 0.0000
vn 0.5556 0.8315 0.0000
vn 0.8315 0.5556 0.0000
vn 0.9808 0.1951 0.0000
vn 0.9808 -0.1951 0.0000
vn 0.8315 -0.5556 0.0000
vn 0.5556 -0.8315 0.0000
vn 0.1951 -0.9808 0.0000
vn -0.1951 -0.9808 0.0000
vn -0.5556 -0.8315 0.0000
vn -0.8315 -0.5556 0.0000
vn -0.9808 -0.1951 0.0000
vn 0.0000 0.0000 1.0000
vn -0.9749 0.2225 0.0000
vn -0.7818 0.6235 0.0000
vn -0.4339 0.9010 0.0000
vn 0.4339 0.9010 0.0000
vn 0.7818 0.6235 0.0000
vn 0.9749 0.2225 0.0000
vn 0.9749 -0.2225 0.0000
vn 0.7818 -0.6235 0.0000
vn 0.4339 -0.9010 0.0000
vn -0.4339 -0.9010 0.0000
vn -0.7818 -0.6235 0.0000
vn -0.9749 -0.2225 0.0000
vn -0.6981 0.1593 0.6981
vn -0.5598 0.4464 0.6981
vn -0.3107 0.6451 0.6981
vn 0.0000 0.7160 0.6981
vn 0.3107 0.6451 0.6981
vn 0.5598 0.4464 0.6981
vn 0.6981 0.1593 0.6981
vn 0.6981 -0.1593 0.6981
vn 0.5598 -0.4464 0.6981
vn 0.3107 -0.6451 0.6981
vn 0.0000 -0.7160 0.6981
vn -0.3107 -0.6451 0.6981
vn -0.5598 -0.4464 0.6981
vn -0.6981 -0.1593 0.6981
usemtl None
s off
f 1//1 2//1 3//1
f 2//1 4//1 3//1
f 3//1 5//1 6//1
f 5//1 7//1 6//1
f 6//1 7//1 8//1
f 7//1 9//1 8//1
f 8//1 9//1 10//1
f 9//1 11//1 10//1
f 10//1 11//1 12//1
f 3//1 4//1 5//1
f 5//1 4//1 13//1
f 4//1 14//1 13//1
f 14//1 15//1 13//1
f 15//1 16//1 13//1
f 13//1 16//1 17//1
f 16//1 18//1 17//1
f 17//1 18//1 11//1
f 18//1 19//1 11//1
f 19//1 20//1 11//1
f 20//1 21//1 11//1
f 11//1 21//1 12//1
f 21//1 22//1 12//1
f 23//2 17//2 24//2
f 23//2 24//2 25//2
f 26//3 13//3 17//3
f 26//3 17//3 23//3
f 27//4 5//4 13//4
f 27//4 13//4 26//4
f 28//5 7//5 29//5
f 28//5 29//5 30//5
f 31//6 9//6 7//6
f 31//6 7//6 28//6
f 32//7 33//7 9//7
f 32//7 9//7 31//7
f 34//8 35//8 4//8
f 34//8 4//8 2//8
f 35//9 36//9 14//9
f 35//9 14//9 4//9
f 36//10 37//10 15//10
f 36//10 15//10 14//10
f 37//11 38//11 16//11
f 37//11 16//11 15//11
f 38//12 39//12 18//12
f 38//12 18//12 16//12
f 39//13 40//13 19//13
f 39//13 19//13 18//13
f 40//14 41//14 20//14
f 40//14 20//14 19//14
f 41//15 42//15 21//15
f 41//15 21//15 20//15
f 42//16 43//16 22//16
f 42//16 22//16 21//16
f 43//17 44//17 12//17
f 43//17 12//17 22//17
f 44//18 45//18 10//18
f 44//18 10//18 12//18
f 45//19 46//19 8//19
f 45//19 8//19 10//19
f 46//20 47//20 6//20
f 46//20 6//20 8//20
f 47//21 48//21 3//21
f 47//21 3//21 6//21
f 48//22 49//22 1//22
f 48//22 1//22 3//22
f 49//23 50//23 51//23
f 49//23 51//23 1//23
f 23//1 32//1 26//1
f 32//1 31//1 26//1
f 26//1 31//1 27//1
f 31//1 28//1 27//1
f 35//24 34//24 36//24
f 34//24 49//24 36//24
f 36//24 52//24 37//24
f 52//24 53//24 37//24
f 37//24 53//24 38//24
f 53//24 54//24 38//24
f 38//24 54//24 39//24
f 54//24 55//24 39//24
f 39//24 55//24 40//24
f 55//24 56//24 40//24
f 40//24 56//24 41//24
f 56//24 57//24 41//24
f 41//24 57//24 42//24
f 57//24 58//24 42//24
f 42//24 58//24 43//24
f 58//24 59//24 43//24
f 43//24 59//24 44//24
f 59//24 60//24 44//24
f 44//24 60//24 45//24
f 60//24 61//24 45//24
f 45//24 61//24 46//24
f 61//24 62//24 46//24
f 46//24 62//24 47//24
f 62//24 63//24 47//24
f 47//24 63//24 48//24
f 63//24 64//24 48//24
f 48//24 64//24 49//24
f 64//24 65//24 49//24
f 49//24 65//24 36//24
f 65//24 52//24 36//24
f 66//25 67//25 52//25
f 66//25 52//25 65//25
f 67//26 68//26 53//26
f 67//26 53//26 52//26
f 68//27 69//27 54//27
f 68//27 54//27 53//27
f 69//3 70//3 55//3
f 69//3 55//3 54//3
f 70//28 71//28 56//28
f 70//28 56//28 55//28
f 71//29 72//29 57//29
f 71//29 57//29 56//29
f 72//30 73//30 74//30
f 72//30 74//30 57//30
f 73//31 75//31 59//31
f 73//31 59//31 74//31
f 75//32 76//32 60//32
f 75//32 60//32 59//32
f 76//33 77//33 61//33
f 76//33 61//33 60//33
f 77//6 78//6 62//6
f 77//6 62//6 61//6
f 78//34 79//34 63//34
f 78//34 63//34 62//34
f 79//35 80//35 64//35
f 79//35 64//35 63//35
f 80//36 81//36 82//36
f 80//36 82//36 64//36
f 83//24 84//24 85//24
f 84//24 86//24 85//24
f 85//24 86//24 87//24
f 86//24 88//24 87//24
f 87//24 88//24 89//24
f 88//24 90//24 89//24
f 89//24 90//24 91//24
f 90//24 92//24 91//24
f 91//24 92//24 93//24
f 92//24 94//24 93//24
f 93//24 94//24 95//24
f 94//24 96//24 95//24
f 97//37 67//37 66//37
f 98//37 97//37 66//37
f 99//38 68//38 67//38
f 97//38 99//38 67//38
f 100//39 69//39 68//39
f 99//39 100//39 68//39
f 101//40 70//40 69//40
f 100//40 101//40 69//40
f 102//41 71//41 70//41
f 101//41 102//41 70//41
f 103//42 72//42 71//42
f 102//42 103//42 71//42
f 104//43 73//43 72//43
f 103//43 104//43 72//43
f 105//44 75//44 73//44
f 104//44 105//44 73//44
f 106//45 76//45 75//45
f 105//45 106//45 75//45
f 107//46 77//46 76//46
f 106//46 107//46 76//46
f 108//47 78//47 77//47
f 107//47 108//47 77//47
f 109//48 79//48 78//48
f 108//48 109//48 78//48
f 110//49 80//49 79//49
f 109//49 110//49 79//49
f 111//50 81//50 80//50
f 110//50 111//50 80//50
