# Blender v3.1.2 OBJ File: ''
# www.blender.org
mtllib Болт крепления кронштейна навесных агрегатов.mtl
o Болт_крепления_кронштейна_навесны
v -6.620721 -2.272896 -17.000000
v -7.000000 0.000000 -17.000000
v -5.523983 -4.299489 -17.000000
v -6.249938 -0.000000 -17.000000
v -3.828637 -5.860165 -17.000000
v -3.124969 -5.412606 -17.000000
v -1.718398 -6.785802 -17.000000
v 3.124969 -5.412606 -17.000000
v 0.578055 -6.976091 -17.000000
v -3.124969 5.412606 -17.000000
v -6.620721 2.272896 -17.000000
v -5.523983 4.299489 -17.000000
v -3.828637 5.860165 -17.000000
v -1.718398 6.785802 -17.000000
v 3.124969 5.412606 -17.000000
v 0.578055 6.976091 -17.000000
v 2.811868 6.410413 -17.000000
v 4.740971 5.150067 -17.000000
v 6.249938 0.000000 -17.000000
v 6.156316 3.331632 -17.000000
v 6.904529 1.152162 -17.000000
v 6.904529 -1.152162 -17.000000
v 6.156316 -3.331632 -17.000000
v 4.740971 -5.150067 -17.000000
v 2.811868 -6.410413 -17.000000
v 3.124969 5.412606 -22.000000
v 6.249938 0.000000 -17.000000
v 6.249938 0.000000 -22.000000
v -3.124969 5.412606 -22.000000
v -6.249938 -0.000000 -22.000000
v -3.124969 -5.412606 -22.000000
v -6.249938 -0.000000 -17.000000
v -6.249938 -0.000000 -22.000000
v 3.124969 -5.412606 -22.000000
v 6.249938 0.000000 -22.000000
v 6.249938 0.000000 -17.000000
v -7.000000 0.000000 -15.000000
v -6.620721 2.272896 -15.000000
v -5.523983 4.299489 -15.000000
v -3.828637 5.860165 -15.000000
v -1.718398 6.785802 -15.000000
v 0.578055 6.976091 -15.000000
v 2.811868 6.410413 -15.000000
v 4.740971 5.150067 -15.000000
v 6.156316 3.331632 -15.000000
v 6.904529 1.152162 -15.000000
v 6.904529 -1.152162 -15.000000
v 6.156316 -3.331632 -15.000000
v 4.740971 -5.150067 -15.000000
v 2.811868 -6.410413 -15.000000
v 0.578055 -6.976091 -15.000000
v -1.718398 -6.785802 -15.000000
v -3.828637 -5.860165 -15.000000
v -5.523983 -4.299489 -15.000000
v -6.620721 -2.272896 -15.000000
v -7.000000 -0.000000 -15.000000
v -7.000000 -0.000000 -17.000000
v -4.619398 1.913417 -15.000000
v -3.535534 3.535534 -15.000000
v -1.913417 4.619398 -15.000000
v -0.000000 5.000000 -15.000000
v 1.913417 4.619398 -15.000000
v 3.535534 3.535534 -15.000000
v 4.619398 1.913417 -15.000000
v 5.000000 0.000000 -15.000000
v 4.619398 -1.913417 -15.000000
v 3.535534 -3.535534 -15.000000
v 1.913417 -4.619398 -15.000000
v 0.000000 -5.000000 -15.000000
v -1.913417 -4.619398 -15.000000
v -3.535534 -3.535534 -15.000000
v -4.619398 -1.913417 -15.000000
v -5.000000 0.000000 -15.000000
v -5.000000 -0.000000 -1.000000
v -4.619398 1.913417 -1.000000
v -3.535534 3.535534 -1.000000
v -1.913417 4.619398 -1.000000
v -0.000000 5.000000 -1.000000
v 1.913417 4.619398 -1.000000
v 3.535534 3.535534 -1.000000
v 4.619398 1.913417 -1.000000
v 5.000000 0.000000 -1.000000
v 4.619398 -1.913417 -1.000000
v 3.535534 -3.535534 -1.000000
v 1.913417 -4.619398 -1.000000
v 0.000000 -5.000000 -1.000000
v -1.913417 -4.619398 -1.000000
v -3.535534 -3.535534 -1.000000
v -4.619398 -1.913417 -1.000000
v -5.000000 -0.000000 -1.000000
v -5.000000 -0.000000 -15.000000
v -3.695518 1.530734 0.000000
v -4.000000 -0.000000 -0.000000
v -2.828427 2.828427 0.000000
v -3.695518 -1.530734 -0.000000
v -1.530734 3.695518 0.000000
v -2.828427 -2.828427 -0.000000
v -0.000000 4.000000 0.000000
v -1.530734 -3.695518 -0.000000
v 1.530734 3.695518 0.000000
v 0.000000 -4.000000 -0.000000
v 2.828427 2.828427 0.000000
v 1.530734 -3.695518 -0.000000
v 3.695518 1.530734 0.000000
v 2.828427 -2.828427 -0.000000
v 4.000000 0.000000 0.000000
v 3.695518 -1.530734 -0.000000
v -3.695518 1.530734 0.000000
v -4.000000 -0.000000 0.000000
v -2.828427 2.828427 0.000000
v -1.530734 3.695518 0.000000
v -0.000000 4.000000 0.000000
v 1.530734 3.695518 0.000000
v 2.828427 2.828427 0.000000
v 3.695518 1.530734 0.000000
v 4.000000 0.000000 0.000000
v 3.695518 -1.530734 -0.000000
v 2.828427 -2.828427 -0.000000
v 1.530734 -3.695518 -0.000000
v 0.000000 -4.000000 -0.000000
v -1.530734 -3.695518 -0.000000
v -2.828427 -2.828427 -0.000000
v -3.695518 -1.530734 -0.000000
v -4.000000 -0.000000 0.000000
vn -0.0000 0.0000 -1.0000
vn 0.8660 0.5000 0.0000
vn 0.0000 1.0000 0.0000
vn -0.8660 0.5000 0.0000
vn -0.8660 -0.5000 0.0000
vn 0.0000 -1.0000 0.0000
vn 0.8660 -0.5000 0.0000
vn -0.9864 0.1646 0.0000
vn -0.8795 0.4759 0.0000
vn -0.6773 0.7357 0.0000
vn -0.4017 0.9158 0.0000
vn -0.0826 0.9966 0.0000
vn 0.2455 0.9694 0.0000
vn 0.5469 0.8372 0.0000
vn 0.7891 0.6142 0.0000
vn 0.9458 0.3247 0.0000
vn 1.0000 0.0000 0.0000
vn 0.9458 -0.3247 0.0000
vn 0.7891 -0.6142 0.0000
vn 0.5469 -0.8372 0.0000
vn 0.2455 -0.9694 0.0000
vn -0.0826 -0.9966 0.0000
vn -0.4017 -0.9158 0.0000
vn -0.6773 -0.7357 0.0000
vn -0.8795 -0.4759 0.0000
vn -0.9864 -0.1646 0.0000
vn -0.0000 0.0000 1.0000
vn -0.9808 0.1951 0.0000
vn -0.8315 0.5556 0.0000
vn -0.5556 0.8315 0.0000
vn -0.1951 0.9808 0.0000
vn 0.1951 0.9808 0.0000
vn 0.5556 0.8315 0.0000
vn 0.8315 0.5556 0.0000
vn 0.9808 0.1951 0.0000
vn 0.9808 -0.1951 0.0000
vn 0.8315 -0.5556 0.0000
vn 0.5556 -0.8315 0.0000
vn 0.1951 -0.9808 0.0000
vn -0.1951 -0.9808 0.0000
vn -0.5556 -0.8315 0.0000
vn -0.8315 -0.5556 0.0000
vn -0.9808 -0.1951 0.0000
vn -0.7002 0.1393 0.7002
vn -0.5936 0.3966 0.7002
vn -0.3966 0.5936 0.7002
vn -0.1393 0.7002 0.7002
vn 0.1393 0.7002 0.7002
vn 0.3966 0.5936 0.7002
vn 0.5936 0.3966 0.7002
vn 0.7002 0.1393 0.7002
vn 0.7002 -0.1393 0.7002
vn 0.5936 -0.3966 0.7002
vn 0.3966 -0.5936 0.7002
vn 0.1393 -0.7002 0.7002
vn -0.1393 -0.7002 0.7002
vn -0.3966 -0.5936 0.7002
vn -0.5936 -0.3966 0.7002
vn -0.7002 -0.1393 0.7002
usemtl None
s off
f 1//1 2//1 3//1
f 2//1 4//1 3//1
f 3//1 4//1 5//1
f 4//1 6//1 5//1
f 5//1 6//1 7//1
f 6//1 8//1 7//1
f 7//1 8//1 9//1
f 4//1 2//1 10//1
f 2//1 11//1 10//1
f 11//1 12//1 10//1
f 12//1 13//1 10//1
f 13//1 14//1 10//1
f 10//1 14//1 15//1
f 14//1 16//1 15//1
f 16//1 17//1 15//1
f 17//1 18//1 15//1
f 15//1 18//1 19//1
f 18//1 20//1 19//1
f 20//1 21//1 19//1
f 21//1 22//1 19//1
f 19//1 22//1 8//1
f 22//1 23//1 8//1
f 23//1 24//1 8//1
f 24//1 25//1 8//1
f 8//1 25//1 9//1
f 26//2 15//2 27//2
f 26//2 27//2 28//2
f 29//3 10//3 15//3
f 29//3 15//3 26//3
f 30//4 4//4 10//4
f 30//4 10//4 29//4
f 31//5 6//5 32//5
f 31//5 32//5 33//5
f 34//6 8//6 6//6
f 34//6 6//6 31//6
f 35//7 36//7 8//7
f 35//7 8//7 34//7
f 37//8 38//8 11//8
f 37//8 11//8 2//8
f 38//9 39//9 12//9
f 38//9 12//9 11//9
f 39//10 40//10 13//10
f 39//10 13//10 12//10
f 40//11 41//11 14//11
f 40//11 14//11 13//11
f 41//12 42//12 16//12
f 41//12 16//12 14//12
f 42//13 43//13 17//13
f 42//13 17//13 16//13
f 43//14 44//14 18//14
f 43//14 18//14 17//14
f 44//15 45//15 20//15
f 44//15 20//15 18//15
f 45//16 46//16 21//16
f 45//16 21//16 20//16
f 46//17 47//17 22//17
f 46//17 22//17 21//17
f 47//18 48//18 23//18
f 47//18 23//18 22//18
f 48//19 49//19 24//19
f 48//19 24//19 23//19
f 49//20 50//20 25//20
f 49//20 25//20 24//20
f 50//21 51//21 9//21
f 50//21 9//21 25//21
f 51//22 52//22 7//22
f 51//22 7//22 9//22
f 52//23 53//23 5//23
f 52//23 5//23 7//23
f 53//24 54//24 3//24
f 53//24 3//24 5//24
f 54//25 55//25 1//25
f 54//25 1//25 3//25
f 55//26 56//26 57//26
f 55//26 57//26 1//26
f 26//1 35//1 29//1
f 35//1 34//1 29//1
f 29//1 34//1 30//1
f 34//1 31//1 30//1
f 38//27 37//27 39//27
f 37//27 55//27 39//27
f 39//27 55//27 40//27
f 55//27 58//27 40//27
f 40//27 58//27 41//27
f 58//27 59//27 41//27
f 41//27 59//27 42//27
f 59//27 60//27 42//27
f 42//27 60//27 43//27
f 60//27 61//27 43//27
f 43//27 61//27 44//27
f 61//27 62//27 44//27
f 44//27 62//27 45//27
f 62//27 63//27 45//27
f 45//27 63//27 46//27
f 63//27 64//27 46//27
f 46//27 64//27 47//27
f 64//27 65//27 47//27
f 47//27 65//27 48//27
f 65//27 66//27 48//27
f 48//27 66//27 49//27
f 66//27 67//27 49//27
f 49//27 67//27 50//27
f 67//27 68//27 50//27
f 50//27 68//27 51//27
f 68//27 69//27 51//27
f 51//27 69//27 52//27
f 69//27 70//27 52//27
f 52//27 70//27 53//27
f 70//27 71//27 53//27
f 53//27 71//27 54//27
f 71//27 72//27 54//27
f 54//27 72//27 55//27
f 72//27 73//27 55//27
f 58//27 55//27 73//27
f 74//28 75//28 58//28
f 74//28 58//28 73//28
f 75//29 76//29 59//29
f 75//29 59//29 58//29
f 76//30 77//30 60//30
f 76//30 60//30 59//30
f 77//31 78//31 61//31
f 77//31 61//31 60//31
f 78//32 79//32 62//32
f 78//32 62//32 61//32
f 79//33 80//33 63//33
f 79//33 63//33 62//33
f 80//34 81//34 64//34
f 80//34 64//34 63//34
f 81//35 82//35 65//35
f 81//35 65//35 64//35
f 82//36 83//36 66//36
f 82//36 66//36 65//36
f 83//37 84//37 67//37
f 83//37 67//37 66//37
f 84//38 85//38 68//38
f 84//38 68//38 67//38
f 85//39 86//39 69//39
f 85//39 69//39 68//39
f 86//40 87//40 70//40
f 86//40 70//40 69//40
f 87//41 88//41 71//41
f 87//41 71//41 70//41
f 88//42 89//42 72//42
f 88//42 72//42 71//42
f 89//43 90//43 91//43
f 89//43 91//43 72//43
f 92//27 93//27 94//27
f 93//27 95//27 94//27
f 94//27 95//27 96//27
f 95//27 97//27 96//27
f 96//27 97//27 98//27
f 97//27 99//27 98//27
f 98//27 99//27 100//27
f 99//27 101//27 100//27
f 100//27 101//27 102//27
f 101//27 103//27 102//27
f 102//27 103//27 104//27
f 103//27 105//27 104//27
f 104//27 105//27 106//27
f 105//27 107//27 106//27
f 108//44 75//44 74//44
f 109//44 108//44 74//44
f 110//45 76//45 75//45
f 108//45 110//45 75//45
f 111//46 77//46 76//46
f 110//46 111//46 76//46
f 112//47 78//47 77//47
f 111//47 112//47 77//47
f 113//48 79//48 78//48
f 112//48 113//48 78//48
f 114//49 80//49 79//49
f 113//49 114//49 79//49
f 115//50 81//50 80//50
f 114//50 115//50 80//50
f 116//51 82//51 81//51
f 115//51 116//51 81//51
f 117//52 83//52 82//52
f 116//52 117//52 82//52
f 118//53 84//53 83//53
f 117//53 118//53 83//53
f 119//54 85//54 84//54
f 118//54 119//54 84//54
f 120//55 86//55 85//55
f 119//55 120//55 85//55
f 121//56 87//56 86//56
f 120//56 121//56 86//56
f 122//57 88//57 87//57
f 121//57 122//57 87//57
f 123//58 89//58 88//58
f 122//58 123//58 88//58
f 124//59 90//59 89//59
f 123//59 124//59 89//59
