# Blender v3.1.2 OBJ File: ''
# www.blender.org
mtllib Болт самоблокирующийся.mtl
o Болт_самоблокирующийся
v -26.850000 4.172000 -0.000009
v -26.850000 3.854425 1.596547
v -26.021999 4.619398 1.913409
v -26.021999 5.000000 -0.000008
v -26.850002 2.950049 2.950041
v -26.022001 3.535534 3.535525
v -26.850002 1.596555 3.854417
v -26.022001 1.913417 4.619389
v -26.850002 0.000000 4.171991
v -26.022001 0.000000 4.999991
v -26.850002 -1.596555 3.854417
v -26.022001 -1.913417 4.619389
v -26.850002 -2.950049 2.950041
v -26.022001 -3.535534 3.535525
v -26.850000 -3.854425 1.596547
v -26.021999 -4.619398 1.913409
v -26.850000 -4.172000 -0.000009
v -26.021999 -5.000000 -0.000008
v -26.850000 -3.854425 -1.596564
v -26.021999 -4.619398 -1.913426
v -26.849998 -2.950049 -2.950058
v -26.021997 -3.535534 -3.535542
v -26.849998 -1.596555 -3.854434
v -26.021997 -1.913417 -4.619406
v -26.849998 -0.000000 -4.172009
v -26.021997 -0.000000 -5.000009
v -26.849998 1.596555 -3.854434
v -26.021997 1.913417 -4.619406
v -26.849998 2.950049 -2.950058
v -26.021997 3.535534 -3.535542
v -26.850000 3.854425 -1.596564
v -26.021999 4.619398 -1.913426
v -26.850000 4.172000 -0.000009
v -26.021999 5.000000 -0.000008
v -6.850000 4.619398 1.913415
v -6.850000 5.000000 -0.000002
v -6.850001 3.535534 3.535532
v -6.850001 1.913417 4.619395
v -6.850001 0.000000 4.999998
v -6.850001 -1.913417 4.619395
v -6.850001 -3.535534 3.535532
v -6.850000 -4.619398 1.913415
v -6.850000 -5.000000 -0.000002
v -6.849999 -4.619398 -1.913419
v -6.849999 -3.535534 -3.535536
v -6.849998 -1.913417 -4.619400
v -6.849998 -0.000000 -5.000002
v -6.849998 1.913417 -4.619400
v -6.849999 3.535534 -3.535536
v -6.849999 4.619398 -1.913419
v -6.850000 5.000000 -0.000002
v -0.072075 -5.228699 6.218813
v -0.000002 -4.000000 6.928203
v -0.182299 -5.965642 5.793339
v -0.023309 -3.303127 7.330543
v -0.312496 -6.591293 5.432120
v -0.124843 -2.378325 7.864478
v -0.534671 -7.428719 4.948631
v -0.261940 -1.633857 8.294296
v -0.714533 -8.000000 4.618802
v -0.714534 0.000000 9.237604
v -6.850001 -8.000000 4.618800
v -6.850003 0.000000 9.237602
v -0.072076 2.771301 7.637593
v -0.000002 4.000000 6.928203
v -0.182300 2.034358 8.063067
v -0.023308 4.696873 6.525864
v -0.312497 1.408707 8.424287
v -0.124843 5.621675 5.991929
v -0.534673 0.571281 8.907775
v -0.261939 6.366143 5.562110
v -0.714533 8.000000 4.618802
v -6.850001 8.000000 4.618800
v -0.072759 8.000000 1.425561
v 0.000000 8.000000 0.000000
v -0.183073 8.000000 2.274638
v -0.000399 8.000000 -0.105096
v -0.426406 8.000000 3.516013
v -0.023486 8.000000 -0.807794
v -0.124552 8.000000 -1.870360
v -0.259660 8.000000 -2.719965
v -6.849998 8.000000 -4.618804
v -0.714530 8.000000 -4.618802
v -0.072071 5.228699 -6.218813
v 0.000002 4.000000 -6.928203
v -0.182295 5.965642 -5.793339
v -0.023304 3.303127 -7.330543
v -0.312493 6.591293 -5.432120
v -0.124838 2.378325 -7.864478
v -0.534668 7.428719 -4.948631
v -0.261934 1.633857 -8.294296
v -0.714528 -0.000000 -9.237604
v -6.849997 0.000000 -9.237606
v -0.072071 -2.771301 -7.637593
v 0.000002 -4.000000 -6.928203
v -0.182295 -2.034358 -8.063067
v -0.023304 -4.696873 -6.525864
v -0.312492 -1.408707 -8.424287
v -0.124839 -5.621675 -5.991929
v -0.534667 -0.571281 -8.907775
v -0.261935 -6.366143 -5.562110
v -0.714530 -8.000000 -4.618802
v -6.849998 -8.000000 -4.618804
v -0.071676 -8.000000 -1.414836
v -0.000000 -8.000000 0.000000
v -0.182225 -8.000000 -2.269274
v -0.022389 -8.000000 0.788650
v -0.313185 -8.000000 -2.995585
v -0.124022 -8.000000 1.866317
v -0.536988 -8.000000 -3.968193
v -0.260177 -8.000000 2.722738
v -6.849998 -0.000000 -5.000002
v -6.850000 5.000000 -0.000002
v -6.850001 0.000000 4.999998
v -6.850000 -5.000000 -0.000002
v -26.850000 4.172000 -0.000009
v 0.000001 -6.928203 -4.000000
v 0.000002 -5.656854 -5.656854
v 0.000001 -7.727407 -2.070552
v 0.000003 0.000000 -8.000000
v 0.000003 2.070552 -7.727407
v 0.000003 -2.070552 -7.727407
v 0.000001 6.928203 -4.000000
v 0.000001 7.727407 -2.070552
v 0.000002 5.656854 -5.656854
v -0.000001 7.727407 2.070552
v -0.000001 6.928203 4.000000
v -0.000002 5.656854 5.656854
v -0.000003 2.070552 7.727407
v -0.000003 -0.000000 8.000000
v -0.000003 -2.070552 7.727407
v -0.000002 -5.656854 5.656854
v -0.000001 -6.928203 4.000000
v -0.000001 -7.727407 2.070552
vn -0.7002 0.7002 0.1393
vn -0.7002 0.5936 0.3966
vn -0.7002 0.3966 0.5936
vn -0.7002 0.1393 0.7002
vn -0.7002 -0.1393 0.7002
vn -0.7002 -0.3966 0.5936
vn -0.7002 -0.5936 0.3966
vn -0.7002 -0.7002 0.1393
vn -0.7002 -0.7002 -0.1393
vn -0.7002 -0.5936 -0.3966
vn -0.7002 -0.3966 -0.5936
vn -0.7002 -0.1393 -0.7002
vn -0.7002 0.1393 -0.7002
vn -0.7002 0.3966 -0.5936
vn -0.7002 0.5936 -0.3966
vn -0.7002 0.7002 -0.1393
vn -0.0000 0.9808 0.1951
vn -0.0000 0.8315 0.5556
vn -0.0000 0.5556 0.8315
vn -0.0000 0.1951 0.9808
vn -0.0000 -0.1951 0.9808
vn -0.0000 -0.5556 0.8315
vn -0.0000 -0.8315 0.5556
vn -0.0000 -0.9808 0.1951
vn 0.0000 -0.9808 -0.1951
vn 0.0000 -0.8315 -0.5556
vn 0.0000 -0.5556 -0.8315
vn 0.0000 -0.1951 -0.9808
vn 0.0000 0.1951 -0.9808
vn 0.0000 0.5556 -0.8315
vn 0.0000 0.8315 -0.5556
vn 0.0000 0.9808 -0.1951
vn 0.0000 -0.5000 0.8660
vn 0.0000 0.5000 0.8660
vn 0.0000 1.0000 0.0000
vn 0.0000 0.5000 -0.8660
vn 0.0000 -0.5000 -0.8660
vn 0.0000 -1.0000 0.0000
vn -1.0000 -0.0000 -0.0000
vn 0.8659 -0.4409 -0.2363
vn 0.8650 -0.4081 -0.2919
vn 0.8592 -0.3652 -0.3584
vn 0.8815 -0.3049 -0.3605
vn 0.9763 -0.1319 -0.1719
vn 0.8877 -0.3653 -0.2803
vn 0.8883 -0.4243 -0.1757
vn 0.9322 -0.3587 -0.0472
vn 0.8618 -0.4948 -0.1115
vn 0.8701 -0.4673 -0.1569
vn 0.8734 -0.4436 -0.2010
vn 0.8659 -0.0160 -0.4999
vn 0.8650 0.0487 -0.4994
vn 0.8592 0.1278 -0.4955
vn 0.8815 0.1597 -0.4443
vn 0.9763 0.0829 -0.2001
vn 0.8877 0.0601 -0.4565
vn 0.8883 -0.0599 -0.4553
vn 0.9319 -0.1388 -0.3351
vn 0.8618 -0.1507 -0.4843
vn 0.8701 -0.0979 -0.4831
vn 0.8736 -0.0479 -0.4844
vn 0.8659 0.4249 -0.2638
vn 0.8650 0.4570 -0.2072
vn 0.8593 0.4930 -0.1366
vn 0.8816 0.4644 -0.0839
vn 0.9723 0.2317 -0.0319
vn 0.9996 0.0288 -0.0038
vn 0.8876 0.4256 -0.1763
vn 0.8883 0.3643 -0.2795
vn 0.9319 0.2208 -0.2877
vn 0.8618 0.3441 -0.3727
vn 0.8701 0.3694 -0.3263
vn 0.8736 0.3955 -0.2837
vn 0.9313 0.3611 0.0475
vn 0.8617 0.4949 0.1120
vn 0.8724 0.4579 0.1710
vn 0.8657 0.4465 0.2262
vn 0.8650 0.4081 0.2919
vn 0.8592 0.3652 0.3584
vn 0.8815 0.3049 0.3605
vn 0.9763 0.1319 0.1719
vn 0.8877 0.3653 0.2803
vn 0.8837 0.4325 0.1791
vn 0.9319 0.1388 0.3351
vn 0.8618 0.1507 0.4843
vn 0.8701 0.0979 0.4831
vn 0.8736 0.0479 0.4844
vn 0.8659 0.0160 0.4999
vn 0.8650 -0.0487 0.4994
vn 0.8592 -0.1278 0.4955
vn 0.8815 -0.1597 0.4443
vn 0.9763 -0.0829 0.2001
vn 0.8877 -0.0601 0.4565
vn 0.8883 0.0599 0.4553
vn 0.9319 -0.2208 0.2877
vn 0.8618 -0.3441 0.3727
vn 0.8701 -0.3694 0.3263
vn 0.8736 -0.3955 0.2837
vn 0.8659 -0.4249 0.2638
vn 0.8650 -0.4570 0.2073
vn 0.8591 -0.4932 0.1366
vn 0.8821 -0.4637 0.0832
vn 0.9772 -0.2107 0.0277
vn 0.8876 -0.4255 0.1763
vn 0.8883 -0.3643 0.2795
vn 1.0000 0.0000 0.0000
usemtl None
s off
f 1//1 2//1 3//1
f 1//1 3//1 4//1
f 2//2 5//2 6//2
f 2//2 6//2 3//2
f 5//3 7//3 8//3
f 5//3 8//3 6//3
f 7//4 9//4 10//4
f 7//4 10//4 8//4
f 9//5 11//5 12//5
f 9//5 12//5 10//5
f 11//6 13//6 14//6
f 11//6 14//6 12//6
f 13//7 15//7 16//7
f 13//7 16//7 14//7
f 15//8 17//8 18//8
f 15//8 18//8 16//8
f 17//9 19//9 20//9
f 17//9 20//9 18//9
f 19//10 21//10 22//10
f 19//10 22//10 20//10
f 21//11 23//11 24//11
f 21//11 24//11 22//11
f 23//12 25//12 26//12
f 23//12 26//12 24//12
f 25//13 27//13 28//13
f 25//13 28//13 26//13
f 27//14 29//14 30//14
f 27//14 30//14 28//14
f 29//15 31//15 32//15
f 29//15 32//15 30//15
f 31//16 33//16 34//16
f 31//16 34//16 32//16
f 4//17 3//17 35//17
f 4//17 35//17 36//17
f 3//18 6//18 37//18
f 3//18 37//18 35//18
f 6//19 8//19 38//19
f 6//19 38//19 37//19
f 8//20 10//20 39//20
f 8//20 39//20 38//20
f 10//21 12//21 40//21
f 10//21 40//21 39//21
f 12//22 14//22 41//22
f 12//22 41//22 40//22
f 14//23 16//23 42//23
f 14//23 42//23 41//23
f 16//24 18//24 43//24
f 16//24 43//24 42//24
f 18//25 20//25 44//25
f 18//25 44//25 43//25
f 20//26 22//26 45//26
f 20//26 45//26 44//26
f 22//27 24//27 46//27
f 22//27 46//27 45//27
f 24//28 26//28 47//28
f 24//28 47//28 46//28
f 26//29 28//29 48//29
f 26//29 48//29 47//29
f 28//30 30//30 49//30
f 28//30 49//30 48//30
f 30//31 32//31 50//31
f 30//31 50//31 49//31
f 32//32 34//32 51//32
f 32//32 51//32 50//32
f 52//33 53//33 54//33
f 53//33 55//33 54//33
f 54//33 55//33 56//33
f 55//33 57//33 56//33
f 56//33 57//33 58//33
f 57//33 59//33 58//33
f 58//33 59//33 60//33
f 59//33 61//33 60//33
f 60//33 61//33 62//33
f 61//33 63//33 62//33
f 64//34 65//34 66//34
f 65//34 67//34 66//34
f 66//34 67//34 68//34
f 67//34 69//34 68//34
f 68//34 69//34 70//34
f 69//34 71//34 70//34
f 70//34 71//34 61//34
f 71//34 72//34 61//34
f 61//34 72//34 63//34
f 72//34 73//34 63//34
f 74//35 75//35 76//35
f 75//35 77//35 76//35
f 76//35 77//35 78//35
f 77//35 79//35 78//35
f 78//35 79//35 72//35
f 79//35 80//35 72//35
f 72//35 80//35 73//35
f 80//35 81//35 73//35
f 73//35 81//35 82//35
f 81//35 83//35 82//35
f 84//36 85//36 86//36
f 85//36 87//36 86//36
f 86//36 87//36 88//36
f 87//36 89//36 88//36
f 88//36 89//36 90//36
f 89//36 91//36 90//36
f 90//36 91//36 83//36
f 91//36 92//36 83//36
f 83//36 92//36 82//36
f 92//36 93//36 82//36
f 94//37 95//37 96//37
f 95//37 97//37 96//37
f 96//37 97//37 98//37
f 97//37 99//37 98//37
f 98//37 99//37 100//37
f 99//37 101//37 100//37
f 100//37 101//37 92//37
f 101//37 102//37 92//37
f 92//37 102//37 93//37
f 102//37 103//37 93//37
f 104//38 105//38 106//38
f 105//38 107//38 106//38
f 106//38 107//38 108//38
f 107//38 109//38 108//38
f 108//38 109//38 110//38
f 109//38 111//38 110//38
f 110//38 111//38 102//38
f 111//38 60//38 102//38
f 102//38 60//38 103//38
f 60//38 62//38 103//38
f 103//39 44//39 93//39
f 44//39 45//39 93//39
f 93//39 112//39 82//39
f 112//39 48//39 82//39
f 82//39 50//39 73//39
f 50//39 113//39 73//39
f 73//39 35//39 63//39
f 35//39 37//39 63//39
f 63//39 114//39 62//39
f 114//39 40//39 62//39
f 62//39 42//39 103//39
f 42//39 115//39 103//39
f 103//39 115//39 44//39
f 42//39 62//39 41//39
f 62//39 40//39 41//39
f 114//39 63//39 38//39
f 63//39 37//39 38//39
f 35//39 73//39 113//39
f 50//39 82//39 49//39
f 82//39 48//39 49//39
f 112//39 93//39 46//39
f 93//39 45//39 46//39
f 2//39 116//39 5//39
f 116//39 31//39 5//39
f 5//39 31//39 7//39
f 31//39 29//39 7//39
f 7//39 29//39 9//39
f 29//39 27//39 9//39
f 9//39 27//39 11//39
f 27//39 25//39 11//39
f 11//39 25//39 13//39
f 25//39 23//39 13//39
f 13//39 23//39 15//39
f 23//39 21//39 15//39
f 15//39 21//39 17//39
f 21//39 19//39 17//39
f 110//40 102//40 117//40
f 102//41 101//41 117//41
f 101//42 99//42 118//42
f 99//43 97//43 118//43
f 97//44 95//44 118//44
f 118//45 117//45 101//45
f 117//46 119//46 108//46
f 119//47 105//47 104//47
f 104//48 106//48 119//48
f 106//49 108//49 119//49
f 108//50 110//50 117//50
f 100//51 92//51 120//51
f 92//52 91//52 120//52
f 91//53 89//53 121//53
f 89//54 87//54 121//54
f 87//55 85//55 121//55
f 121//56 120//56 91//56
f 120//57 122//57 98//57
f 122//58 95//58 94//58
f 94//59 96//59 122//59
f 96//60 98//60 122//60
f 98//61 100//61 120//61
f 90//62 83//62 123//62
f 83//63 81//63 123//63
f 81//64 80//64 124//64
f 80//65 79//65 124//65
f 79//66 77//66 124//66
f 77//67 75//67 124//67
f 124//68 123//68 81//68
f 123//69 125//69 88//69
f 125//70 85//70 84//70
f 84//71 86//71 125//71
f 86//72 88//72 125//72
f 88//73 90//73 123//73
f 126//74 75//74 74//74
f 74//75 76//75 126//75
f 76//76 78//76 126//76
f 78//77 72//77 127//77
f 72//78 71//78 127//78
f 71//79 69//79 128//79
f 69//80 67//80 128//80
f 67//81 65//81 128//81
f 128//82 127//82 71//82
f 127//83 126//83 78//83
f 129//84 65//84 64//84
f 64//85 66//85 129//85
f 66//86 68//86 129//86
f 68//87 70//87 130//87
f 70//88 61//88 130//88
f 61//89 59//89 130//89
f 59//90 57//90 131//90
f 57//91 55//91 131//91
f 55//92 53//92 131//92
f 131//93 130//93 59//93
f 130//94 129//94 68//94
f 132//95 53//95 52//95
f 52//96 54//96 132//96
f 54//97 56//97 132//97
f 56//98 58//98 133//98
f 58//99 60//99 133//99
f 60//100 111//100 133//100
f 111//101 109//101 134//101
f 109//102 107//102 134//102
f 107//103 105//103 134//103
f 134//104 133//104 111//104
f 133//105 132//105 56//105
f 131//106 53//106 130//106
f 53//106 132//106 130//106
f 130//106 132//106 129//106
f 132//106 133//106 129//106
f 129//106 133//106 65//106
f 133//106 134//106 65//106
f 65//106 134//106 128//106
f 134//106 105//106 128//106
f 128//106 105//106 127//106
f 105//106 119//106 127//106
f 127//106 119//106 126//106
f 119//106 117//106 126//106
f 126//106 117//106 75//106
f 117//106 118//106 75//106
f 75//106 118//106 124//106
f 118//106 95//106 124//106
f 124//106 95//106 123//106
f 95//106 122//106 123//106
f 123//106 122//106 125//106
f 122//106 120//106 125//106
f 125//106 120//106 85//106
f 120//106 121//106 85//106
