# Blender v3.1.2 OBJ File: ''
# www.blender.org
mtllib Впускной клапан.mtl
o Впускной_клапан
v -7.675944 2.000000 -2.253860
v -8.000000 2.000000 -0.000000
v -6.730028 2.000000 -4.325127
v -7.264374 2.000000 -1.865174
v -6.572300 2.000000 -3.613153
v -5.238886 2.000000 -6.045997
v -5.467265 2.000000 -5.134103
v -3.323320 2.000000 -7.277056
v -4.018701 2.000000 -6.332459
v -1.138519 2.000000 -7.918571
v -2.317627 2.000000 -7.132924
v 1.138519 2.000000 -7.918571
v -0.470929 2.000000 -7.485200
v 3.323320 2.000000 -7.277056
v 1.405360 2.000000 -7.367155
v 3.193345 2.000000 -6.786203
v 5.238886 2.000000 -6.045997
v 4.780680 2.000000 -5.778849
v 6.730028 2.000000 -4.325127
v 6.067627 2.000000 -4.408390
v 7.675944 2.000000 -2.253860
v 6.973324 2.000000 -2.760934
v 8.000000 2.000000 0.000000
v 7.440860 2.000000 -0.939999
v 7.675944 2.000000 2.253860
v 7.440860 2.000000 0.939999
v 6.730028 2.000000 4.325127
v 6.973324 2.000000 2.760934
v 5.238886 2.000000 6.045997
v 6.067627 2.000000 4.408390
v 4.780680 2.000000 5.778849
v 3.323320 2.000000 7.277056
v 3.193345 2.000000 6.786203
v 1.138519 2.000000 7.918571
v 1.405360 2.000000 7.367155
v -1.138519 2.000000 7.918571
v -0.470929 2.000000 7.485200
v -3.323320 2.000000 7.277056
v -2.317627 2.000000 7.132924
v -5.238886 2.000000 6.045997
v -4.018701 2.000000 6.332459
v -6.730028 2.000000 4.325127
v -5.467265 2.000000 5.134103
v -7.675944 2.000000 2.253860
v -6.572300 2.000000 3.613153
v -7.264374 2.000000 1.865174
v -7.500000 2.000000 -0.000000
v -2.500000 7.000000 -0.000000
v -2.103134 7.000000 1.351602
v -2.103134 100.000000 1.351602
v -2.500000 100.000000 -0.000000
v -1.038538 7.000000 2.274080
v -1.038538 100.000000 2.274080
v 0.355787 7.000000 2.474554
v 0.355787 100.000000 2.474554
v 1.637152 7.000000 1.889374
v 1.637152 100.000000 1.889374
v 2.398732 7.000000 0.704331
v 2.398732 100.000000 0.704331
v 2.398732 7.000000 -0.704331
v 2.398732 100.000000 -0.704331
v 1.637152 7.000000 -1.889374
v 1.637152 100.000000 -1.889374
v 0.355787 7.000000 -2.474554
v 0.355787 100.000000 -2.474554
v -1.038538 7.000000 -2.274080
v -1.038538 100.000000 -2.274080
v -2.103134 7.000000 -1.351602
v -2.103134 100.000000 -1.351602
v -2.500000 7.000000 -0.000000
v -2.500000 100.000000 -0.000000
v -9.594930 0.000000 2.817326
v -10.000000 0.000000 -0.000000
v -8.412536 0.000000 5.406408
v -9.594930 0.000000 -2.817326
v -6.548607 0.000000 7.557496
v -8.412536 0.000000 -5.406408
v -4.154150 0.000000 9.096320
v -6.548607 0.000000 -7.557496
v -1.423148 0.000000 9.898214
v -4.154150 0.000000 -9.096320
v 1.423148 0.000000 9.898214
v -1.423148 0.000000 -9.898214
v 4.154150 0.000000 9.096320
v 1.423148 0.000000 -9.898214
v 6.548607 0.000000 7.557496
v 4.154150 0.000000 -9.096320
v 8.412536 0.000000 5.406408
v 6.548607 0.000000 -7.557496
v 9.594930 0.000000 2.817326
v 8.412536 0.000000 -5.406408
v 10.000000 0.000000 0.000000
v 9.594930 0.000000 -2.817326
v -9.337834 1.000000 2.741836
v -8.187122 1.000000 5.261544
v -8.635437 1.732051 2.535593
v -7.571282 1.732051 4.865767
v -6.373138 1.000000 7.354993
v -5.893746 1.732051 6.801746
v -4.042840 1.000000 8.852585
v -3.738735 1.732051 8.186688
v -1.385015 1.000000 9.632993
v -1.280834 1.732051 8.908393
v 1.385015 1.000000 9.632993
v 1.280834 1.732051 8.908393
v 4.042840 1.000000 8.852585
v 3.738735 1.732051 8.186688
v 6.373138 1.000000 7.354993
v 5.893746 1.732051 6.801746
v 8.187122 1.000000 5.261544
v 7.571282 1.732051 4.865767
v 9.337834 1.000000 2.741836
v 8.635437 1.732051 2.535593
v 9.732051 1.000000 0.000000
v 9.000000 1.732051 0.000000
v 9.337834 1.000000 -2.741836
v 8.635437 1.732051 -2.535593
v 8.187122 1.000000 -5.261544
v 7.571282 1.732051 -4.865767
v 6.373138 1.000000 -7.354993
v 5.893746 1.732051 -6.801746
v 4.042840 1.000000 -8.852585
v 3.738735 1.732051 -8.186688
v 1.385015 1.000000 -9.632993
v 1.280834 1.732051 -8.908393
v -1.385015 1.000000 -9.632993
v -1.280834 1.732051 -8.908393
v -4.042840 1.000000 -8.852585
v -3.738735 1.732051 -8.186688
v -6.373138 1.000000 -7.354993
v -5.893746 1.732051 -6.801746
v -8.187122 1.000000 -5.261544
v -7.571282 1.732051 -4.865767
v -9.337834 1.000000 -2.741836
v -8.635437 1.732051 -2.535593
v -9.732051 1.000000 -0.000000
v -9.000000 1.732051 -0.000000
v -5.411070 2.380602 1.389327
v -4.895560 2.380602 2.691357
v -3.474088 3.464466 1.909896
v -3.839915 3.464466 0.985923
v -4.072443 2.380602 3.824279
v -2.889971 3.464466 2.713864
v -2.993441 2.380602 4.716908
v -2.124267 3.464466 3.347309
v -1.726349 2.380602 5.313156
v -1.225087 3.464466 3.770431
v -0.350784 2.380602 5.575559
v -0.248931 3.464466 3.956643
v 1.046821 2.380602 5.487629
v 0.742867 3.464466 3.894244
v 2.378651 2.380602 5.054891
v 1.687988 3.464466 3.587156
v 3.561022 2.380602 4.304536
v 2.527046 3.464466 3.054674
v 4.519640 2.380602 3.283711
v 3.207320 3.464466 2.330255
v 5.194273 2.380602 2.056558
v 3.686067 3.464466 1.459417
v 5.542531 2.380602 0.700184
v 3.933205 3.464466 0.496879
v 5.542531 2.380602 -0.700184
v 3.933205 3.464466 -0.496879
v 5.194273 2.380602 -2.056558
v 3.686067 3.464466 -1.459417
v 4.519640 2.380602 -3.283711
v 3.207320 3.464466 -2.330255
v 3.561022 2.380602 -4.304536
v 2.527046 3.464466 -3.054674
v 2.378651 2.380602 -5.054891
v 1.687988 3.464466 -3.587156
v 1.046821 2.380602 -5.487629
v 0.742867 3.464466 -3.894244
v -0.350784 2.380602 -5.575559
v -0.248931 3.464466 -3.956643
v -1.726349 2.380602 -5.313156
v -1.225087 3.464466 -3.770431
v -2.993441 2.380602 -4.716908
v -2.124267 3.464466 -3.347309
v -4.072443 2.380602 -3.824279
v -2.889971 3.464466 -2.713864
v -4.895560 2.380602 -2.691357
v -3.474088 3.464466 -1.909896
v -5.411070 2.380602 -1.389327
v -3.839915 3.464466 -0.985923
v -2.524291 5.086583 1.387741
v -2.790103 5.086583 0.716377
v -2.099869 5.086583 1.971908
v -1.543504 5.086583 2.432173
v -0.890155 5.086583 2.739616
v -0.180875 5.086583 2.874918
v 0.539771 5.086583 2.829579
v 1.226501 5.086583 2.606447
v 1.836165 5.086583 2.219542
v 2.330456 5.086583 1.693176
v 2.678316 5.086583 1.060420
v 2.857888 5.086583 0.361035
v 2.857888 5.086583 -0.361035
v 2.678316 5.086583 -1.060420
v 2.330456 5.086583 -1.693176
v 1.836165 5.086583 -2.219542
v 1.226501 5.086583 -2.606447
v 0.539771 5.086583 -2.829579
v -0.180875 5.086583 -2.874918
v -0.890155 5.086583 -2.739616
v -1.543504 5.086583 -2.432173
v -2.099869 5.086583 -1.971908
v -2.524291 5.086583 -1.387741
v -2.790103 5.086583 -0.716377
v -5.586583 2.380602 -0.000000
v -3.964466 3.464466 -0.000000
v -2.880602 5.086583 -0.000000
v -2.500000 7.000000 -0.000000
vn 0.0000 1.0000 0.0000
vn -0.9595 0.0000 0.2817
vn -0.6549 0.0000 0.7557
vn -0.1423 0.0000 0.9898
vn 0.4154 0.0000 0.9096
vn 0.8413 0.0000 0.5406
vn 1.0000 0.0000 0.0000
vn 0.8413 0.0000 -0.5406
vn 0.4154 0.0000 -0.9096
vn -0.1423 0.0000 -0.9898
vn -0.6549 0.0000 -0.7557
vn -0.9595 0.0000 -0.2817
vn 0.0000 -1.0000 0.0000
vn -0.6465 0.7035 0.2952
vn -0.5371 0.7035 0.4654
vn -0.3842 0.7035 0.5979
vn -0.2002 0.7035 0.6819
vn 0.0000 0.7035 0.7107
vn 0.2002 0.7035 0.6819
vn 0.3842 0.7035 0.5979
vn 0.5371 0.7035 0.4654
vn 0.6465 0.7035 0.2952
vn 0.7035 0.7035 0.1011
vn 0.7035 0.7035 -0.1011
vn 0.6465 0.7035 -0.2952
vn 0.5371 0.7035 -0.4654
vn 0.3842 0.7035 -0.5979
vn 0.2002 0.7035 -0.6819
vn 0.0000 0.7035 -0.7107
vn -0.2002 0.7035 -0.6819
vn -0.3842 0.7035 -0.5979
vn -0.5371 0.7035 -0.4654
vn -0.6465 0.7035 -0.2952
vn -0.9567 0.2564 0.1376
vn -0.8792 0.2564 0.4015
vn -0.7305 0.2564 0.6330
vn -0.5226 0.2564 0.8131
vn -0.2723 0.2564 0.9274
vn 0.0000 0.2564 0.9666
vn 0.2723 0.2564 0.9274
vn 0.5226 0.2564 0.8131
vn 0.7305 0.2564 0.6330
vn 0.8792 0.2564 0.4015
vn 0.9567 0.2564 0.1376
vn 0.9567 0.2564 -0.1376
vn 0.8792 0.2564 -0.4015
vn 0.7305 0.2564 -0.6330
vn 0.5226 0.2564 -0.8131
vn 0.2723 0.2564 -0.9274
vn 0.0000 0.2564 -0.9666
vn -0.2723 0.2564 -0.9274
vn -0.5226 0.2564 -0.8131
vn -0.7305 0.2564 -0.6330
vn -0.8792 0.2564 -0.4015
vn -0.9567 0.2564 -0.1376
vn -0.7035 0.7035 -0.1011
vn -0.2586 0.9653 -0.0372
vn -0.2377 0.9653 -0.1085
vn -0.1975 0.9653 -0.1711
vn -0.1413 0.9653 -0.2198
vn -0.0736 0.9653 -0.2507
vn 0.0000 0.9653 -0.2613
vn 0.0736 0.9653 -0.2507
vn 0.1413 0.9653 -0.2198
vn 0.1975 0.9653 -0.1711
vn 0.2377 0.9653 -0.1085
vn 0.2586 0.9653 -0.0372
vn 0.2586 0.9653 0.0372
vn 0.2377 0.9653 0.1085
vn 0.1975 0.9653 0.1711
vn 0.1413 0.9653 0.2198
vn 0.0736 0.9653 0.2507
vn 0.0000 0.9653 0.2613
vn -0.0736 0.9653 0.2507
vn -0.1413 0.9653 0.2198
vn -0.1975 0.9653 0.1711
vn -0.2377 0.9653 0.1085
vn -0.2586 0.9653 0.0372
vn -0.7035 0.7035 0.1011
vn -0.5194 0.8294 0.2056
vn -0.4519 0.8294 0.3283
vn -0.3561 0.8294 0.4304
vn -0.2378 0.8294 0.5054
vn -0.1047 0.8294 0.5487
vn 0.0351 0.8294 0.5575
vn 0.1726 0.8294 0.5313
vn 0.2993 0.8294 0.4717
vn 0.4072 0.8294 0.3824
vn 0.4895 0.8294 0.2691
vn 0.5411 0.8294 0.1389
vn 0.5586 0.8294 0.0000
vn 0.5411 0.8294 -0.1389
vn 0.4895 0.8294 -0.2691
vn 0.4072 0.8294 -0.3824
vn 0.2993 0.8294 -0.4717
vn 0.1726 0.8294 -0.5313
vn 0.0351 0.8294 -0.5575
vn -0.1047 0.8294 -0.5487
vn -0.2378 0.8294 -0.5054
vn -0.3561 0.8294 -0.4304
vn -0.4519 0.8294 -0.3283
vn -0.5194 0.8294 -0.2056
vn -0.7750 0.5525 0.3068
vn -0.6743 0.5525 0.4899
vn -0.5313 0.5525 0.6422
vn -0.3549 0.5525 0.7542
vn -0.1562 0.5525 0.8187
vn 0.0523 0.5525 0.8318
vn 0.2576 0.5525 0.7927
vn 0.4466 0.5525 0.7037
vn 0.6076 0.5525 0.5706
vn 0.7304 0.5525 0.4015
vn 0.8073 0.5525 0.2073
vn 0.8335 0.5525 0.0000
vn 0.8073 0.5525 -0.2073
vn 0.7304 0.5525 -0.4015
vn 0.6076 0.5525 -0.5706
vn 0.4466 0.5525 -0.7037
vn 0.2576 0.5525 -0.7927
vn 0.0523 0.5525 -0.8318
vn -0.1562 0.5525 -0.8187
vn -0.3549 0.5525 -0.7542
vn -0.5313 0.5525 -0.6422
vn -0.6743 0.5525 -0.4899
vn -0.7750 0.5525 -0.3068
vn -0.1950 0.9805 0.0246
vn -0.1828 0.9805 0.0724
vn -0.1590 0.9805 0.1155
vn -0.1253 0.9805 0.1515
vn -0.0837 0.9805 0.1779
vn -0.0368 0.9805 0.1931
vn 0.0123 0.9805 0.1962
vn 0.0607 0.9805 0.1870
vn 0.1053 0.9805 0.1660
vn 0.1433 0.9805 0.1346
vn 0.1723 0.9805 0.0947
vn 0.1904 0.9805 0.0489
vn 0.1966 0.9805 0.0000
vn 0.1904 0.9805 -0.0489
vn 0.1723 0.9805 -0.0947
vn 0.1433 0.9805 -0.1346
vn 0.1053 0.9805 -0.1660
vn 0.0607 0.9805 -0.1870
vn 0.0123 0.9805 -0.1962
vn -0.0368 0.9805 -0.1931
vn -0.0837 0.9805 -0.1779
vn -0.1253 0.9805 -0.1515
vn -0.1590 0.9805 -0.1155
vn -0.1828 0.9805 -0.0724
vn -0.1950 0.9805 -0.0246
vn -0.5542 0.8294 -0.0700
vn -0.8269 0.5525 -0.1045
vn -0.9733 0.1936 -0.1230
vn -0.9306 0.2434 -0.2733
vn -0.6362 0.2369 -0.7342
vn -0.1382 0.2398 -0.9609
vn 0.4028 0.2441 -0.8821
vn 0.8163 0.2420 -0.5246
vn 0.9724 0.2333 0.0000
vn 0.8163 0.2420 0.5246
vn 0.4028 0.2441 0.8821
vn -0.1382 0.2398 0.9609
vn -0.6362 0.2369 0.7342
vn -0.9306 0.2434 0.2733
vn -0.9733 0.1936 0.1230
vn -0.8269 0.5525 0.1045
vn -0.5542 0.8294 0.0700
vn -0.7949 0.1859 0.5775
vn -0.4185 0.1839 0.8894
vn 0.0617 0.1878 0.9803
vn 0.7156 0.1904 0.6720
vn 0.9519 0.1846 0.2444
vn 0.9519 0.1846 -0.2444
vn 0.7156 0.1904 -0.6720
vn 0.0617 0.1878 -0.9803
vn -0.4185 0.1839 -0.8894
vn -0.7949 0.1859 -0.5775
vn -0.9096 0.2070 -0.3602
vn -0.6209 0.2259 -0.7506
vn -0.1828 0.2190 -0.9584
vn 0.3027 0.2019 -0.9315
vn 0.5253 0.1975 -0.8277
vn 0.8563 0.2127 -0.4707
vn 0.8563 0.2127 0.4707
vn 0.5253 0.1975 0.8277
vn 0.3027 0.2019 0.9315
vn -0.1828 0.2190 0.9584
vn -0.6209 0.2259 0.7506
vn -0.9096 0.2070 0.3602
usemtl None
s off
f 1//1 2//1 3//1
f 2//1 4//1 3//1
f 3//1 5//1 6//1
f 5//1 7//1 6//1
f 6//1 7//1 8//1
f 7//1 9//1 8//1
f 8//1 9//1 10//1
f 9//1 11//1 10//1
f 10//1 11//1 12//1
f 11//1 13//1 12//1
f 12//1 13//1 14//1
f 13//1 15//1 14//1
f 14//1 16//1 17//1
f 16//1 18//1 17//1
f 17//1 18//1 19//1
f 18//1 20//1 19//1
f 19//1 20//1 21//1
f 20//1 22//1 21//1
f 21//1 22//1 23//1
f 22//1 24//1 23//1
f 23//1 24//1 25//1
f 24//1 26//1 25//1
f 25//1 26//1 27//1
f 26//1 28//1 27//1
f 27//1 28//1 29//1
f 28//1 30//1 29//1
f 29//1 31//1 32//1
f 31//1 33//1 32//1
f 32//1 33//1 34//1
f 33//1 35//1 34//1
f 34//1 35//1 36//1
f 35//1 37//1 36//1
f 36//1 37//1 38//1
f 37//1 39//1 38//1
f 38//1 39//1 40//1
f 39//1 41//1 40//1
f 40//1 41//1 42//1
f 41//1 43//1 42//1
f 42//1 43//1 44//1
f 43//1 45//1 44//1
f 44//1 46//1 2//1
f 46//1 47//1 2//1
f 2//1 47//1 4//1
f 46//1 44//1 45//1
f 31//1 29//1 30//1
f 16//1 14//1 15//1
f 5//1 3//1 4//1
f 48//2 49//2 50//2
f 48//2 50//2 51//2
f 49//3 52//3 53//3
f 49//3 53//3 50//3
f 52//4 54//4 55//4
f 52//4 55//4 53//4
f 54//5 56//5 57//5
f 54//5 57//5 55//5
f 56//6 58//6 59//6
f 56//6 59//6 57//6
f 58//7 60//7 61//7
f 58//7 61//7 59//7
f 60//8 62//8 63//8
f 60//8 63//8 61//8
f 62//9 64//9 65//9
f 62//9 65//9 63//9
f 64//10 66//10 67//10
f 64//10 67//10 65//10
f 66//11 68//11 69//11
f 66//11 69//11 67//11
f 68//12 70//12 71//12
f 68//12 71//12 69//12
f 69//1 51//1 67//1
f 51//1 50//1 67//1
f 67//1 50//1 65//1
f 50//1 53//1 65//1
f 65//1 53//1 63//1
f 53//1 55//1 63//1
f 63//1 55//1 61//1
f 55//1 57//1 61//1
f 61//1 57//1 59//1
f 72//13 73//13 74//13
f 73//13 75//13 74//13
f 74//13 75//13 76//13
f 75//13 77//13 76//13
f 76//13 77//13 78//13
f 77//13 79//13 78//13
f 78//13 79//13 80//13
f 79//13 81//13 80//13
f 80//13 81//13 82//13
f 81//13 83//13 82//13
f 82//13 83//13 84//13
f 83//13 85//13 84//13
f 84//13 85//13 86//13
f 85//13 87//13 86//13
f 86//13 87//13 88//13
f 87//13 89//13 88//13
f 88//13 89//13 90//13
f 89//13 91//13 90//13
f 90//13 91//13 92//13
f 91//13 93//13 92//13
f 94//14 95//14 96//14
f 96//14 95//14 97//14
f 95//15 98//15 97//15
f 97//15 98//15 99//15
f 98//16 100//16 99//16
f 99//16 100//16 101//16
f 100//17 102//17 103//17
f 100//17 103//17 101//17
f 102//18 104//18 105//18
f 102//18 105//18 103//18
f 104//19 106//19 107//19
f 104//19 107//19 105//19
f 106//20 108//20 109//20
f 106//20 109//20 107//20
f 108//21 110//21 111//21
f 108//21 111//21 109//21
f 110//22 112//22 113//22
f 110//22 113//22 111//22
f 112//23 114//23 113//23
f 113//23 114//23 115//23
f 114//24 116//24 117//24
f 114//24 117//24 115//24
f 116//25 118//25 117//25
f 117//25 118//25 119//25
f 118//26 120//26 119//26
f 119//26 120//26 121//26
f 120//27 122//27 121//27
f 121//27 122//27 123//27
f 122//28 124//28 125//28
f 122//28 125//28 123//28
f 124//29 126//29 127//29
f 124//29 127//29 125//29
f 126//30 128//30 129//30
f 126//30 129//30 127//30
f 128//31 130//31 131//31
f 128//31 131//31 129//31
f 130//32 132//32 133//32
f 130//32 133//32 131//32
f 132//33 134//33 135//33
f 132//33 135//33 133//33
f 136//34 73//34 72//34
f 72//35 74//35 94//35
f 74//36 76//36 95//36
f 76//37 78//37 98//37
f 78//38 80//38 100//38
f 80//39 82//39 102//39
f 82//40 84//40 104//40
f 84//41 86//41 106//41
f 86//42 88//42 108//42
f 88//43 90//43 110//43
f 90//44 92//44 112//44
f 92//45 93//45 114//45
f 93//46 91//46 116//46
f 91//47 89//47 118//47
f 89//48 87//48 120//48
f 87//49 85//49 122//49
f 85//50 83//50 124//50
f 83//51 81//51 126//51
f 81//52 79//52 128//52
f 79//53 77//53 130//53
f 77//54 75//54 132//54
f 75//55 73//55 136//55
f 136//56 137//56 134//56
f 137//57 2//57 1//57
f 1//58 3//58 133//58
f 3//59 6//59 131//59
f 6//60 8//60 129//60
f 8//61 10//61 127//61
f 10//62 12//62 125//62
f 12//63 14//63 123//63
f 14//64 17//64 121//64
f 17//65 19//65 119//65
f 19//66 21//66 117//66
f 21//67 23//67 115//67
f 23//68 25//68 113//68
f 25//69 27//69 111//69
f 27//70 29//70 109//70
f 29//71 32//71 107//71
f 32//72 34//72 105//72
f 34//73 36//73 103//73
f 36//74 38//74 101//74
f 38//75 40//75 99//75
f 40//76 42//76 97//76
f 42//77 44//77 96//77
f 44//78 2//78 137//78
f 137//79 136//79 94//79
f 95//35 94//35 74//35
f 98//36 95//36 76//36
f 100//37 98//37 78//37
f 102//38 100//38 80//38
f 104//39 102//39 82//39
f 106//40 104//40 84//40
f 108//41 106//41 86//41
f 94//79 96//79 137//79
f 96//77 97//77 42//77
f 97//76 99//76 40//76
f 99//75 101//75 38//75
f 101//74 103//74 36//74
f 103//73 105//73 34//73
f 105//72 107//72 32//72
f 107//71 109//71 29//71
f 110//42 108//42 88//42
f 112//43 110//43 90//43
f 114//44 112//44 92//44
f 116//45 114//45 93//45
f 118//46 116//46 91//46
f 120//47 118//47 89//47
f 122//48 120//48 87//48
f 124//49 122//49 85//49
f 109//70 111//70 27//70
f 111//69 113//69 25//69
f 113//68 115//68 23//68
f 115//67 117//67 21//67
f 117//66 119//66 19//66
f 119//65 121//65 17//65
f 121//64 123//64 14//64
f 123//63 125//63 12//63
f 126//50 124//50 83//50
f 128//51 126//51 81//51
f 130//52 128//52 79//52
f 132//53 130//53 77//53
f 134//54 132//54 75//54
f 135//56 134//56 137//56
f 125//62 127//62 10//62
f 127//61 129//61 8//61
f 129//60 131//60 6//60
f 131//59 133//59 3//59
f 133//58 135//58 1//58
f 136//34 72//34 94//34
f 75//55 136//55 134//55
f 137//57 1//57 135//57
f 96//78 44//78 137//78
f 138//80 139//80 140//80
f 138//80 140//80 141//80
f 139//81 142//81 143//81
f 139//81 143//81 140//81
f 142//82 144//82 145//82
f 142//82 145//82 143//82
f 144//83 146//83 147//83
f 144//83 147//83 145//83
f 146//84 148//84 149//84
f 146//84 149//84 147//84
f 148//85 150//85 149//85
f 149//85 150//85 151//85
f 150//86 152//86 153//86
f 150//86 153//86 151//86
f 152//87 154//87 155//87
f 152//87 155//87 153//87
f 154//88 156//88 157//88
f 154//88 157//88 155//88
f 156//89 158//89 159//89
f 156//89 159//89 157//89
f 158//90 160//90 161//90
f 158//90 161//90 159//90
f 160//91 162//91 163//91
f 160//91 163//91 161//91
f 162//92 164//92 165//92
f 162//92 165//92 163//92
f 164//93 166//93 165//93
f 165//93 166//93 167//93
f 166//94 168//94 167//94
f 167//94 168//94 169//94
f 168//95 170//95 169//95
f 169//95 170//95 171//95
f 170//96 172//96 171//96
f 171//96 172//96 173//96
f 172//97 174//97 175//97
f 172//97 175//97 173//97
f 174//98 176//98 175//98
f 175//98 176//98 177//98
f 176//99 178//99 177//99
f 177//99 178//99 179//99
f 178//100 180//100 179//100
f 179//100 180//100 181//100
f 180//101 182//101 181//101
f 181//101 182//101 183//101
f 182//102 184//102 183//102
f 183//102 184//102 185//102
f 141//103 140//103 186//103
f 141//103 186//103 187//103
f 140//104 143//104 188//104
f 140//104 188//104 186//104
f 143//105 145//105 188//105
f 188//105 145//105 189//105
f 145//106 147//106 190//106
f 145//106 190//106 189//106
f 147//107 149//107 191//107
f 147//107 191//107 190//107
f 149//108 151//108 191//108
f 191//108 151//108 192//108
f 151//109 153//109 193//109
f 151//109 193//109 192//109
f 153//110 155//110 194//110
f 153//110 194//110 193//110
f 155//111 157//111 194//111
f 194//111 157//111 195//111
f 157//112 159//112 195//112
f 195//112 159//112 196//112
f 159//113 161//113 197//113
f 159//113 197//113 196//113
f 161//114 163//114 198//114
f 161//114 198//114 197//114
f 163//115 165//115 199//115
f 163//115 199//115 198//115
f 165//116 167//116 200//116
f 165//116 200//116 199//116
f 167//117 169//117 201//117
f 167//117 201//117 200//117
f 169//118 171//118 202//118
f 169//118 202//118 201//118
f 171//119 173//119 202//119
f 202//119 173//119 203//119
f 173//120 175//120 204//120
f 173//120 204//120 203//120
f 175//121 177//121 205//121
f 175//121 205//121 204//121
f 177//122 179//122 205//122
f 205//122 179//122 206//122
f 179//123 181//123 207//123
f 179//123 207//123 206//123
f 181//124 183//124 207//124
f 207//124 183//124 208//124
f 183//125 185//125 208//125
f 208//125 185//125 209//125
f 210//126 47//126 46//126
f 46//127 45//127 138//127
f 45//128 43//128 139//128
f 43//129 41//129 142//129
f 41//130 39//130 144//130
f 39//131 37//131 146//131
f 37//132 35//132 148//132
f 35//133 33//133 150//133
f 33//134 31//134 152//134
f 31//135 30//135 154//135
f 30//136 28//136 156//136
f 28//137 26//137 158//137
f 26//138 24//138 160//138
f 24//139 22//139 162//139
f 22//140 20//140 164//140
f 20//141 18//141 166//141
f 18//142 16//142 168//142
f 16//143 15//143 170//143
f 15//144 13//144 172//144
f 13//145 11//145 174//145
f 11//146 9//146 176//146
f 9//147 7//147 178//147
f 7//148 5//148 180//148
f 5//149 4//149 182//149
f 4//150 47//150 210//150
f 210//151 211//151 184//151
f 211//152 212//152 185//152
f 212//153 213//153 209//153
f 213//154 68//154 209//154
f 68//155 66//155 207//155
f 66//156 64//156 204//156
f 64//157 62//157 202//157
f 62//158 60//158 200//158
f 60//159 58//159 197//159
f 58//160 56//160 195//160
f 56//161 54//161 193//161
f 54//162 52//162 191//162
f 52//163 49//163 188//163
f 49//164 213//164 187//164
f 213//165 212//165 187//165
f 212//166 211//166 141//166
f 211//167 210//167 138//167
f 139//127 138//127 45//127
f 142//128 139//128 43//128
f 144//129 142//129 41//129
f 146//130 144//130 39//130
f 148//131 146//131 37//131
f 150//132 148//132 35//132
f 152//133 150//133 33//133
f 138//167 141//167 211//167
f 141//166 187//166 212//166
f 186//168 188//168 49//168
f 189//169 190//169 52//169
f 191//170 192//170 54//170
f 154//134 152//134 31//134
f 156//135 154//135 30//135
f 158//136 156//136 28//136
f 160//137 158//137 26//137
f 162//138 160//138 24//138
f 164//139 162//139 22//139
f 166//140 164//140 20//140
f 168//141 166//141 18//141
f 194//171 195//171 56//171
f 196//172 197//172 58//172
f 198//173 199//173 60//173
f 200//174 201//174 62//174
f 170//142 168//142 16//142
f 172//143 170//143 15//143
f 174//144 172//144 13//144
f 176//145 174//145 11//145
f 178//146 176//146 9//146
f 180//147 178//147 7//147
f 182//148 180//148 5//148
f 184//149 182//149 4//149
f 203//175 204//175 64//175
f 205//176 206//176 66//176
f 207//177 208//177 68//177
f 185//151 184//151 211//151
f 209//152 185//152 212//152
f 210//126 46//126 138//126
f 4//150 210//150 184//150
f 209//178 68//178 208//178
f 207//179 66//179 206//179
f 66//180 204//180 205//180
f 64//181 202//181 203//181
f 202//182 62//182 201//182
f 200//183 60//183 199//183
f 60//159 197//159 198//159
f 58//184 195//184 196//184
f 56//185 193//185 194//185
f 193//186 54//186 192//186
f 191//187 52//187 190//187
f 52//188 188//188 189//188
f 49//189 187//189 186//189
