# Blender v3.1.2 OBJ File: ''
# www.blender.org
mtllib Втулка.mtl
o Втулка
v -4.000000 0.000000 -0.000000
v -3.603875 0.000000 1.735535
v -3.603875 14.136960 1.735535
v -4.000000 14.136960 -0.000000
v -2.493959 0.000000 3.127326
v -2.493959 14.136960 3.127326
v -0.890084 0.000000 3.899712
v -0.890084 14.136960 3.899712
v 0.890084 0.000000 3.899712
v 0.890084 14.136960 3.899712
v 2.493959 0.000000 3.127326
v 2.493959 14.136960 3.127326
v 3.603875 0.000000 1.735535
v 3.603875 14.136960 1.735535
v 4.000000 0.000000 0.000000
v 4.000000 14.136960 0.000000
v 3.603875 0.000000 -1.735535
v 3.603875 14.136960 -1.735535
v 2.493959 0.000000 -3.127326
v 2.493959 14.136960 -3.127326
v 0.890084 0.000000 -3.899712
v 0.890084 14.136960 -3.899712
v -0.890084 0.000000 -3.899712
v -0.890084 14.136960 -3.899712
v -2.493959 0.000000 -3.127326
v -2.493959 14.136960 -3.127326
v -3.603875 0.000000 -1.735535
v -3.603875 14.136960 -1.735535
v -4.000000 0.000000 -0.000000
v -4.000000 14.136960 -0.000000
v -2.585057 20.000000 -1.356743
v -2.919464 20.000000 0.000000
v -1.658445 20.000000 -2.402672
v -2.585057 20.000000 1.356743
v -0.351903 20.000000 -2.898178
v -1.658445 20.000000 2.402672
v 1.035256 20.000000 -2.729747
v -0.351903 20.000000 2.898178
v 2.185251 20.000000 -1.935963
v 1.035256 20.000000 2.729747
v 2.834630 20.000000 -0.698674
v 2.185251 20.000000 1.935963
v 2.834630 20.000000 0.698674
v -4.000000 14.136960 -0.000000
v -3.099096 14.136960 -1.626531
v -1.988227 14.136960 -2.880444
v -0.421878 14.136960 -3.474481
v 1.241117 14.136960 -3.272557
v 2.619788 14.136960 -2.320929
v 3.398296 14.136960 -0.837605
v 3.398296 14.136960 0.837605
v 2.619788 14.136960 2.320929
v 1.241117 14.136960 3.272557
v -0.421878 14.136960 3.474481
v -1.988227 14.136960 2.880444
v -3.099096 14.136960 1.626531
v -3.500000 14.136960 0.000000
v -3.099096 18.101154 -1.626531
v -3.500000 18.101154 0.000000
v -2.919464 20.000000 0.000000
v -1.988227 18.101154 -2.880444
v -0.421878 18.101154 -3.474481
v 1.241117 18.101154 -3.272557
v 2.619788 18.101154 -2.320929
v 3.398296 18.101154 -0.837605
v 3.398296 18.101154 0.837605
v 2.619788 18.101154 2.320929
v 1.241117 18.101154 3.272557
v -0.421878 18.101154 3.474481
v -1.988227 18.101154 2.880444
v -3.099096 18.101154 1.626531
v -2.919464 20.000000 0.000000
v -3.500000 18.101154 0.000000
v -2.103134 0.000000 1.351602
v -1.038538 0.000000 2.274080
v 0.355787 0.000000 2.474554
v 1.637152 0.000000 1.889374
v 2.398732 0.000000 0.704331
v 2.398732 0.000000 -0.704331
v 1.637152 0.000000 -1.889374
v 0.355787 0.000000 -2.474554
v -1.038538 0.000000 -2.274080
v -2.103134 0.000000 -1.351602
v -2.500000 0.000000 -0.000000
v -3.500000 14.136960 0.000000
v -3.500000 18.101154 0.000000
v -3.500000 18.101154 0.000000
v -3.500000 14.136960 0.000000
v -2.103134 15.000000 1.351602
v -2.500000 15.000000 -0.000000
v -1.038538 15.000000 2.274080
v 0.355787 15.000000 2.474554
v 1.637152 15.000000 1.889374
v 2.398732 15.000000 0.704331
v 2.398732 15.000000 -0.704331
v 1.637152 15.000000 -1.889374
v 0.355787 15.000000 -2.474554
v -1.038538 15.000000 -2.274080
v -2.103134 15.000000 -1.351602
v -2.500000 15.000000 -0.000000
v -2.500000 0.000000 -0.000000
v -2.500000 15.000000 -0.000000
vn -0.9749 0.0000 0.2225
vn -0.7818 0.0000 0.6235
vn -0.4339 0.0000 0.9010
vn 0.0000 0.0000 1.0000
vn 0.4339 0.0000 0.9010
vn 0.7818 0.0000 0.6235
vn 0.9749 0.0000 0.2225
vn 0.9749 0.0000 -0.2225
vn 0.7818 0.0000 -0.6235
vn 0.4339 0.0000 -0.9010
vn 0.0000 0.0000 -1.0000
vn -0.4339 0.0000 -0.9010
vn -0.7818 0.0000 -0.6235
vn -0.9749 0.0000 -0.2225
vn 0.0000 1.0000 -0.0000
vn -0.9308 0.2846 -0.2294
vn -0.7176 0.2846 -0.6357
vn -0.3399 0.2846 -0.8964
vn 0.1156 0.2846 -0.9517
vn 0.5446 0.2846 -0.7890
vn 0.8488 0.2846 -0.4455
vn 0.9587 0.2846 0.0000
vn 0.8488 0.2846 0.4455
vn 0.5446 0.2846 0.7890
vn 0.1156 0.2846 0.9517
vn -0.3399 0.2846 0.8964
vn -0.7176 0.2846 0.6357
vn -0.9308 0.2846 0.2294
vn 0.0000 -1.0000 0.0000
vn -0.9709 0.0000 -0.2393
vn -0.7485 0.0000 -0.6631
vn -0.3546 0.0000 -0.9350
vn 0.1205 0.0000 -0.9927
vn 0.5681 0.0000 -0.8230
vn 0.8855 0.0000 -0.4647
vn 1.0000 0.0000 0.0000
vn 0.8855 0.0000 0.4647
vn 0.5681 0.0000 0.8230
vn 0.1205 0.0000 0.9927
vn -0.3546 0.0000 0.9350
vn -0.7485 0.0000 0.6631
vn -0.9709 0.0000 0.2393
vn 0.9595 0.0000 -0.2817
vn 0.6549 0.0000 -0.7557
vn 0.1423 0.0000 -0.9898
vn -0.4154 0.0000 -0.9096
vn -0.8413 0.0000 -0.5406
vn -1.0000 0.0000 0.0000
vn -0.8413 0.0000 0.5406
vn -0.4154 0.0000 0.9096
vn 0.1423 0.0000 0.9898
vn 0.6549 0.0000 0.7557
vn 0.9595 0.0000 0.2817
usemtl None
s off
f 1//1 2//1 3//1
f 1//1 3//1 4//1
f 2//2 5//2 6//2
f 2//2 6//2 3//2
f 5//3 7//3 8//3
f 5//3 8//3 6//3
f 7//4 9//4 10//4
f 7//4 10//4 8//4
f 9//5 11//5 12//5
f 9//5 12//5 10//5
f 11//6 13//6 14//6
f 11//6 14//6 12//6
f 13//7 15//7 16//7
f 13//7 16//7 14//7
f 15//8 17//8 18//8
f 15//8 18//8 16//8
f 17//9 19//9 20//9
f 17//9 20//9 18//9
f 19//10 21//10 22//10
f 19//10 22//10 20//10
f 21//11 23//11 24//11
f 21//11 24//11 22//11
f 23//12 25//12 26//12
f 23//12 26//12 24//12
f 25//13 27//13 28//13
f 25//13 28//13 26//13
f 27//14 29//14 30//14
f 27//14 30//14 28//14
f 31//15 32//15 33//15
f 32//15 34//15 33//15
f 33//15 34//15 35//15
f 34//15 36//15 35//15
f 35//15 36//15 37//15
f 36//15 38//15 37//15
f 37//15 38//15 39//15
f 38//15 40//15 39//15
f 39//15 40//15 41//15
f 40//15 42//15 41//15
f 41//15 42//15 43//15
f 28//15 44//15 26//15
f 44//15 45//15 26//15
f 26//15 46//15 24//15
f 46//15 47//15 24//15
f 24//15 47//15 22//15
f 47//15 48//15 22//15
f 22//15 48//15 20//15
f 48//15 49//15 20//15
f 20//15 49//15 18//15
f 49//15 50//15 18//15
f 18//15 50//15 16//15
f 50//15 51//15 16//15
f 16//15 51//15 14//15
f 51//15 52//15 14//15
f 14//15 52//15 12//15
f 52//15 53//15 12//15
f 12//15 53//15 10//15
f 53//15 54//15 10//15
f 10//15 54//15 8//15
f 54//15 55//15 8//15
f 8//15 55//15 6//15
f 55//15 56//15 6//15
f 6//15 56//15 3//15
f 56//15 57//15 3//15
f 3//15 57//15 44//15
f 46//15 26//15 45//15
f 45//15 44//15 57//15
f 31//16 58//16 59//16
f 60//16 31//16 59//16
f 33//17 61//17 58//17
f 31//17 33//17 58//17
f 35//18 62//18 61//18
f 33//18 35//18 61//18
f 37//19 63//19 62//19
f 35//19 37//19 62//19
f 39//20 64//20 63//20
f 37//20 39//20 63//20
f 41//21 65//21 64//21
f 39//21 41//21 64//21
f 43//22 66//22 65//22
f 41//22 43//22 65//22
f 42//23 67//23 66//23
f 43//23 42//23 66//23
f 40//24 68//24 67//24
f 42//24 40//24 67//24
f 38//25 69//25 68//25
f 40//25 38//25 68//25
f 36//26 70//26 69//26
f 38//26 36//26 69//26
f 34//27 71//27 70//27
f 36//27 34//27 70//27
f 72//28 73//28 71//28
f 34//28 72//28 71//28
f 2//29 1//29 5//29
f 1//29 27//29 5//29
f 5//29 27//29 7//29
f 27//29 74//29 7//29
f 7//29 75//29 9//29
f 75//29 76//29 9//29
f 9//29 76//29 11//29
f 76//29 77//29 11//29
f 11//29 77//29 13//29
f 77//29 78//29 13//29
f 13//29 78//29 15//29
f 78//29 79//29 15//29
f 15//29 79//29 17//29
f 79//29 80//29 17//29
f 17//29 80//29 19//29
f 80//29 81//29 19//29
f 19//29 81//29 21//29
f 81//29 82//29 21//29
f 21//29 82//29 23//29
f 82//29 83//29 23//29
f 23//29 83//29 25//29
f 83//29 84//29 25//29
f 25//29 84//29 27//29
f 75//29 7//29 74//29
f 74//29 27//29 84//29
f 58//30 45//30 85//30
f 86//30 58//30 85//30
f 61//31 46//31 45//31
f 58//31 61//31 45//31
f 62//32 47//32 46//32
f 61//32 62//32 46//32
f 63//33 48//33 47//33
f 62//33 63//33 47//33
f 64//34 49//34 48//34
f 63//34 64//34 48//34
f 65//35 50//35 49//35
f 64//35 65//35 49//35
f 66//36 51//36 50//36
f 65//36 66//36 50//36
f 67//37 52//37 51//37
f 66//37 67//37 51//37
f 68//38 53//38 52//38
f 67//38 68//38 52//38
f 69//39 54//39 53//39
f 68//39 69//39 53//39
f 70//40 55//40 54//40
f 69//40 70//40 54//40
f 71//41 56//41 55//41
f 70//41 71//41 55//41
f 87//42 88//42 56//42
f 71//42 87//42 56//42
f 89//43 74//43 84//43
f 90//43 89//43 84//43
f 91//44 75//44 74//44
f 89//44 91//44 74//44
f 92//45 76//45 75//45
f 91//45 92//45 75//45
f 93//46 77//46 76//46
f 92//46 93//46 76//46
f 94//47 78//47 77//47
f 93//47 94//47 77//47
f 95//48 79//48 78//48
f 94//48 95//48 78//48
f 96//49 80//49 79//49
f 95//49 96//49 79//49
f 97//50 81//50 80//50
f 96//50 97//50 80//50
f 98//51 82//51 81//51
f 97//51 98//51 81//51
f 99//52 83//52 82//52
f 98//52 99//52 82//52
f 100//53 101//53 83//53
f 99//53 100//53 83//53
f 89//29 102//29 91//29
f 102//29 99//29 91//29
f 91//29 99//29 92//29
f 99//29 98//29 92//29
f 92//29 98//29 93//29
f 98//29 97//29 93//29
f 93//29 97//29 94//29
f 97//29 96//29 94//29
f 94//29 96//29 95//29
