# Blender v3.1.2 OBJ File: ''
# www.blender.org
mtllib Датчик положения коленчатого вала.mtl
o Датчик_положения_коленчатого_вала
v 13.642932 -10.936952 -7.000000
v 15.556349 -10.556349 -7.000000
v 12.020815 -12.020815 -7.000000
v 15.556349 -10.937547 -7.000000
v 11.556349 -13.246948 -7.000000
v 10.936952 -13.642932 -7.000000
v 11.556349 -17.865749 -7.000001
v 10.556349 -15.556349 -7.000000
v 19.556349 -13.246948 -7.000000
v 17.469767 -10.936952 -7.000000
v 19.091883 -12.020815 -7.000000
v 20.175747 -13.642932 -7.000000
v 20.556349 -15.556349 -7.000000
v 19.556349 -17.865749 -7.000001
v 20.175747 -17.469767 -7.000001
v 19.091883 -19.091883 -7.000001
v 17.469767 -20.175747 -7.000001
v 15.556349 -20.175152 -7.000001
v 15.556349 -20.556349 -7.000001
v 13.642932 -20.175747 -7.000001
v 12.020815 -19.091883 -7.000001
v 10.936952 -17.469767 -7.000001
v 19.556349 -17.865749 -11.000001
v 15.556349 -20.175152 -11.000001
v 19.556349 -13.246947 -11.000001
v 15.556349 -10.937546 -11.000001
v 11.556349 -13.246947 -11.000001
v 11.556349 -17.865749 -11.000001
v 15.556349 -10.556349 -6.000000
v 17.469767 -10.936952 -6.000000
v 19.091883 -12.020815 -6.000000
v 20.175747 -13.642932 -6.000000
v 20.556349 -15.556349 -6.000000
v 20.175747 -17.469767 -6.000001
v 19.091883 -19.091883 -6.000001
v 17.469767 -20.175747 -6.000001
v 15.556349 -20.556349 -6.000001
v 13.642932 -20.175747 -6.000001
v 12.020815 -19.091883 -6.000001
v 10.936952 -17.469767 -6.000001
v 10.556349 -15.556349 -6.000000
v 10.936952 -13.642932 -6.000000
v 12.020815 -12.020815 -6.000000
v 13.642932 -10.936952 -6.000000
v 15.556349 -26.870058 -6.000001
v 26.870058 -15.556349 -6.000000
v 11.724143 7.651436 -6.000000
v 11.373262 8.163877 -6.000000
v 11.000000 8.660254 -6.000000
v 11.000000 -10.000000 -6.000000
v -9.797959 -10.000000 -6.000000
v -8.767183 -10.914967 -6.000000
v -7.651435 -11.724143 -6.000000
v -7.651435 -11.724143 -0.000001
v -10.190847 -9.599303 -0.000000
v -12.160219 -6.937512 -0.000000
v -11.649291 -7.764923 -6.000000
v -13.449390 -3.887660 -0.000000
v -13.000000 -5.196152 -6.000000
v -13.986249 -0.620346 -0.000000
v -13.887691 -1.769758 -6.000000
v -13.740767 2.681668 0.000000
v -13.887691 1.769758 -6.000000
v -12.726673 5.833678 0.000000
v -13.000000 5.196153 -6.000000
v -11.000693 8.659373 0.000000
v -11.649291 7.764924 -6.000000
v -8.659373 11.000693 0.000000
v -9.797959 10.000000 -6.000000
v -5.833678 12.726673 0.000001
v -6.917354 12.171697 -6.000000
v -2.681668 13.740767 0.000001
v -3.577446 13.535209 -6.000000
v 0.620346 13.986249 0.000001
v -0.000000 14.000000 -6.000000
v 3.887660 13.449390 0.000001
v 3.577446 13.535209 -6.000000
v 6.937512 12.160219 0.000001
v 6.917354 12.171697 -6.000000
v 9.599303 10.190847 0.000000
v 11.724143 7.651435 0.000000
v 10.420533 9.349465 -6.000000
v 9.797959 10.000000 -6.000000
v -13.000000 -10.000000 -6.000000
v -13.000000 -9.999999 -25.000000
v 11.000000 -9.999999 -25.000000
v 11.000000 10.000000 -6.000000
v 11.000000 10.000001 -25.000000
v 11.000000 7.535535 -21.464466
v 11.000000 8.619399 -23.086582
v 11.000000 9.543278 -27.296101
v 11.000000 9.000001 -25.000000
v 11.000000 8.242641 -29.242641
v 11.000000 8.619399 -26.913418
v 11.000000 6.296102 -30.543278
v 11.000000 7.535535 -28.535534
v 11.000000 4.000001 -31.000000
v 11.000000 5.913419 -29.619398
v 11.000000 4.000001 -30.000000
v 11.000000 -3.999999 -31.000000
v 11.000000 -3.999999 -30.000000
v 11.000000 -6.296099 -30.543278
v 11.000000 -5.913416 -29.619398
v 11.000000 -8.242640 -29.242641
v 11.000000 -7.535532 -28.535534
v 11.000000 -9.543276 -27.296101
v 11.000000 -8.619397 -26.913418
v 11.000000 -8.999999 -25.000000
v 11.000000 -8.619397 -23.086582
v 11.000000 -7.535533 -21.464466
v 11.000000 -5.913416 -20.380602
v 11.000000 5.913418 -20.380602
v 11.000000 4.000001 -20.000000
v 11.000000 -3.999999 -20.000000
v 26.870058 -15.556349 -0.000001
v 15.556349 -26.870058 -0.000001
v 14.778573 -18.711910 -0.000001
v 13.401200 -17.989010 -0.000001
v 12.517547 -16.708815 -0.000001
v 12.330046 -15.164605 -0.000001
v -3.288069 -8.377864 -0.000000
v -5.611408 -7.036483 -0.000000
v -7.436149 -5.069880 -0.000000
v -8.600155 -2.652797 -0.000000
v -9.000000 -0.000000 -0.000000
v -8.600155 2.652797 0.000000
v -7.436149 5.069880 0.000000
v -5.611408 7.036483 0.000000
v -3.288069 8.377864 0.000000
v -0.672571 8.974834 0.000000
v 2.002688 8.774351 0.000000
v 4.500000 7.794229 0.000000
v 6.597467 6.121555 0.000000
v 8.108720 3.904954 0.000000
v 8.899477 1.341380 0.000000
v 18.595152 -16.708815 -0.000001
v 17.711498 -17.989010 -0.000001
v 16.334126 -18.711910 -0.000001
v 18.782654 -15.164605 -0.000001
v 18.231047 -13.710138 -0.000001
v 17.066700 -12.678617 -0.000001
v 8.899477 -1.341380 -0.000000
v 15.556349 -12.306349 -0.000001
v 8.108720 -3.904954 -0.000000
v 14.045999 -12.678617 -0.000001
v 6.597467 -6.121555 -0.000000
v 12.881652 -13.710138 -0.000001
v 4.500000 -7.794229 -0.000000
v 2.002688 -8.774351 -0.000000
v -0.672571 -8.974834 -0.000000
v -13.000000 10.000000 -6.000000
v -13.000000 -9.543276 -27.296101
v -13.000000 -8.242640 -29.242641
v -13.000000 -6.296099 -30.543278
v -13.000000 -3.999999 -31.000000
v -13.000000 10.000001 -25.000000
v -13.000000 4.000001 -31.000000
v -13.000000 9.543278 -27.296101
v -13.000000 6.296102 -30.543278
v -13.000000 8.242641 -29.242641
v 0.000000 5.913419 -29.619398
v 0.000000 4.000001 -30.000000
v 0.000000 7.535535 -28.535534
v 0.000000 8.619399 -26.913418
v 0.000000 9.000001 -25.000000
v 0.000000 8.619399 -23.086582
v 0.000000 7.535535 -21.464466
v 0.000000 5.913418 -20.380602
v 0.000000 4.000001 -20.000000
v 0.000000 -3.999999 -30.000000
v 0.000000 -5.913416 -20.380602
v 0.000000 -3.999999 -20.000000
v 0.000000 -7.535533 -21.464466
v 0.000000 -8.619397 -23.086582
v 0.000000 -8.999999 -25.000000
v 0.000000 -8.619397 -26.913418
v 0.000000 -7.535532 -28.535534
v 0.000000 -5.913416 -29.619398
v 15.556349 -12.306350 13.499999
v 17.066700 -12.678618 13.499999
v 15.556349 -12.306349 -0.000001
v 18.231047 -13.710139 13.499999
v 18.231047 -13.710138 -0.000001
v 18.782654 -15.164606 13.499999
v 18.782654 -15.164605 -0.000001
v 18.595152 -16.708815 13.499999
v 18.595152 -16.708815 -0.000001
v 17.711498 -17.989010 13.499999
v 17.711498 -17.989010 -0.000001
v 16.334126 -18.711910 13.499999
v 14.778573 -18.711910 13.499999
v 14.778573 -18.711910 -0.000001
v 13.401200 -17.989010 13.499999
v 13.401200 -17.989010 -0.000001
v 12.517547 -16.708815 13.499999
v 12.517547 -16.708815 -0.000001
v 12.330046 -15.164606 13.499999
v 12.330046 -15.164605 -0.000001
v 12.881652 -13.710139 13.499999
v 12.881652 -13.710138 -0.000001
v 14.045999 -12.678618 13.499999
v 14.045999 -12.678617 -0.000001
v -9.000000 -0.000001 33.000000
v -8.600155 2.652795 33.000000
v -9.000000 -0.000000 -0.000000
v -7.436149 5.069879 33.000000
v -5.611408 7.036482 33.000000
v -3.288069 8.377862 33.000000
v -0.672571 8.974833 33.000000
v 2.002688 8.774349 33.000000
v 4.500000 7.794227 33.000000
v 6.597467 6.121553 33.000000
v 8.108720 3.904952 33.000000
v 8.899477 1.341379 33.000000
v 8.899477 -1.341382 33.000000
v 8.108720 -3.904955 33.000000
v 6.597467 -6.121556 33.000000
v 4.500000 -7.794230 33.000000
v 2.002688 -8.774353 33.000000
v -0.672571 -8.974836 33.000000
v -3.288069 -8.377866 33.000000
v -5.611408 -7.036485 33.000000
v -7.436149 -5.069882 33.000000
v -8.600155 -2.652798 33.000000
v -9.000000 -0.000001 33.000000
v -9.000000 -0.000000 -0.000000
v 16.834337 -13.121346 13.999999
v 15.556349 -12.806350 13.999999
v 17.819555 -13.994172 13.999999
v 14.278360 -13.121346 13.999999
v 18.286299 -15.224874 13.999999
v 13.293143 -13.994172 13.999999
v 18.127644 -16.531513 13.999999
v 12.826400 -15.224874 13.999999
v 17.379936 -17.614754 13.999999
v 12.985055 -16.531513 13.999999
v 16.214468 -18.226439 13.999999
v 13.732762 -17.614754 13.999999
v 14.898232 -18.226439 13.999999
v -9.000000 -0.000001 33.000000
v -3.500000 1.499999 33.000000
v 3.500000 1.499999 33.000000
v -3.500000 -1.500001 33.000000
v 3.500000 -1.500001 33.000000
v 3.500000 1.499999 34.000000
v -3.500000 1.499999 34.000000
v 3.500000 -1.500001 34.000000
v -3.500000 -1.500001 34.000000
vn 0.0000 0.0000 -1.0000
vn 0.5000 -0.8660 0.0000
vn 1.0000 0.0000 0.0000
vn 0.5000 0.8660 0.0000
vn -0.5000 0.8660 0.0000
vn -1.0000 -0.0000 0.0000
vn -0.5000 -0.8660 0.0000
vn 0.1951 0.9808 0.0000
vn 0.5556 0.8315 0.0000
vn 0.8315 0.5556 0.0000
vn 0.9808 0.1951 0.0000
vn 0.9808 -0.1951 0.0000
vn 0.8315 -0.5556 0.0000
vn 0.5556 -0.8315 0.0000
vn 0.1951 -0.9808 0.0000
vn -0.1951 -0.9808 0.0000
vn -0.5556 -0.8315 0.0000
vn -0.8315 -0.5556 0.0000
vn -0.9808 -0.1951 0.0000
vn -0.9808 0.1951 0.0000
vn -0.8315 0.5556 0.0000
vn -0.5556 0.8315 0.0000
vn -0.1951 0.9808 0.0000
vn -0.5871 -0.8095 0.0000
vn -0.6416 -0.7668 0.0159
vn -0.8038 -0.5947 0.0136
vn -0.9210 -0.3893 0.0159
vn -0.9867 -0.1621 0.0148
vn -0.9972 0.0741 0.0132
vn -0.9519 0.3062 0.0108
vn -0.8533 0.5212 0.0145
vn -0.7070 0.7070 0.0162
vn -0.5212 0.8533 0.0152
vn -0.3062 0.9519 0.0131
vn -0.0741 0.9972 0.0100
vn 0.1621 0.9868 0.0057
vn 0.3893 0.9211 0.0005
vn 0.5948 0.8039 -0.0005
vn 0.7668 0.6417 0.0153
vn 0.8251 0.5650 0.0000
vn 0.7992 0.6010 0.0046
vn 0.7653 0.6435 0.0145
vn 0.7225 0.6914 0.0019
vn 0.6020 0.7985 -0.0055
vn 0.3780 0.9258 -0.0063
vn 0.1288 0.9916 -0.0110
vn -0.1288 0.9916 -0.0147
vn -0.3779 0.9257 -0.0174
vn -0.6019 0.7984 -0.0189
vn -0.7701 0.6379 -0.0118
vn -0.8851 0.4654 -0.0091
vn -0.9679 0.2508 -0.0144
vn -0.9999 0.0000 -0.0164
vn -0.9679 -0.2508 -0.0178
vn -0.8850 -0.4654 -0.0112
vn -0.7701 -0.6379 -0.0078
vn -0.6638 -0.7479 0.0065
vn 0.0000 -1.0000 0.0000
vn 0.8374 0.5465 0.0000
vn 0.7071 -0.7071 0.0000
vn -0.5465 -0.8374 0.0000
vn 0.0000 -0.0000 1.0000
vn 0.0000 -0.9808 -0.1951
vn 0.0000 -0.8315 -0.5556
vn 0.0000 -0.5556 -0.8315
vn 0.0000 -0.1951 -0.9808
vn 0.0000 0.1951 -0.9808
vn 0.0000 0.5556 -0.8315
vn 0.0000 0.8315 -0.5556
vn 0.0000 0.9808 -0.1951
vn 0.0000 1.0000 0.0000
vn 0.0000 -0.1951 0.9808
vn 0.0000 -0.5556 0.8315
vn 0.0000 -0.8315 0.5556
vn 0.0000 -0.9808 0.1951
vn 0.0000 0.9808 0.1951
vn 0.0000 0.8315 0.5556
vn 0.0000 0.5556 0.8315
vn 0.0000 0.1951 0.9808
vn 0.2393 0.9709 0.0000
vn 0.6631 0.7485 0.0000
vn 0.9350 0.3546 0.0000
vn 0.9927 -0.1205 0.0000
vn 0.8230 -0.5681 0.0000
vn 0.4647 -0.8855 0.0000
vn -0.4647 -0.8855 0.0000
vn -0.8230 -0.5681 0.0000
vn -0.9927 -0.1205 0.0000
vn -0.9350 0.3546 0.0000
vn -0.6631 0.7485 0.0000
vn -0.2393 0.9709 0.0000
vn -0.9888 0.1490 0.0000
vn -0.9010 0.4339 0.0000
vn -0.7331 0.6802 0.0000
vn -0.2225 0.9749 0.0000
vn 0.0747 0.9972 0.0000
vn 0.3653 0.9309 0.0000
vn 0.6235 0.7818 0.0000
vn 0.8262 0.5633 0.0000
vn 0.9556 0.2948 0.0000
vn 0.9556 -0.2948 -0.0000
vn 0.8262 -0.5633 -0.0000
vn 0.6235 -0.7818 -0.0000
vn 0.3653 -0.9309 -0.0000
vn 0.0747 -0.9972 -0.0000
vn -0.2225 -0.9749 -0.0000
vn -0.7331 -0.6802 -0.0000
vn -0.9010 -0.4339 -0.0000
vn -0.9888 -0.1490 -0.0000
vn 0.1717 0.6966 0.6966
vn 0.4758 0.5370 0.6966
vn 0.6708 0.2544 0.6966
vn 0.7122 -0.0865 0.6966
vn 0.5905 -0.4076 0.6966
vn 0.3334 -0.6353 0.6966
vn 0.0000 -0.7175 0.6966
vn -0.3334 -0.6353 0.6966
vn -0.5905 -0.4076 0.6966
vn -0.7122 -0.0865 0.6966
vn -0.6708 0.2544 0.6966
vn -0.4758 0.5370 0.6966
vn -0.1717 0.6966 0.6966
usemtl None
s off
f 1//1 2//1 3//1
f 2//1 4//1 3//1
f 3//1 5//1 6//1
f 5//1 7//1 6//1
f 6//1 7//1 8//1
f 4//1 2//1 9//1
f 2//1 10//1 9//1
f 10//1 11//1 9//1
f 11//1 12//1 9//1
f 12//1 13//1 9//1
f 9//1 13//1 14//1
f 13//1 15//1 14//1
f 15//1 16//1 14//1
f 16//1 17//1 14//1
f 14//1 17//1 18//1
f 17//1 19//1 18//1
f 18//1 19//1 7//1
f 19//1 20//1 7//1
f 20//1 21//1 7//1
f 21//1 22//1 7//1
f 7//1 22//1 8//1
f 5//1 3//1 4//1
f 23//2 14//2 18//2
f 23//2 18//2 24//2
f 25//3 9//3 14//3
f 25//3 14//3 23//3
f 26//4 4//4 9//4
f 26//4 9//4 25//4
f 27//5 5//5 4//5
f 27//5 4//5 26//5
f 28//6 7//6 5//6
f 28//6 5//6 27//6
f 24//7 18//7 7//7
f 24//7 7//7 28//7
f 29//8 30//8 10//8
f 29//8 10//8 2//8
f 30//9 31//9 11//9
f 30//9 11//9 10//9
f 31//10 32//10 12//10
f 31//10 12//10 11//10
f 32//11 33//11 13//11
f 32//11 13//11 12//11
f 33//12 34//12 15//12
f 33//12 15//12 13//12
f 34//13 35//13 16//13
f 34//13 16//13 15//13
f 35//14 36//14 17//14
f 35//14 17//14 16//14
f 36//15 37//15 19//15
f 36//15 19//15 17//15
f 37//16 38//16 20//16
f 37//16 20//16 19//16
f 38//17 39//17 21//17
f 38//17 21//17 20//17
f 39//18 40//18 22//18
f 39//18 22//18 21//18
f 40//19 41//19 8//19
f 40//19 8//19 22//19
f 41//20 42//20 6//20
f 41//20 6//20 8//20
f 42//21 43//21 3//21
f 42//21 3//21 6//21
f 43//22 44//22 1//22
f 43//22 1//22 3//22
f 44//23 29//23 2//23
f 44//23 2//23 1//23
f 23//1 24//1 25//1
f 24//1 28//1 25//1
f 25//1 28//1 26//1
f 28//1 27//1 26//1
f 45//1 36//1 46//1
f 36//1 35//1 46//1
f 46//1 32//1 47//1
f 32//1 31//1 47//1
f 47//1 31//1 48//1
f 31//1 30//1 48//1
f 48//1 30//1 49//1
f 30//1 29//1 49//1
f 49//1 29//1 50//1
f 29//1 44//1 50//1
f 50//1 44//1 51//1
f 44//1 43//1 51//1
f 51//1 43//1 52//1
f 43//1 42//1 52//1
f 52//1 42//1 53//1
f 42//1 41//1 53//1
f 53//1 40//1 45//1
f 40//1 39//1 45//1
f 45//1 38//1 37//1
f 38//1 45//1 39//1
f 40//1 53//1 41//1
f 32//1 46//1 33//1
f 46//1 34//1 33//1
f 34//1 46//1 35//1
f 36//1 45//1 37//1
f 53//24 54//24 52//24
f 54//25 55//25 52//25
f 55//26 56//26 57//26
f 56//27 58//27 59//27
f 58//28 60//28 61//28
f 60//29 62//29 63//29
f 62//30 64//30 65//30
f 64//31 66//31 67//31
f 66//32 68//32 69//32
f 68//33 70//33 71//33
f 70//34 72//34 73//34
f 72//35 74//35 75//35
f 74//36 76//36 77//36
f 76//37 78//37 79//37
f 78//38 80//38 79//38
f 80//39 81//39 49//39
f 81//40 47//40 48//40
f 48//41 49//41 81//41
f 49//42 82//42 80//42
f 82//43 83//43 80//43
f 83//44 79//44 80//44
f 79//45 77//45 76//45
f 77//46 75//46 74//46
f 75//47 73//47 72//47
f 73//48 71//48 70//48
f 71//49 69//49 68//49
f 69//50 67//50 66//50
f 67//51 65//51 64//51
f 65//52 63//52 62//52
f 63//53 61//53 60//53
f 61//54 59//54 58//54
f 59//55 57//55 56//55
f 57//56 51//56 55//56
f 51//57 52//57 55//57
f 84//58 85//58 51//58
f 85//58 86//58 51//58
f 51//58 86//58 50//58
f 87//3 49//3 88//3
f 49//3 89//3 88//3
f 88//3 90//3 91//3
f 90//3 92//3 91//3
f 91//3 92//3 93//3
f 92//3 94//3 93//3
f 93//3 94//3 95//3
f 94//3 96//3 95//3
f 95//3 96//3 97//3
f 96//3 98//3 97//3
f 97//3 99//3 100//3
f 99//3 101//3 100//3
f 100//3 101//3 102//3
f 101//3 103//3 102//3
f 102//3 103//3 104//3
f 103//3 105//3 104//3
f 104//3 105//3 106//3
f 105//3 107//3 106//3
f 106//3 107//3 86//3
f 107//3 108//3 86//3
f 86//3 108//3 50//3
f 108//3 109//3 50//3
f 50//3 110//3 49//3
f 110//3 111//3 49//3
f 49//3 112//3 89//3
f 112//3 49//3 113//3
f 113//3 49//3 114//3
f 49//3 111//3 114//3
f 110//3 50//3 109//3
f 99//3 97//3 98//3
f 90//3 88//3 89//3
f 47//59 81//59 115//59
f 47//59 115//59 46//59
f 46//60 115//60 116//60
f 46//60 116//60 45//60
f 45//61 116//61 54//61
f 45//61 54//61 53//61
f 116//62 117//62 54//62
f 117//62 118//62 54//62
f 54//62 118//62 55//62
f 118//62 119//62 55//62
f 55//62 119//62 56//62
f 119//62 120//62 56//62
f 56//62 121//62 58//62
f 121//62 122//62 58//62
f 58//62 122//62 60//62
f 122//62 123//62 60//62
f 60//62 123//62 62//62
f 123//62 124//62 62//62
f 62//62 124//62 64//62
f 124//62 125//62 64//62
f 64//62 125//62 66//62
f 125//62 126//62 66//62
f 66//62 126//62 68//62
f 126//62 127//62 68//62
f 68//62 127//62 70//62
f 127//62 128//62 70//62
f 70//62 128//62 72//62
f 128//62 129//62 72//62
f 72//62 129//62 74//62
f 129//62 130//62 74//62
f 74//62 130//62 76//62
f 130//62 131//62 76//62
f 76//62 131//62 78//62
f 131//62 132//62 78//62
f 78//62 132//62 80//62
f 132//62 133//62 80//62
f 80//62 133//62 81//62
f 133//62 134//62 81//62
f 81//62 134//62 115//62
f 134//62 135//62 115//62
f 115//62 136//62 116//62
f 136//62 137//62 116//62
f 116//62 138//62 117//62
f 138//62 116//62 137//62
f 139//62 115//62 140//62
f 115//62 135//62 140//62
f 140//62 135//62 141//62
f 135//62 142//62 141//62
f 141//62 142//62 143//62
f 142//62 144//62 143//62
f 143//62 144//62 145//62
f 144//62 146//62 145//62
f 145//62 146//62 147//62
f 146//62 148//62 147//62
f 147//62 148//62 120//62
f 148//62 149//62 120//62
f 120//62 150//62 56//62
f 150//62 121//62 56//62
f 150//62 120//62 149//62
f 136//62 115//62 139//62
f 87//62 82//62 49//62
f 82//62 87//62 83//62
f 79//1 83//1 77//1
f 83//1 69//1 77//1
f 77//1 69//1 75//1
f 69//1 71//1 75//1
f 75//1 71//1 73//1
f 151//62 67//62 69//62
f 67//62 151//62 65//62
f 63//1 65//1 61//1
f 65//1 59//1 61//1
f 84//62 57//62 59//62
f 57//62 84//62 51//62
f 85//63 152//63 106//63
f 85//63 106//63 86//63
f 152//64 153//64 104//64
f 152//64 104//64 106//64
f 153//65 154//65 102//65
f 153//65 102//65 104//65
f 154//66 155//66 100//66
f 154//66 100//66 102//66
f 85//6 84//6 152//6
f 84//6 59//6 152//6
f 152//6 59//6 153//6
f 59//6 65//6 153//6
f 153//6 65//6 154//6
f 65//6 151//6 154//6
f 154//6 151//6 155//6
f 151//6 156//6 155//6
f 155//6 156//6 157//6
f 156//6 158//6 157//6
f 157//6 158//6 159//6
f 158//6 160//6 159//6
f 155//1 157//1 97//1
f 100//1 155//1 97//1
f 157//67 159//67 95//67
f 157//67 95//67 97//67
f 159//68 160//68 93//68
f 159//68 93//68 95//68
f 160//69 158//69 91//69
f 160//69 91//69 93//69
f 158//70 156//70 88//70
f 158//70 88//70 91//70
f 156//71 151//71 88//71
f 151//71 69//71 88//71
f 88//71 83//71 87//71
f 83//71 88//71 69//71
f 98//72 161//72 162//72
f 99//72 98//72 162//72
f 96//73 163//73 161//73
f 98//73 96//73 161//73
f 94//74 164//74 163//74
f 96//74 94//74 163//74
f 92//75 165//75 164//75
f 94//75 92//75 164//75
f 90//63 166//63 165//63
f 92//63 90//63 165//63
f 89//64 167//64 166//64
f 90//64 89//64 166//64
f 112//65 168//65 167//65
f 89//65 112//65 167//65
f 113//66 169//66 168//66
f 112//66 113//66 168//66
f 170//62 101//62 99//62
f 162//62 170//62 99//62
f 111//67 171//67 172//67
f 114//67 111//67 172//67
f 110//68 173//68 171//68
f 111//68 110//68 171//68
f 109//69 174//69 173//69
f 110//69 109//69 173//69
f 108//70 175//70 174//70
f 109//70 108//70 174//70
f 107//76 176//76 175//76
f 108//76 107//76 175//76
f 105//77 177//77 176//77
f 107//77 105//77 176//77
f 103//78 178//78 177//78
f 105//78 103//78 177//78
f 101//79 170//79 178//79
f 103//79 101//79 178//79
f 169//1 113//1 114//1
f 172//1 169//1 114//1
f 179//80 180//80 141//80
f 179//80 141//80 181//80
f 180//81 182//81 183//81
f 180//81 183//81 141//81
f 182//82 184//82 185//82
f 182//82 185//82 183//82
f 184//83 186//83 187//83
f 184//83 187//83 185//83
f 186//84 188//84 189//84
f 186//84 189//84 187//84
f 188//85 190//85 138//85
f 188//85 138//85 189//85
f 190//58 191//58 192//58
f 190//58 192//58 138//58
f 191//86 193//86 194//86
f 191//86 194//86 192//86
f 193//87 195//87 196//87
f 193//87 196//87 194//87
f 195//88 197//88 198//88
f 195//88 198//88 196//88
f 197//89 199//89 200//89
f 197//89 200//89 198//89
f 199//90 201//90 202//90
f 199//90 202//90 200//90
f 201//91 179//91 181//91
f 201//91 181//91 202//91
f 203//92 204//92 126//92
f 203//92 126//92 205//92
f 204//93 206//93 127//93
f 204//93 127//93 126//93
f 206//94 207//94 128//94
f 206//94 128//94 127//94
f 207//5 208//5 129//5
f 207//5 129//5 128//5
f 208//95 209//95 130//95
f 208//95 130//95 129//95
f 209//96 210//96 131//96
f 209//96 131//96 130//96
f 210//97 211//97 132//97
f 210//97 132//97 131//97
f 211//98 212//98 133//98
f 211//98 133//98 132//98
f 212//99 213//99 134//99
f 212//99 134//99 133//99
f 213//100 214//100 135//100
f 213//100 135//100 134//100
f 214//3 215//3 142//3
f 214//3 142//3 135//3
f 215//101 216//101 144//101
f 215//101 144//101 142//101
f 216//102 217//102 146//102
f 216//102 146//102 144//102
f 217//103 218//103 148//103
f 217//103 148//103 146//103
f 218//104 219//104 149//104
f 218//104 149//104 148//104
f 219//105 220//105 150//105
f 219//105 150//105 149//105
f 220//106 221//106 121//106
f 220//106 121//106 150//106
f 221//7 222//7 122//7
f 221//7 122//7 121//7
f 222//107 223//107 123//107
f 222//107 123//107 122//107
f 223//108 224//108 124//108
f 223//108 124//108 123//108
f 224//109 225//109 226//109
f 224//109 226//109 124//109
f 170//3 162//3 178//3
f 162//3 161//3 178//3
f 178//3 161//3 177//3
f 161//3 163//3 177//3
f 177//3 163//3 176//3
f 163//3 164//3 176//3
f 176//3 164//3 175//3
f 164//3 165//3 175//3
f 175//3 165//3 174//3
f 165//3 166//3 174//3
f 174//3 166//3 173//3
f 166//3 167//3 173//3
f 173//3 167//3 171//3
f 167//3 168//3 171//3
f 171//3 168//3 172//3
f 168//3 169//3 172//3
f 227//62 228//62 229//62
f 228//62 230//62 229//62
f 229//62 230//62 231//62
f 230//62 232//62 231//62
f 231//62 232//62 233//62
f 232//62 234//62 233//62
f 233//62 234//62 235//62
f 234//62 236//62 235//62
f 235//62 236//62 237//62
f 236//62 238//62 237//62
f 237//62 238//62 239//62
f 204//62 240//62 206//62
f 240//62 224//62 206//62
f 206//62 224//62 207//62
f 224//62 223//62 207//62
f 207//62 223//62 208//62
f 223//62 222//62 208//62
f 208//62 241//62 209//62
f 241//62 242//62 209//62
f 209//62 242//62 210//62
f 208//62 222//62 241//62
f 241//62 222//62 243//62
f 222//62 221//62 243//62
f 243//62 221//62 244//62
f 221//62 220//62 244//62
f 220//62 219//62 244//62
f 219//62 218//62 244//62
f 244//62 218//62 242//62
f 218//62 217//62 242//62
f 242//62 217//62 210//62
f 217//62 216//62 210//62
f 210//62 216//62 211//62
f 216//62 215//62 211//62
f 211//62 215//62 212//62
f 215//62 214//62 212//62
f 212//62 214//62 213//62
f 245//71 242//71 241//71
f 246//71 245//71 241//71
f 247//3 244//3 242//3
f 245//3 247//3 242//3
f 248//58 243//58 244//58
f 247//58 248//58 244//58
f 246//6 241//6 243//6
f 248//6 246//6 243//6
f 248//62 247//62 245//62
f 246//62 248//62 245//62
f 227//110 180//110 179//110
f 228//110 227//110 179//110
f 229//111 182//111 180//111
f 227//111 229//111 180//111
f 231//112 184//112 182//112
f 229//112 231//112 182//112
f 233//113 186//113 184//113
f 231//113 233//113 184//113
f 235//114 188//114 186//114
f 233//114 235//114 186//114
f 237//115 190//115 188//115
f 235//115 237//115 188//115
f 239//116 191//116 190//116
f 237//116 239//116 190//116
f 238//117 193//117 191//117
f 239//117 238//117 191//117
f 236//118 195//118 193//118
f 238//118 236//118 193//118
f 234//119 197//119 195//119
f 236//119 234//119 195//119
f 232//120 199//120 197//120
f 234//120 232//120 197//120
f 230//121 201//121 199//121
f 232//121 230//121 199//121
f 228//122 179//122 201//122
f 230//122 228//122 201//122
