# Blender v3.1.2 OBJ File: ''
# www.blender.org
mtllib Компрессионное кольцо.mtl
o Компрессионное_кольцо
v -0.219640 3.540000 -36.689342
v -0.219640 0.000000 -36.689342
v -0.237000 0.000000 -39.589291
v -0.237000 3.540000 -39.589291
v 0.237000 3.540000 -39.589291
v 5.858077 3.540000 -39.154194
v 5.858077 0.000000 -39.154194
v 0.237000 0.000000 -39.589291
v 11.360354 3.540000 -37.925064
v 11.360354 0.000000 -37.925064
v 16.632246 3.540000 -35.926823
v 16.632246 0.000000 -35.926823
v 21.566841 3.540000 -33.199993
v 21.566841 0.000000 -33.199993
v 26.064064 3.540000 -29.799877
v 26.064064 0.000000 -29.799877
v 30.032717 3.540000 -25.795427
v 30.032717 0.000000 -25.795427
v 33.392311 3.540000 -21.267853
v 33.392311 0.000000 -21.267853
v 36.074722 3.540000 -16.308971
v 36.074722 0.000000 -16.308971
v 38.025543 3.540000 -11.019349
v 38.025543 0.000000 -11.019349
v 39.205219 3.540000 -5.506257
v 39.205219 0.000000 -5.506257
v 39.589821 3.540000 0.118501
v 39.589821 0.000000 0.118501
v 39.171555 3.540000 5.740855
v 39.171555 0.000000 5.740855
v 37.958897 3.540000 11.246786
v 37.958897 0.000000 11.246786
v 35.976444 3.540000 16.524635
v 35.976444 0.000000 16.524635
v 33.264397 3.540000 21.467369
v 33.264397 0.000000 21.467369
v 29.877758 3.540000 25.974751
v 29.877758 0.000000 25.974751
v 25.885204 3.540000 29.955372
v 25.885204 0.000000 29.955372
v 21.367706 3.540000 33.328503
v 21.367706 0.000000 33.328503
v 16.416878 3.540000 36.025745
v 16.416878 0.000000 36.025745
v 11.133118 3.540000 37.992390
v 11.133118 0.000000 37.992390
v 5.623581 3.540000 39.188564
v 5.623581 0.000000 39.188564
v -0.000000 3.540000 39.590000
v -0.000000 0.000000 39.590000
v -5.623581 3.540000 39.188564
v -5.623581 0.000000 39.188564
v -11.133118 3.540000 37.992390
v -11.133118 0.000000 37.992390
v -16.416878 3.540000 36.025745
v -16.416878 0.000000 36.025745
v -21.367706 3.540000 33.328503
v -21.367706 0.000000 33.328503
v -25.885204 3.540000 29.955372
v -25.885204 0.000000 29.955372
v -29.877758 3.540000 25.974751
v -29.877758 0.000000 25.974751
v -33.264397 3.540000 21.467369
v -33.264397 0.000000 21.467369
v -35.976444 3.540000 16.524635
v -35.976444 0.000000 16.524635
v -37.958897 3.540000 11.246786
v -37.958897 0.000000 11.246786
v -39.171555 3.540000 5.740855
v -39.171555 0.000000 5.740855
v -39.589821 3.540000 0.118501
v -39.589821 0.000000 0.118501
v -39.205219 3.540000 -5.506257
v -39.205219 0.000000 -5.506257
v -38.025543 3.540000 -11.019349
v -38.025543 0.000000 -11.019349
v -36.074722 3.540000 -16.308971
v -36.074722 0.000000 -16.308971
v -33.392311 3.540000 -21.267853
v -33.392311 0.000000 -21.267853
v -30.032717 3.540000 -25.795427
v -30.032717 0.000000 -25.795427
v -26.064064 3.540000 -29.799877
v -26.064064 0.000000 -29.799877
v -21.566841 3.540000 -33.199993
v -21.566841 0.000000 -33.199993
v -16.632246 3.540000 -35.926823
v -16.632246 0.000000 -35.926823
v -11.360354 3.540000 -37.925064
v -11.360354 0.000000 -37.925064
v -5.858077 3.540000 -39.154194
v -5.858077 0.000000 -39.154194
v 0.219640 0.000000 -36.689342
v 0.219640 3.540000 -36.689342
v 5.675116 0.000000 -36.248436
v 5.675116 3.540000 -36.248436
v 11.004302 0.000000 -35.000877
v 11.004302 3.540000 -35.000877
v 16.088604 0.000000 -32.974430
v 16.088604 3.540000 -32.974430
v 20.814878 0.000000 -30.214184
v 20.814878 3.540000 -30.214184
v 25.077951 0.000000 -26.781570
v 25.077951 3.540000 -26.781570
v 28.782951 0.000000 -22.752974
v 28.782951 3.540000 -22.752974
v 31.847433 0.000000 -18.218044
v 31.847433 3.540000 -18.218044
v 34.203197 0.000000 -13.277701
v 34.203197 3.540000 -13.277701
v 35.797825 0.000000 -8.041883
v 35.797825 3.540000 -8.041883
v 36.595825 0.000000 -2.627105
v 36.595825 3.540000 -2.627105
v 36.579441 0.000000 2.846134
v 36.579441 3.540000 2.846134
v 35.749043 0.000000 8.256038
v 35.749043 3.540000 8.256038
v 34.123100 0.000000 13.482216
v 34.123100 3.540000 13.482216
v 31.737803 0.000000 18.408369
v 31.737803 3.540000 18.408369
v 28.646229 0.000000 22.924871
v 28.646229 3.540000 22.924871
v 24.917177 0.000000 26.931215
v 24.917177 3.540000 26.931215
v 20.633633 0.000000 30.338247
v 20.633633 3.540000 30.338247
v 15.890919 0.000000 33.070148
v 15.890919 3.540000 33.070148
v 10.794577 0.000000 35.066128
v 10.794577 3.540000 35.066128
v 5.458018 0.000000 36.281761
v 5.458018 3.540000 36.281761
v -0.000000 0.000000 36.689999
v -0.000000 3.540000 36.689999
v -5.458018 0.000000 36.281761
v -5.458018 3.540000 36.281761
v -10.794577 0.000000 35.066128
v -10.794577 3.540000 35.066128
v -15.890919 0.000000 33.070148
v -15.890919 3.540000 33.070148
v -20.633633 0.000000 30.338247
v -20.633633 3.540000 30.338247
v -24.917177 0.000000 26.931215
v -24.917177 3.540000 26.931215
v -28.646229 0.000000 22.924871
v -28.646229 3.540000 22.924871
v -31.737803 0.000000 18.408369
v -31.737803 3.540000 18.408369
v -34.123100 0.000000 13.482216
v -34.123100 3.540000 13.482216
v -35.749043 0.000000 8.256038
v -35.749043 3.540000 8.256038
v -36.579441 0.000000 2.846134
v -36.579441 3.540000 2.846134
v -36.595825 0.000000 -2.627105
v -36.595825 3.540000 -2.627105
v -35.797825 0.000000 -8.041883
v -35.797825 3.540000 -8.041883
v -34.203197 0.000000 -13.277701
v -34.203197 3.540000 -13.277701
v -31.847433 0.000000 -18.218044
v -31.847433 3.540000 -18.218044
v -28.782951 0.000000 -22.752974
v -28.782951 3.540000 -22.752974
v -25.077951 0.000000 -26.781570
v -25.077951 3.540000 -26.781570
v -20.814878 0.000000 -30.214184
v -20.814878 3.540000 -30.214184
v -16.088604 0.000000 -32.974430
v -16.088604 3.540000 -32.974430
v -11.004302 0.000000 -35.000877
v -11.004302 3.540000 -35.000877
v -5.675116 0.000000 -36.248436
v -5.675116 3.540000 -36.248436
v -0.000000 3.540000 36.689999
v -0.000000 3.540000 39.590000
v -11.360354 -0.000000 -37.925064
v -21.566841 0.000000 -33.199993
v -33.392311 -0.000000 -21.267853
v -38.025543 0.000000 -11.019349
v -36.595825 0.000000 -2.627105
v -36.579441 -0.000000 2.846134
v -0.000000 0.000000 39.590000
v -0.000000 0.000000 36.689999
vn 1.0000 0.0000 -0.0060
vn 0.0772 0.0000 -0.9970
vn 0.2180 0.0000 -0.9759
vn 0.3544 0.0000 -0.9351
vn 0.4837 0.0000 -0.8753
vn 0.6031 0.0000 -0.7977
vn 0.7103 0.0000 -0.7039
vn 0.8031 0.0000 -0.5959
vn 0.8796 0.0000 -0.4758
vn 0.9382 0.0000 -0.3460
vn 0.9779 0.0000 -0.2092
vn 0.9977 0.0000 -0.0682
vn 0.9972 0.0000 0.0742
vn 0.9766 0.0000 0.2151
vn 0.9361 0.0000 0.3516
vn 0.8767 0.0000 0.4810
vn 0.7995 0.0000 0.6007
vn 0.7060 0.0000 0.7082
vn 0.5983 0.0000 0.8013
vn 0.4784 0.0000 0.8781
vn 0.3488 0.0000 0.9372
vn 0.2122 0.0000 0.9772
vn 0.0712 0.0000 0.9975
vn -0.0712 0.0000 0.9975
vn -0.2122 0.0000 0.9772
vn -0.3488 0.0000 0.9372
vn -0.4784 0.0000 0.8781
vn -0.5983 0.0000 0.8013
vn -0.7060 0.0000 0.7082
vn -0.7995 0.0000 0.6007
vn -0.8767 0.0000 0.4810
vn -0.9361 0.0000 0.3516
vn -0.9766 0.0000 0.2151
vn -0.9972 0.0000 0.0742
vn -0.9977 0.0000 -0.0682
vn -0.9779 0.0000 -0.2092
vn -0.9382 0.0000 -0.3460
vn -0.8796 0.0000 -0.4758
vn -0.8031 0.0000 -0.5959
vn -0.7103 0.0000 -0.7039
vn -0.6031 0.0000 -0.7977
vn -0.4837 0.0000 -0.8753
vn -0.3544 0.0000 -0.9351
vn -0.2180 0.0000 -0.9759
vn -0.0772 0.0000 -0.9970
vn -1.0000 0.0000 -0.0060
vn -0.0806 0.0000 0.9968
vn -0.2279 0.0000 0.9737
vn -0.3702 0.0000 0.9289
vn -0.5043 0.0000 0.8635
vn -0.6272 0.0000 0.7789
vn -0.7361 0.0000 0.6769
vn -0.7360 0.0000 0.6769
vn -0.8286 0.0000 0.5599
vn -0.9026 0.0000 0.4304
vn -0.9566 0.0000 0.2913
vn -0.9893 0.0000 0.1458
vn -1.0000 0.0000 -0.0030
vn -0.9884 0.0000 -0.1517
vn -0.9549 0.0000 -0.2971
vn -0.9000 0.0000 -0.4358
vn -0.8252 0.0000 -0.5649
vn -0.7320 0.0000 -0.6813
vn -0.6225 0.0000 -0.7826
vn -0.4991 0.0000 -0.8665
vn -0.3647 0.0000 -0.9311
vn -0.2221 0.0000 -0.9750
vn -0.0746 0.0000 -0.9972
vn 0.0746 0.0000 -0.9972
vn 0.2221 0.0000 -0.9750
vn 0.3647 0.0000 -0.9311
vn 0.4991 0.0000 -0.8665
vn 0.6225 0.0000 -0.7826
vn 0.7320 0.0000 -0.6813
vn 0.8252 0.0000 -0.5649
vn 0.9000 0.0000 -0.4358
vn 0.9549 0.0000 -0.2971
vn 0.9884 0.0000 -0.1517
vn 1.0000 0.0000 -0.0030
vn 0.9893 0.0000 0.1458
vn 0.9566 0.0000 0.2913
vn 0.9026 0.0000 0.4304
vn 0.8286 0.0000 0.5599
vn 0.7360 0.0000 0.6769
vn 0.7361 0.0000 0.6769
vn 0.6272 0.0000 0.7789
vn 0.5043 0.0000 0.8635
vn 0.3702 0.0000 0.9289
vn 0.2279 0.0000 0.9737
vn 0.0806 0.0000 0.9968
vn 0.0000 1.0000 0.0000
vn -0.0000 -1.0000 -0.0000
usemtl None
s off
f 1//1 2//1 3//1
f 4//1 1//1 3//1
f 5//2 6//2 7//2
f 5//2 7//2 8//2
f 6//3 9//3 10//3
f 6//3 10//3 7//3
f 9//4 11//4 12//4
f 9//4 12//4 10//4
f 11//5 13//5 14//5
f 11//5 14//5 12//5
f 13//6 15//6 16//6
f 13//6 16//6 14//6
f 15//7 17//7 18//7
f 15//7 18//7 16//7
f 17//8 19//8 20//8
f 17//8 20//8 18//8
f 19//9 21//9 22//9
f 19//9 22//9 20//9
f 21//10 23//10 24//10
f 21//10 24//10 22//10
f 23//11 25//11 26//11
f 23//11 26//11 24//11
f 25//12 27//12 28//12
f 25//12 28//12 26//12
f 27//13 29//13 30//13
f 27//13 30//13 28//13
f 29//14 31//14 32//14
f 29//14 32//14 30//14
f 31//15 33//15 34//15
f 31//15 34//15 32//15
f 33//16 35//16 36//16
f 33//16 36//16 34//16
f 35//17 37//17 38//17
f 35//17 38//17 36//17
f 37//18 39//18 40//18
f 37//18 40//18 38//18
f 39//19 41//19 42//19
f 39//19 42//19 40//19
f 41//20 43//20 44//20
f 41//20 44//20 42//20
f 43//21 45//21 46//21
f 43//21 46//21 44//21
f 45//22 47//22 48//22
f 45//22 48//22 46//22
f 47//23 49//23 50//23
f 47//23 50//23 48//23
f 49//24 51//24 52//24
f 49//24 52//24 50//24
f 51//25 53//25 54//25
f 51//25 54//25 52//25
f 53//26 55//26 56//26
f 53//26 56//26 54//26
f 55//27 57//27 58//27
f 55//27 58//27 56//27
f 57//28 59//28 60//28
f 57//28 60//28 58//28
f 59//29 61//29 62//29
f 59//29 62//29 60//29
f 61//30 63//30 64//30
f 61//30 64//30 62//30
f 63//31 65//31 66//31
f 63//31 66//31 64//31
f 65//32 67//32 68//32
f 65//32 68//32 66//32
f 67//33 69//33 70//33
f 67//33 70//33 68//33
f 69//34 71//34 72//34
f 69//34 72//34 70//34
f 71//35 73//35 74//35
f 71//35 74//35 72//35
f 73//36 75//36 76//36
f 73//36 76//36 74//36
f 75//37 77//37 78//37
f 75//37 78//37 76//37
f 77//38 79//38 80//38
f 77//38 80//38 78//38
f 79//39 81//39 82//39
f 79//39 82//39 80//39
f 81//40 83//40 84//40
f 81//40 84//40 82//40
f 83//41 85//41 86//41
f 83//41 86//41 84//41
f 85//42 87//42 88//42
f 85//42 88//42 86//42
f 87//43 89//43 90//43
f 87//43 90//43 88//43
f 89//44 91//44 92//44
f 89//44 92//44 90//44
f 91//45 4//45 3//45
f 91//45 3//45 92//45
f 5//46 8//46 93//46
f 5//46 93//46 94//46
f 95//47 96//47 94//47
f 93//47 95//47 94//47
f 97//48 98//48 96//48
f 95//48 97//48 96//48
f 99//49 100//49 98//49
f 97//49 99//49 98//49
f 101//50 102//50 100//50
f 99//50 101//50 100//50
f 103//51 104//51 102//51
f 101//51 103//51 102//51
f 105//52 106//52 104//52
f 103//53 105//53 104//53
f 107//54 108//54 106//54
f 105//54 107//54 106//54
f 109//55 110//55 108//55
f 107//55 109//55 108//55
f 111//56 112//56 110//56
f 109//56 111//56 110//56
f 113//57 114//57 112//57
f 111//57 113//57 112//57
f 115//58 116//58 114//58
f 113//58 115//58 114//58
f 117//59 118//59 116//59
f 115//59 117//59 116//59
f 119//60 120//60 118//60
f 117//60 119//60 118//60
f 121//61 122//61 120//61
f 119//61 121//61 120//61
f 123//62 124//62 122//62
f 121//62 123//62 122//62
f 125//63 126//63 124//63
f 123//63 125//63 124//63
f 127//64 128//64 126//64
f 125//64 127//64 126//64
f 129//65 130//65 128//65
f 127//65 129//65 128//65
f 131//66 132//66 130//66
f 129//66 131//66 130//66
f 133//67 134//67 132//67
f 131//67 133//67 132//67
f 135//68 136//68 134//68
f 133//68 135//68 134//68
f 137//69 138//69 136//69
f 135//69 137//69 136//69
f 139//70 140//70 138//70
f 137//70 139//70 138//70
f 141//71 142//71 140//71
f 139//71 141//71 140//71
f 143//72 144//72 142//72
f 141//72 143//72 142//72
f 145//73 146//73 144//73
f 143//73 145//73 144//73
f 147//74 148//74 146//74
f 145//74 147//74 146//74
f 149//75 150//75 148//75
f 147//75 149//75 148//75
f 151//76 152//76 150//76
f 149//76 151//76 150//76
f 153//77 154//77 152//77
f 151//77 153//77 152//77
f 155//78 156//78 154//78
f 153//78 155//78 154//78
f 157//79 158//79 156//79
f 155//79 157//79 156//79
f 159//80 160//80 158//80
f 157//80 159//80 158//80
f 161//81 162//81 160//81
f 159//81 161//81 160//81
f 163//82 164//82 162//82
f 161//82 163//82 162//82
f 165//83 166//83 164//83
f 163//83 165//83 164//83
f 167//84 168//84 166//84
f 165//85 167//85 166//85
f 169//86 170//86 168//86
f 167//86 169//86 168//86
f 171//87 172//87 170//87
f 169//87 171//87 170//87
f 173//88 174//88 172//88
f 171//88 173//88 172//88
f 175//89 176//89 174//89
f 173//89 175//89 174//89
f 2//90 1//90 176//90
f 175//90 2//90 176//90
f 1//91 4//91 176//91
f 4//91 91//91 176//91
f 176//91 91//91 174//91
f 91//91 89//91 174//91
f 174//91 89//91 172//91
f 89//91 87//91 172//91
f 172//91 87//91 170//91
f 87//91 85//91 170//91
f 170//91 85//91 168//91
f 85//91 83//91 168//91
f 168//91 83//91 166//91
f 83//91 81//91 166//91
f 166//91 81//91 164//91
f 81//91 79//91 164//91
f 164//91 79//91 162//91
f 79//91 77//91 162//91
f 162//91 77//91 160//91
f 77//91 75//91 160//91
f 160//91 75//91 158//91
f 75//91 73//91 158//91
f 158//91 73//91 156//91
f 73//91 71//91 156//91
f 156//91 71//91 154//91
f 71//91 69//91 154//91
f 154//91 69//91 152//91
f 69//91 67//91 152//91
f 152//91 67//91 150//91
f 67//91 65//91 150//91
f 150//91 65//91 148//91
f 65//91 63//91 148//91
f 148//91 63//91 146//91
f 63//91 61//91 146//91
f 146//91 61//91 144//91
f 61//91 59//91 144//91
f 144//91 59//91 142//91
f 59//91 57//91 142//91
f 142//91 57//91 140//91
f 57//91 55//91 140//91
f 140//91 55//91 138//91
f 55//91 53//91 138//91
f 138//91 53//91 177//91
f 53//91 51//91 177//91
f 177//91 51//91 134//91
f 51//91 178//91 134//91
f 134//91 178//91 132//91
f 178//91 47//91 132//91
f 132//91 47//91 130//91
f 47//91 45//91 130//91
f 130//91 45//91 128//91
f 45//91 43//91 128//91
f 128//91 43//91 126//91
f 43//91 41//91 126//91
f 126//91 41//91 124//91
f 41//91 39//91 124//91
f 124//91 39//91 122//91
f 39//91 37//91 122//91
f 122//91 37//91 120//91
f 37//91 35//91 120//91
f 120//91 35//91 118//91
f 35//91 33//91 118//91
f 118//91 33//91 116//91
f 33//91 31//91 116//91
f 116//91 31//91 114//91
f 31//91 29//91 114//91
f 114//91 29//91 112//91
f 29//91 27//91 112//91
f 112//91 27//91 110//91
f 27//91 25//91 110//91
f 110//91 25//91 108//91
f 25//91 23//91 108//91
f 108//91 23//91 106//91
f 23//91 21//91 106//91
f 106//91 21//91 104//91
f 21//91 19//91 104//91
f 104//91 19//91 102//91
f 19//91 17//91 102//91
f 102//91 17//91 100//91
f 17//91 15//91 100//91
f 100//91 15//91 98//91
f 15//91 13//91 98//91
f 98//91 13//91 96//91
f 13//91 11//91 96//91
f 96//91 11//91 94//91
f 11//91 9//91 94//91
f 94//91 9//91 5//91
f 9//91 6//91 5//91
f 92//92 3//92 179//92
f 3//92 2//92 179//92
f 179//92 2//92 88//92
f 2//92 175//92 88//92
f 88//92 175//92 180//92
f 175//92 173//92 180//92
f 180//92 173//92 84//92
f 173//92 171//92 84//92
f 84//92 171//92 82//92
f 171//92 169//92 82//92
f 82//92 169//92 181//92
f 169//92 167//92 181//92
f 181//92 167//92 78//92
f 167//92 165//92 78//92
f 78//92 165//92 182//92
f 165//92 163//92 182//92
f 182//92 163//92 74//92
f 163//92 161//92 74//92
f 74//92 161//92 72//92
f 161//92 159//92 72//92
f 72//92 159//92 70//92
f 159//92 183//92 70//92
f 70//92 183//92 68//92
f 183//92 184//92 68//92
f 68//92 184//92 66//92
f 184//92 153//92 66//92
f 66//92 153//92 64//92
f 153//92 151//92 64//92
f 64//92 151//92 62//92
f 151//92 149//92 62//92
f 62//92 149//92 60//92
f 149//92 147//92 60//92
f 60//92 147//92 58//92
f 147//92 145//92 58//92
f 58//92 145//92 56//92
f 145//92 143//92 56//92
f 56//92 143//92 54//92
f 143//92 141//92 54//92
f 54//92 141//92 52//92
f 141//92 139//92 52//92
f 52//92 139//92 185//92
f 139//92 137//92 185//92
f 185//92 137//92 48//92
f 137//92 186//92 48//92
f 48//92 186//92 46//92
f 186//92 133//92 46//92
f 46//92 133//92 44//92
f 133//92 131//92 44//92
f 44//92 131//92 42//92
f 131//92 129//92 42//92
f 42//92 129//92 40//92
f 129//92 127//92 40//92
f 40//92 127//92 38//92
f 127//92 125//92 38//92
f 38//92 125//92 36//92
f 125//92 123//92 36//92
f 36//92 123//92 34//92
f 123//92 121//92 34//92
f 34//92 121//92 32//92
f 121//92 119//92 32//92
f 32//92 119//92 30//92
f 119//92 117//92 30//92
f 30//92 117//92 28//92
f 117//92 115//92 28//92
f 28//92 115//92 26//92
f 115//92 113//92 26//92
f 26//92 113//92 24//92
f 113//92 111//92 24//92
f 24//92 111//92 22//92
f 111//92 109//92 22//92
f 22//92 109//92 20//92
f 109//92 107//92 20//92
f 20//92 107//92 18//92
f 107//92 105//92 18//92
f 18//92 105//92 16//92
f 105//92 103//92 16//92
f 16//92 103//92 14//92
f 103//92 101//92 14//92
f 14//92 101//92 12//92
f 101//92 99//92 12//92
f 12//92 99//92 10//92
f 99//92 97//92 10//92
f 10//92 97//92 7//92
f 97//92 95//92 7//92
f 7//92 95//92 8//92
f 95//92 93//92 8//92
