# Blender v3.1.2 OBJ File: ''
# www.blender.org
mtllib Шайба дистанционная.mtl
o Шайба_дистанционная
v 0.500000 25.662018 -4.688501
v 0.500000 26.072208 0.000000
v 0.500000 24.443909 -9.234544
v 0.500000 25.662018 4.688501
v 0.500000 22.454895 -13.500000
v 0.500000 24.443909 9.234544
v 0.500000 19.755409 -17.355265
v 0.500000 21.072208 -3.000000
v 0.500000 16.427473 -20.683201
v 0.500000 13.769147 -3.000000
v 0.500000 12.572208 -23.382687
v 0.500000 12.665276 -6.342596
v 0.500000 8.306752 -25.371700
v 0.500000 10.812790 -9.335885
v 0.500000 3.760709 -26.589809
v 0.500000 8.313712 -11.815016
v 0.500000 -0.927792 -27.000000
v 0.500000 5.305675 -13.643456
v 0.500000 -5.616292 -26.589809
v 0.500000 1.954340 -14.720507
v 0.500000 -10.162335 -25.371700
v 0.500000 -1.555722 -14.986851
v 0.500000 -14.427792 -23.382687
v 0.500000 -5.031203 -14.427821
v 0.500000 -18.283056 -20.683201
v 0.500000 -8.280695 -13.074203
v 0.500000 -21.610992 -17.355265
v 0.500000 -11.125239 -11.000548
v 0.500000 -24.310478 -13.500000
v 0.500000 -13.408177 -8.321056
v 0.500000 -26.299492 -9.234544
v 0.500000 -15.003779 -5.183297
v 0.500000 -27.517601 -4.688501
v 0.500000 -15.824171 -1.760077
v 0.500000 -27.927792 0.000000
v 0.500000 -15.824171 1.760077
v 0.500000 -27.517601 4.688501
v 0.500000 -15.003779 5.183297
v 0.500000 -26.299492 9.234544
v 0.500000 -13.408177 8.321056
v 0.500000 -24.310478 13.500000
v 0.500000 -11.125239 11.000548
v 0.500000 -21.610992 17.355265
v 0.500000 -8.280695 13.074203
v 0.500000 -18.283056 20.683201
v 0.500000 -5.031203 14.427821
v 0.500000 -14.427792 23.382687
v 0.500000 -1.555722 14.986851
v 0.500000 -10.162335 25.371700
v 0.500000 1.954340 14.720507
v 0.500000 -5.616292 26.589809
v 0.500000 5.305675 13.643456
v 0.500000 -0.927792 27.000000
v 0.500000 8.313712 11.815016
v 0.500000 3.760709 26.589809
v 0.500000 10.812790 9.335885
v 0.500000 8.306752 25.371700
v 0.500000 12.665276 6.342596
v 0.500000 12.572208 23.382687
v 0.500000 13.769147 3.000000
v 0.500000 16.427473 20.683201
v 0.500000 21.072208 3.000000
v 0.500000 19.755409 17.355265
v 0.500000 22.454895 13.500000
v -0.500000 25.662018 4.688501
v -0.500000 26.072208 0.000000
v -0.500000 24.443909 9.234544
v -0.500000 25.662018 -4.688501
v -0.500000 22.454895 13.500000
v -0.500000 24.443909 -9.234544
v -0.500000 19.755409 17.355265
v -0.500000 21.072208 3.000000
v -0.500000 16.427473 20.683201
v -0.500000 13.769147 3.000000
v -0.500000 12.572208 23.382687
v -0.500000 12.665276 6.342596
v -0.500000 8.306752 25.371700
v -0.500000 10.812790 9.335885
v -0.500000 3.760709 26.589809
v -0.500000 8.313712 11.815016
v -0.500000 -0.927792 27.000000
v -0.500000 5.305675 13.643456
v -0.500000 -5.616292 26.589809
v -0.500000 1.954340 14.720507
v -0.500000 -10.162335 25.371700
v -0.500000 -1.555722 14.986851
v -0.500000 -14.427792 23.382687
v -0.500000 -5.031203 14.427821
v -0.500000 -18.283056 20.683201
v -0.500000 -8.280695 13.074203
v -0.500000 -21.610992 17.355265
v -0.500000 -11.125239 11.000548
v -0.500000 -24.310478 13.500000
v -0.500000 -13.408177 8.321056
v -0.500000 -26.299492 9.234544
v -0.500000 -15.003779 5.183297
v -0.500000 -27.517601 4.688501
v -0.500000 -15.824171 1.760077
v -0.500000 -27.927792 0.000000
v -0.500000 -15.824171 -1.760077
v -0.500000 -27.517601 -4.688501
v -0.500000 -15.003779 -5.183297
v -0.500000 -26.299492 -9.234544
v -0.500000 -13.408177 -8.321056
v -0.500000 -24.310478 -13.500000
v -0.500000 -11.125239 -11.000548
v -0.500000 -21.610992 -17.355265
v -0.500000 -8.280695 -13.074203
v -0.500000 -18.283056 -20.683201
v -0.500000 -5.031203 -14.427821
v -0.500000 -14.427792 -23.382687
v -0.500000 -1.555722 -14.986851
v -0.500000 -10.162335 -25.371700
v -0.500000 1.954340 -14.720507
v -0.500000 -5.616292 -26.589809
v -0.500000 5.305675 -13.643456
v -0.500000 -0.927792 -27.000000
v -0.500000 8.313712 -11.815016
v -0.500000 3.760709 -26.589809
v -0.500000 10.812790 -9.335885
v -0.500000 8.306752 -25.371700
v -0.500000 12.665276 -6.342596
v -0.500000 12.572208 -23.382687
v -0.500000 13.769147 -3.000000
v -0.500000 16.427473 -20.683201
v -0.500000 21.072208 -3.000000
v -0.500000 19.755409 -17.355265
v -0.500000 22.454895 -13.500000
v 0.500000 26.072208 0.000000
v -0.500000 26.072208 0.000000
vn 1.0000 0.0000 0.0000
vn -1.0000 0.0000 0.0000
vn 0.0000 0.0000 1.0000
vn 0.0000 -1.0000 0.0000
vn 0.0000 0.0000 -1.0000
vn 0.0000 -0.9496 0.3136
vn 0.0000 -0.8503 0.5263
vn 0.0000 -0.7043 0.7099
vn 0.0000 -0.5194 0.8545
vn 0.0000 -0.3060 0.9520
vn 0.0000 -0.0757 0.9971
vn 0.0000 0.1588 0.9873
vn 0.0000 0.3845 0.9231
vn 0.0000 0.5891 0.8081
vn 0.0000 0.7612 0.6485
vn 0.0000 0.8914 0.4533
vn 0.0000 0.9725 0.2331
vn 0.0000 1.0000 0.0000
vn 0.0000 0.9725 -0.2331
vn 0.0000 0.8914 -0.4533
vn 0.0000 0.7612 -0.6485
vn 0.0000 0.5891 -0.8081
vn 0.0000 0.3845 -0.9231
vn 0.0000 0.1588 -0.9873
vn 0.0000 -0.0757 -0.9971
vn 0.0000 -0.3060 -0.9520
vn 0.0000 -0.5194 -0.8545
vn 0.0000 -0.7043 -0.7099
vn 0.0000 -0.8503 -0.5263
vn 0.0000 -0.9496 -0.3136
vn 0.0000 0.9962 -0.0872
vn 0.0000 0.9659 -0.2588
vn 0.0000 0.9063 -0.4226
vn 0.0000 0.8192 -0.5736
vn 0.0000 0.7071 -0.7071
vn 0.0000 0.5736 -0.8192
vn 0.0000 0.4226 -0.9063
vn 0.0000 0.2588 -0.9659
vn 0.0000 0.0872 -0.9962
vn 0.0000 -0.0872 -0.9962
vn 0.0000 -0.2588 -0.9659
vn 0.0000 -0.4226 -0.9063
vn 0.0000 -0.5736 -0.8192
vn 0.0000 -0.7071 -0.7071
vn 0.0000 -0.8192 -0.5736
vn 0.0000 -0.9063 -0.4226
vn 0.0000 -0.9659 -0.2588
vn 0.0000 -0.9962 -0.0872
vn 0.0000 -0.9962 0.0872
vn 0.0000 -0.9659 0.2588
vn 0.0000 -0.9063 0.4226
vn 0.0000 -0.8192 0.5736
vn 0.0000 -0.7071 0.7071
vn 0.0000 -0.5736 0.8192
vn 0.0000 -0.4226 0.9063
vn 0.0000 -0.2588 0.9659
vn 0.0000 -0.0872 0.9962
vn 0.0000 0.0872 0.9962
vn 0.0000 0.2588 0.9659
vn 0.0000 0.4226 0.9063
vn 0.0000 0.5736 0.8192
vn 0.0000 0.7071 0.7071
vn 0.0000 0.8192 0.5736
vn 0.0000 0.9063 0.4226
vn 0.0000 0.9659 0.2588
vn 0.0000 0.9962 0.0872
usemtl Материал
s off
f 1//1 2//1 3//1
f 2//1 4//1 3//1
f 3//1 4//1 5//1
f 4//1 6//1 5//1
f 5//1 6//1 7//1
f 6//1 8//1 7//1
f 7//1 8//1 9//1
f 8//1 10//1 9//1
f 9//1 10//1 11//1
f 10//1 12//1 11//1
f 11//1 12//1 13//1
f 12//1 14//1 13//1
f 13//1 14//1 15//1
f 14//1 16//1 15//1
f 15//1 16//1 17//1
f 16//1 18//1 17//1
f 17//1 18//1 19//1
f 18//1 20//1 19//1
f 19//1 20//1 21//1
f 20//1 22//1 21//1
f 21//1 22//1 23//1
f 22//1 24//1 23//1
f 23//1 24//1 25//1
f 24//1 26//1 25//1
f 25//1 26//1 27//1
f 26//1 28//1 27//1
f 27//1 28//1 29//1
f 28//1 30//1 29//1
f 29//1 30//1 31//1
f 30//1 32//1 31//1
f 31//1 32//1 33//1
f 32//1 34//1 33//1
f 33//1 34//1 35//1
f 34//1 36//1 35//1
f 35//1 36//1 37//1
f 36//1 38//1 37//1
f 37//1 38//1 39//1
f 38//1 40//1 39//1
f 39//1 40//1 41//1
f 40//1 42//1 41//1
f 41//1 42//1 43//1
f 42//1 44//1 43//1
f 43//1 44//1 45//1
f 44//1 46//1 45//1
f 45//1 46//1 47//1
f 46//1 48//1 47//1
f 47//1 48//1 49//1
f 48//1 50//1 49//1
f 49//1 50//1 51//1
f 50//1 52//1 51//1
f 51//1 52//1 53//1
f 52//1 54//1 53//1
f 53//1 54//1 55//1
f 54//1 56//1 55//1
f 55//1 56//1 57//1
f 56//1 58//1 57//1
f 57//1 58//1 59//1
f 58//1 60//1 59//1
f 59//1 60//1 61//1
f 60//1 62//1 61//1
f 61//1 62//1 63//1
f 8//1 6//1 62//1
f 62//1 6//1 63//1
f 6//1 64//1 63//1
f 65//2 66//2 67//2
f 66//2 68//2 67//2
f 67//2 68//2 69//2
f 68//2 70//2 69//2
f 69//2 70//2 71//2
f 70//2 72//2 71//2
f 71//2 72//2 73//2
f 72//2 74//2 73//2
f 73//2 74//2 75//2
f 74//2 76//2 75//2
f 75//2 76//2 77//2
f 76//2 78//2 77//2
f 77//2 78//2 79//2
f 78//2 80//2 79//2
f 79//2 80//2 81//2
f 80//2 82//2 81//2
f 81//2 82//2 83//2
f 82//2 84//2 83//2
f 83//2 84//2 85//2
f 84//2 86//2 85//2
f 85//2 86//2 87//2
f 86//2 88//2 87//2
f 87//2 88//2 89//2
f 88//2 90//2 89//2
f 89//2 90//2 91//2
f 90//2 92//2 91//2
f 91//2 92//2 93//2
f 92//2 94//2 93//2
f 93//2 94//2 95//2
f 94//2 96//2 95//2
f 95//2 96//2 97//2
f 96//2 98//2 97//2
f 97//2 98//2 99//2
f 98//2 100//2 99//2
f 99//2 100//2 101//2
f 100//2 102//2 101//2
f 101//2 102//2 103//2
f 102//2 104//2 103//2
f 103//2 104//2 105//2
f 104//2 106//2 105//2
f 105//2 106//2 107//2
f 106//2 108//2 107//2
f 107//2 108//2 109//2
f 108//2 110//2 109//2
f 109//2 110//2 111//2
f 110//2 112//2 111//2
f 111//2 112//2 113//2
f 112//2 114//2 113//2
f 113//2 114//2 115//2
f 114//2 116//2 115//2
f 115//2 116//2 117//2
f 116//2 118//2 117//2
f 117//2 118//2 119//2
f 118//2 120//2 119//2
f 119//2 120//2 121//2
f 120//2 122//2 121//2
f 121//2 122//2 123//2
f 122//2 124//2 123//2
f 123//2 124//2 125//2
f 124//2 126//2 125//2
f 125//2 126//2 127//2
f 72//2 70//2 126//2
f 126//2 70//2 127//2
f 70//2 128//2 127//2
f 8//3 126//3 124//3
f 10//3 8//3 124//3
f 62//4 72//4 126//4
f 8//4 62//4 126//4
f 60//5 74//5 72//5
f 62//5 60//5 72//5
f 122//6 12//6 10//6
f 124//6 122//6 10//6
f 120//7 14//7 12//7
f 122//7 120//7 12//7
f 118//8 16//8 14//8
f 120//8 118//8 14//8
f 116//9 18//9 16//9
f 118//9 116//9 16//9
f 114//10 20//10 18//10
f 116//10 114//10 18//10
f 112//11 22//11 20//11
f 114//11 112//11 20//11
f 110//12 24//12 22//12
f 112//12 110//12 22//12
f 108//13 26//13 24//13
f 110//13 108//13 24//13
f 106//14 28//14 26//14
f 108//14 106//14 26//14
f 104//15 30//15 28//15
f 106//15 104//15 28//15
f 102//16 32//16 30//16
f 104//16 102//16 30//16
f 100//17 34//17 32//17
f 102//17 100//17 32//17
f 98//18 36//18 34//18
f 100//18 98//18 34//18
f 96//19 38//19 36//19
f 98//19 96//19 36//19
f 94//20 40//20 38//20
f 96//20 94//20 38//20
f 92//21 42//21 40//21
f 94//21 92//21 40//21
f 90//22 44//22 42//22
f 92//22 90//22 42//22
f 88//23 46//23 44//23
f 90//23 88//23 44//23
f 86//24 48//24 46//24
f 88//24 86//24 46//24
f 84//25 50//25 48//25
f 86//25 84//25 48//25
f 82//26 52//26 50//26
f 84//26 82//26 50//26
f 80//27 54//27 52//27
f 82//27 80//27 52//27
f 78//28 56//28 54//28
f 80//28 78//28 54//28
f 76//29 58//29 56//29
f 78//29 76//29 56//29
f 74//30 60//30 58//30
f 76//30 74//30 58//30
f 2//31 1//31 68//31
f 2//31 68//31 66//31
f 1//32 3//32 70//32
f 1//32 70//32 68//32
f 3//33 5//33 128//33
f 3//33 128//33 70//33
f 5//34 7//34 127//34
f 5//34 127//34 128//34
f 7//35 9//35 125//35
f 7//35 125//35 127//35
f 9//36 11//36 123//36
f 9//36 123//36 125//36
f 11//37 13//37 121//37
f 11//37 121//37 123//37
f 13//38 15//38 119//38
f 13//38 119//38 121//38
f 15//39 17//39 117//39
f 15//39 117//39 119//39
f 17//40 19//40 115//40
f 17//40 115//40 117//40
f 19//41 21//41 113//41
f 19//41 113//41 115//41
f 21//42 23//42 111//42
f 21//42 111//42 113//42
f 23//43 25//43 109//43
f 23//43 109//43 111//43
f 25//44 27//44 107//44
f 25//44 107//44 109//44
f 27//45 29//45 105//45
f 27//45 105//45 107//45
f 29//46 31//46 103//46
f 29//46 103//46 105//46
f 31//47 33//47 101//47
f 31//47 101//47 103//47
f 33//48 35//48 99//48
f 33//48 99//48 101//48
f 35//49 37//49 97//49
f 35//49 97//49 99//49
f 37//50 39//50 95//50
f 37//50 95//50 97//50
f 39//51 41//51 93//51
f 39//51 93//51 95//51
f 41//52 43//52 91//52
f 41//52 91//52 93//52
f 43//53 45//53 89//53
f 43//53 89//53 91//53
f 45//54 47//54 87//54
f 45//54 87//54 89//54
f 47//55 49//55 85//55
f 47//55 85//55 87//55
f 49//56 51//56 83//56
f 49//56 83//56 85//56
f 51//57 53//57 81//57
f 51//57 81//57 83//57
f 53//58 55//58 79//58
f 53//58 79//58 81//58
f 55//59 57//59 77//59
f 55//59 77//59 79//59
f 57//60 59//60 75//60
f 57//60 75//60 77//60
f 59//61 61//61 73//61
f 59//61 73//61 75//61
f 61//62 63//62 71//62
f 61//62 71//62 73//62
f 63//63 64//63 69//63
f 63//63 69//63 71//63
f 64//64 6//64 67//64
f 64//64 67//64 69//64
f 6//65 4//65 65//65
f 6//65 65//65 67//65
f 4//66 129//66 130//66
f 4//66 130//66 65//66
